<svg width="388" height="398" viewBox="0 0 388 398" fill="none" xmlns="http://www.w3.org/2000/svg">
<path d="M328.499 285.473C358.203 295.263 356.885 285.473 373.273 285.473C388.098 285.473 393.331 314.532 381.51 325.417C373.044 333.213 332.64 325.797 318.482 335.191C288.14 355.323 265.036 370.311 228.936 375.535C142.608 388.026 134.267 330.909 41.0065 317.63C24.7519 315.316 18.0672 288.596 46.9247 280.876C74.3363 273.543 107.593 262.231 126.15 257.163C147.715 251.273 195.081 234.813 228.936 245.118C262.79 255.423 298.795 275.684 328.499 285.473Z" fill="#F1F1F1"/>
<path d="M96.4246 308.115C96.4246 318.432 103.607 328.845 112.466 328.845C112.909 328.845 113.347 326.774 113.781 326.733C122.026 325.954 128.508 317.916 128.508 308.115C128.508 297.799 121.326 289.436 112.466 289.436C103.607 289.436 96.4246 297.799 96.4246 308.115Z" fill="#6E3892"/>
<path d="M198.632 250.946C198.632 261.262 205.814 269.626 214.673 269.626C215.116 269.626 215.554 269.605 215.988 269.564C224.233 268.785 230.715 260.747 230.715 250.946C230.715 240.63 223.533 232.267 214.673 232.267C205.814 232.267 198.632 240.63 198.632 250.946Z" fill="#6E3892"/>
<ellipse cx="16.0416" cy="18.6794" rx="16.0416" ry="18.6794" transform="matrix(-0.986024 -0.166605 -0.166605 0.986024 134.281 294.221)" fill="#552B71"/>
<ellipse cx="16.0416" cy="18.6794" rx="16.0416" ry="18.6794" transform="matrix(-0.986024 -0.166605 -0.166605 0.986024 236.5 237.051)" fill="#552B71"/>
<ellipse cx="6.25917" cy="7.46582" rx="6.25917" ry="7.46582" transform="matrix(-1 0 0 1 124.98 302.5)" fill="#552B71"/>
<ellipse cx="6.25917" cy="7.46582" rx="6.25917" ry="7.46582" transform="matrix(-1 0 0 1 124.98 302.5)" fill="#E6D9F9" fill-opacity="0.2"/>
<ellipse cx="6.25917" cy="7.46582" rx="6.25917" ry="7.46582" transform="matrix(-1 0 0 1 227.195 245.331)" fill="#552B71"/>
<ellipse cx="6.25917" cy="7.46582" rx="6.25917" ry="7.46582" transform="matrix(-1 0 0 1 227.195 245.331)" fill="#E6D9F9" fill-opacity="0.2"/>
<path d="M221.44 347.598C221.44 357.915 228.622 366.278 237.482 366.278C237.925 366.278 238.363 366.257 238.797 366.216C247.041 365.437 253.523 357.399 253.523 347.598C253.523 337.282 246.341 328.919 237.482 328.919C228.622 328.919 221.44 337.282 221.44 347.598Z" fill="#6E3892"/>
<path d="M240.415 360.87L238.521 366.22L232.845 366.508L227.19 365.839L226.745 360.091L240.415 360.87Z" fill="#6E3892"/>
<ellipse cx="18.0253" cy="18.4248" rx="18.0253" ry="18.4248" transform="matrix(-0.986024 -0.166605 -0.166605 0.986024 251.887 332.513)" fill="#552B71"/>
<path d="M307.591 299.139C309.85 309.205 318.689 315.793 327.333 313.853C327.765 313.756 328.189 313.639 328.603 313.504C336.477 310.939 341.041 301.677 338.895 292.114C336.636 282.048 327.797 275.46 319.152 277.401C310.508 279.341 305.332 289.073 307.591 299.139Z" fill="#6E3892"/>
<path d="M326.143 314.128L320.039 314.432L319.411 308.726L326.797 308.678L326.143 314.128Z" fill="#6E3892"/>
<ellipse cx="16.0416" cy="18.6794" rx="16.0416" ry="18.6794" transform="matrix(-0.998575 0.0533626 0.0533626 0.998575 335.258 276.118)" fill="#552B71"/>
<ellipse cx="6.25917" cy="7.46582" rx="6.25917" ry="7.46582" transform="matrix(-0.975728 0.218984 0.218984 0.975728 324.168 286.939)" fill="#552B71"/>
<ellipse cx="6.25917" cy="7.46582" rx="6.25917" ry="7.46582" transform="matrix(-0.975728 0.218984 0.218984 0.975728 324.168 286.939)" fill="#E6D9F9" fill-opacity="0.2"/>
<ellipse cx="7.11664" cy="7.46582" rx="7.11664" ry="7.46582" transform="matrix(-1 0 0 1 236.5 339.982)" fill="#552B71"/>
<ellipse cx="7.11664" cy="7.46582" rx="7.11664" ry="7.46582" transform="matrix(-1 0 0 1 236.5 339.982)" fill="#E6D9F9" fill-opacity="0.2"/>
<path d="M167.443 61.7552H172.156C169.865 53.7963 166.708 42.7507 163.983 33.0574C162.492 27.7508 161.129 22.8453 160.108 19.0722C159.436 16.5836 158.894 14.5241 158.569 13.1705H153.641L167.443 61.7552Z" fill="#A86DB5" stroke="#9D64A9" stroke-width="3.41652"/>
<path d="M57.1581 100.527L22.299 50.4871L16.4272 55.3185L45.7606 98.8009C48.6477 111.893 52.1821 127.872 55.9681 144.923C63.8366 190.745 80.6102 283.148 84.7568 286.187C88.6963 289.074 96.6765 290.968 100.716 291.655L245.922 341.405L331.847 283.774L335.645 270.315L232.81 236.613L225.903 242.707L322.186 273.076L245.922 321.735C217.343 313.982 172.056 301.553 137.596 291.753L212.444 250.182L198.64 246.158L118.233 286.187C102.355 281.56 91.4102 278.168 89.9399 277.217C85.2466 274.18 66.1299 158.158 57.1581 100.527Z" fill="url(#paint0_linear_2136_6735)"/>
<path d="M77.8085 242.899L261.723 264.211L330.131 222.902L365.125 122.394L169.106 51.0913L47.5508 98.9774L77.8085 242.899Z" fill="#E4BDED"/>
<path d="M237.747 172.325L249.298 176.581L250.515 198.266L237.747 195.429V172.325Z" fill="#512D79"/>
<path d="M218.305 166.072L228.224 169.286V194.416L216.546 191.948C214.966 191.615 213.836 190.22 213.836 188.606V169.322C213.836 167.003 216.098 165.357 218.305 166.072Z" fill="#512D79"/>
<path d="M197.151 159.082C199.733 160.142 202.834 161.395 204.731 162.105C205.558 162.414 206.134 163.203 206.134 164.086V185.347C206.134 186.655 204.9 187.611 203.634 187.284L194.38 184.891V160.937C194.38 159.51 195.831 158.54 197.151 159.082Z" fill="#512D79"/>
<path d="M172.087 150.236L187.287 155.302V177.864C187.287 180.092 185.189 181.724 183.03 181.176L174.716 179.066C174.116 178.914 173.685 178.391 173.65 177.773L172.087 150.236Z" fill="#512D79"/>
<path d="M151.619 143.345C155.334 144.629 163.251 147.317 165.197 147.804L166.532 174.893C166.576 175.774 165.813 176.48 164.939 176.369L156.628 175.313C155.012 175.108 153.765 173.79 153.651 172.164L151.619 143.345Z" fill="#512D79"/>
<path d="M127.299 135.239C132.028 136.927 142.012 140.508 144.12 141.318L146.552 172.325L131.15 169.286L127.299 135.239Z" fill="#512D79"/>
<path d="M106.02 127.943L118.99 132.807L124.259 167.664L111.086 164.624L106.02 127.943Z" fill="#512D79"/>
<path d="M80.2819 120.85L98.5213 126.524L102.777 162.598L86.767 157.937L80.2819 120.85Z" fill="#512D79"/>
<path d="M62.6504 114.972C65.7578 115.716 72.216 117.202 73.1888 117.202L80.2819 156.518L70.5541 155.302L62.6504 114.972Z" fill="#512D79"/>
<path d="M237.747 203.738L250.515 207.183V228.463L237.747 225.22V203.738Z" fill="#512D79"/>
<path d="M215.659 198.266L229.44 201.103V225.22L215.659 222.586V198.266Z" fill="#512D79"/>
<path d="M194.38 192.389L208.364 195.429L209.782 221.167L196.812 219.343L194.38 192.389Z" fill="#512D79"/>
<path d="M177.164 189.772L188.503 192.389L190.327 217.519L178.175 216.068C177.351 215.97 176.716 215.292 176.672 214.463L175.43 191.229C175.38 190.287 176.245 189.56 177.164 189.772Z" fill="#512D79"/>
<path d="M155.689 183.627L167.343 185.893C167.986 186.018 168.46 186.568 168.488 187.222L169.655 213.871L156.28 211.845L154.007 185.138C153.927 184.201 154.766 183.448 155.689 183.627Z" fill="#512D79"/>
<path d="M132.974 178.811L148.173 182.256L149.795 211.845L137.789 209.074C137.088 208.912 136.564 208.329 136.477 207.616L132.974 178.811Z" fill="#512D79"/>
<path d="M113.316 173.744L125.881 176.581L129.529 207.183L117.369 205.359L113.316 173.744Z" fill="#512D79"/>
<path d="M90.0096 167.664L106.02 172.325L111.086 203.738L96.0894 201.103L90.0096 167.664Z" fill="#512D79"/>
<path d="M74.4047 164.624L83.5244 167.664L88.9963 199.482H81.4978L74.4047 164.624Z" fill="#512D79"/>
<path d="M83.5244 208.805L92.0362 210.021L95.7515 231.941C95.9282 232.983 95.1248 233.935 94.0673 233.935H90.3726C89.5692 233.935 88.8744 233.375 88.7035 232.59L83.5244 208.805Z" fill="#512D79"/>
<path d="M98.6868 211.123L112.221 212.767L114.937 235.353H102.777L98.6868 211.123Z" fill="#512D79"/>
<path d="M118.925 214.538L131.15 215.898L134.483 239.077L122.214 238.191L118.925 214.538Z" fill="#512D79"/>
<path d="M139.543 217.519L151.307 219.343L152.445 241.733L141.187 240.468L139.543 217.519Z" fill="#512D79"/>
<path d="M160.072 221.401L169.126 222.426C169.942 222.519 170.577 223.179 170.637 223.998L172.051 243.125H159.781L158.177 223.235C158.091 222.164 159.004 221.279 160.072 221.401Z" fill="#512D79"/>
<path d="M181.307 223.879L190.327 226.428V246.793L179.134 245.022V225.523C179.134 224.391 180.217 223.571 181.307 223.879Z" fill="#512D79"/>
<path d="M197.475 228.463L210.63 229.717V249.828C210.63 250.942 201.86 249.365 197.475 248.437V228.463Z" fill="#512D79"/>
<path d="M218.22 231.108L230.616 233.385L231.501 251.726L218.22 249.828V231.108Z" fill="#512D79"/>
<path d="M237.747 234.65L249.298 237.306L250.515 253.75L238.711 252.611L237.747 234.65Z" fill="#512D79"/>
<path d="M276.991 178.818L288.044 170.203L286.582 190.359L276.991 196.536V178.818Z" fill="#512D79"/>
<path d="M296.498 166.789L310.64 158.987L306.902 182.256L293.411 187.93L296.498 166.789Z" fill="#512D79"/>
<path d="M318.931 155.302L331.772 149.071L326.245 172.325L315.355 178.818L318.931 155.302Z" fill="#512D79"/>
<path d="M340.883 145.134L348.083 141.178C349.427 140.441 350.987 141.708 350.54 143.174L344.615 162.598L334.699 168.09L340.046 146.225C340.16 145.76 340.463 145.364 340.883 145.134Z" fill="#512D79"/>
<path d="M330.635 180.769L340.225 175.404L334.699 194.416L327.547 197.349L330.635 180.769Z" fill="#512D79"/>
<path d="M312.592 187.93L322.67 183.532L318.931 201.103L310.64 205.314L312.592 187.93Z" fill="#512D79"/>
<path d="M290.486 199.299L303.165 194.416L301.214 210.353L289.023 216.529L290.486 199.299Z" fill="#512D79"/>
<path d="M275.206 207.183L282.846 203.738L280.425 219.962C280.317 220.683 279.764 221.256 279.047 221.389L275.008 222.139C273.841 222.356 272.815 221.346 273.012 220.175L275.206 207.183Z" fill="#512D79"/>
<path d="M272.366 234.233L276.269 232.424C277.495 231.855 278.864 232.869 278.679 234.207L277.114 245.544C277.037 246.104 276.688 246.589 276.182 246.84L272.888 248.477C271.695 249.069 270.313 248.128 270.426 246.801L271.383 235.637C271.435 235.026 271.81 234.491 272.366 234.233Z" fill="#512D79"/>
<path d="M287.46 226.338L295.362 222.447C296.53 221.872 297.886 222.762 297.823 224.062L297.362 233.619C297.332 234.253 296.952 234.817 296.377 235.085L288.246 238.872C287.064 239.422 285.726 238.499 285.821 237.198L286.511 227.746C286.555 227.142 286.917 226.606 287.46 226.338Z" fill="#512D79"/>
<path d="M306.902 217.505L315.355 212.628L313.568 225.22L305.603 229.717L306.902 217.505Z" fill="#512D79"/>
<path d="M324.458 209.377L331.772 205.314L328.522 217.505L322.67 219.618L324.458 209.377Z" fill="#512D79"/>
<path d="M173.818 65.8493L339.586 125.368L266.403 161.52L178.669 131.981L173.818 65.8493Z" fill="#C495CE"/>
<path d="M173.708 65.0085L87.8549 99.13L180.039 132.701L173.708 65.0085Z" fill="#CCA6D4"/>
<path d="M168.892 56.255L347.352 122.882L322.238 133.261L339.313 124.891L172.578 65.2949L86.8668 100.45L71.4655 94.0885L168.892 56.255Z" fill="#9D64A9"/>
<path d="M3.7294 42.5918L159.548 2.5C165.959 4.21054 164.716 10.162 163.293 12.9239C115.539 30.1187 22.1687 55.6883 9.07391 59.1629C0.30722 54.8864 1.85812 46.3336 3.7294 42.5918Z" fill="#552B71" stroke="#552B71" stroke-width="3.41652"/>
<g style="mix-blend-mode:multiply">
<path d="M130.445 141.306L130.477 141.614C130.757 144.314 132.907 163.922 136.573 168.471C134.826 167.915 133.114 167.475 133.114 167.475L130.477 141.614C130.456 141.413 130.445 141.306 130.445 141.306Z" fill="#D9D9D9"/>
</g>
<g style="mix-blend-mode:multiply">
<path d="M109.828 137.259L109.86 137.568C110.14 140.267 112.29 159.876 115.956 164.424C114.209 163.869 112.497 163.428 112.497 163.428L109.86 137.568C109.839 137.366 109.828 137.259 109.828 137.259Z" fill="#D9D9D9"/>
</g>
<g style="mix-blend-mode:multiply">
<path d="M84.793 130.358L84.8244 130.667C85.1051 133.366 87.2547 152.975 90.9207 157.524C89.1736 156.968 87.4616 156.528 87.4616 156.528L84.8244 130.667C84.8035 130.466 84.793 130.358 84.793 130.358Z" fill="#D9D9D9"/>
</g>
<g style="mix-blend-mode:multiply">
<path d="M68.7539 138.49L68.7886 138.677C69.0971 140.304 71.4491 152.124 75.1616 154.812C73.409 154.506 71.6927 154.269 71.6927 154.269L68.7886 138.677C68.7656 138.555 68.7539 138.49 68.7539 138.49Z" fill="#D9D9D9"/>
</g>
<g style="mix-blend-mode:multiply">
<path d="M92.8398 177.46L92.8961 177.728C93.397 180.072 97.2172 197.098 103.302 200.959C100.426 200.524 97.6098 200.188 97.6098 200.188L92.8961 177.728C92.8587 177.553 92.8398 177.46 92.8398 177.46Z" fill="#D9D9D9"/>
</g>
<g style="mix-blend-mode:multiply">
<path d="M116.918 195.991L116.949 196.155C117.137 197.06 118.338 201.53 124.184 205.239C121.309 204.804 118.492 204.468 118.492 204.468L116.949 196.155C116.926 196.048 116.918 195.991 116.918 195.991Z" fill="#D9D9D9"/>
</g>
<g style="mix-blend-mode:multiply">
<path d="M122.105 228.805L122.136 228.97C122.325 229.875 123.526 234.344 129.372 238.053C126.496 237.618 123.68 237.282 123.68 237.282L122.136 228.97C122.114 228.862 122.105 228.805 122.105 228.805Z" fill="#D9D9D9"/>
</g>
<g style="mix-blend-mode:multiply">
<path d="M104.308 234.203L100.734 218.327C100.734 218.327 106.364 230.655 113.247 234.203C110.343 234.026 104.308 234.203 104.308 234.203Z" fill="#D9D9D9"/>
</g>
<g style="mix-blend-mode:multiply">
<path d="M89.2985 232.554L86.8086 219.316C86.8086 219.316 90.3859 229.673 94.4461 232.797C92.7694 232.572 89.2985 232.554 89.2985 232.554Z" fill="#D9D9D9"/>
</g>
<g style="mix-blend-mode:multiply">
<path d="M82.1227 198.911L79.6328 185.674C79.6328 185.674 83.2101 196.031 87.2703 199.155C85.5937 198.929 82.1227 198.911 82.1227 198.911Z" fill="#D9D9D9"/>
</g>
<g style="mix-blend-mode:multiply">
<path d="M141.969 231.704L141.968 232.895C142.149 234.558 143.139 237.695 147.659 240.563C144.783 240.127 141.966 239.792 141.966 239.792L141.968 232.895C141.888 232.153 141.969 231.704 141.969 231.704Z" fill="#D9D9D9"/>
</g>
<g style="mix-blend-mode:multiply">
<path d="M197.005 205.335L197.198 207.259C197.745 209.916 199.779 214.828 207.208 218.77C202.706 218.505 198.312 218.392 198.312 218.392L197.198 207.259C196.954 206.072 197.005 205.335 197.005 205.335Z" fill="#D9D9D9"/>
</g>
<g style="mix-blend-mode:multiply">
<path d="M195.321 183.809L195.32 170.459C195.32 170.459 198.903 179.933 203.97 186.134C199.469 185.869 195.321 183.809 195.321 183.809Z" fill="#D9D9D9"/>
</g>
<g style="mix-blend-mode:multiply">
<path d="M175.113 178.132L174.281 167.055C174.281 167.055 178.761 174.814 183.7 179.919C179.213 179.782 175.113 178.132 175.113 178.132Z" fill="#D9D9D9"/>
</g>
<g style="mix-blend-mode:multiply">
<path d="M154.958 168.959L154.664 164.371C154.664 164.371 158.943 170.412 163.744 174.338C162.159 174.338 160.628 174.187 159.311 173.991C156.826 173.621 155.118 171.466 154.958 168.959Z" fill="#D9D9D9"/>
</g>
<g style="mix-blend-mode:multiply">
<path d="M137.265 206.436L136.23 193.942C136.23 193.942 140.929 203.572 146.018 209.962C142.856 209.76 139.867 208.651 138.365 208.007C137.73 207.735 137.322 207.125 137.265 206.436Z" fill="#D9D9D9"/>
</g>
<g style="mix-blend-mode:multiply">
<path d="M214.894 177.286L214.883 179.219C215.149 181.919 216.656 187.017 223.63 191.716C221.353 191.34 219.1 191.006 217.442 190.769C215.946 190.556 214.83 189.273 214.838 187.762L214.883 179.219C214.765 178.013 214.894 177.286 214.894 177.286Z" fill="#D9D9D9"/>
</g>
<g style="mix-blend-mode:multiply">
<path d="M239.155 180.883L239.145 182.816C239.411 185.516 240.917 190.615 247.892 195.314C243.443 194.578 239.085 194.004 239.085 194.004L239.145 182.816C239.026 181.61 239.155 180.883 239.155 180.883Z" fill="#D9D9D9"/>
</g>
<g style="mix-blend-mode:multiply">
<path d="M238.991 211.025L238.981 212.958C239.246 215.658 240.753 220.756 247.728 225.455C243.279 224.72 238.921 224.146 238.921 224.146L238.981 212.958C238.862 211.752 238.991 211.025 238.991 211.025Z" fill="#D9D9D9"/>
</g>
<g style="mix-blend-mode:multiply">
<path d="M239.78 251.487L239.051 244.787C239.051 244.787 241.154 250.231 248.586 252.797C244.138 252.061 239.78 251.487 239.78 251.487Z" fill="#D9D9D9"/>
</g>
<g style="mix-blend-mode:multiply">
<path d="M216.897 221.78L216.168 215.079C216.168 215.079 218.271 220.524 225.704 223.089C221.255 222.353 216.897 221.78 216.897 221.78Z" fill="#D9D9D9"/>
</g>
<g style="mix-blend-mode:multiply">
<path d="M219.802 248.879L219.188 238.578C219.188 238.578 221.215 247.665 228.565 250.458C224.14 249.586 219.802 248.879 219.802 248.879Z" fill="#D9D9D9"/>
</g>
<g style="mix-blend-mode:multiply">
<path d="M199.247 247.399L198.633 237.098C198.633 237.098 200.66 246.186 208.01 248.979C203.586 248.106 199.247 247.399 199.247 247.399Z" fill="#D9D9D9"/>
</g>
<g style="mix-blend-mode:multiply">
<path d="M180.525 243.939L180.523 238.578C180.523 238.578 181.93 242.781 189.287 245.518C184.863 244.646 180.525 243.939 180.525 243.939Z" fill="#D9D9D9"/>
</g>
<g style="mix-blend-mode:multiply">
<path d="M161.25 242.169L160.164 236.919C160.164 236.919 162.391 240.751 170.15 241.944C165.641 241.984 161.25 242.169 161.25 242.169Z" fill="#D9D9D9"/>
</g>
<g style="mix-blend-mode:screen">
<path d="M263.32 173.109L61.0938 104.843L265.537 167.408L360.873 124.966L263.32 173.109Z" fill="#512D79"/>
</g>
<defs>
<linearGradient id="paint0_linear_2136_6735" x1="156.723" y1="25.0388" x2="328.589" y2="278.763" gradientUnits="userSpaceOnUse">
<stop stop-color="#9D64A9"/>
<stop offset="1" stop-color="#A867B6"/>
</linearGradient>
</defs>
</svg>
