<svg width="40" height="24" viewBox="0 0 40 24" fill="none" xmlns="http://www.w3.org/2000/svg">
<path d="M1.05237 22.297C1.38378 22.6255 1.77745 22.8862 2.21082 23.064C2.64419 23.2418 3.10876 23.3333 3.57794 23.3333C4.04712 23.3333 4.51169 23.2418 4.94506 23.064C5.37843 22.8862 5.77209 22.6255 6.10351 22.297L20.0031 8.5484L33.9027 22.297C34.5726 22.9596 35.481 23.3318 36.4283 23.3318C37.3756 23.3318 38.2841 22.9596 38.9539 22.297C39.6237 21.6345 40 20.7359 40 19.7989C40 18.8619 39.6237 17.9633 38.9539 17.3008L22.5108 1.03625C22.1794 0.707757 21.7857 0.447145 21.3523 0.269328C20.919 0.0915118 20.4544 -1.42455e-05 19.9852 -1.4225e-05C19.516 -1.42045e-05 19.0515 0.0915118 18.6181 0.269328C18.1847 0.447145 17.7911 0.707757 17.4596 1.03625L1.01654 17.3008C-0.34476 18.6473 -0.344759 20.9151 1.05237 22.297Z" fill="white"/>
</svg>
