<svg width="24" height="24" viewBox="0 0 24 24" fill="none" xmlns="http://www.w3.org/2000/svg">
<g clip-path="url(#clip0_2276_5359)">
<path fill-rule="evenodd" clip-rule="evenodd" d="M6.36545 7.98676C6.36545 6.43161 6.98323 4.94015 8.08289 3.84049C9.18255 2.74083 10.674 2.12305 12.2292 2.12305C13.7843 2.12305 15.2758 2.74083 16.3754 3.84049C17.4751 4.94015 18.0929 6.43161 18.0929 7.98676H19.0702C19.5886 7.98676 20.0857 8.19269 20.4523 8.55924C20.8188 8.9258 21.0247 9.42295 21.0247 9.94133V19.7142C21.0247 20.2326 20.8188 20.7297 20.4523 21.0963C20.0857 21.4628 19.5886 21.6688 19.0702 21.6688H5.38817C4.86978 21.6688 4.37263 21.4628 4.00607 21.0963C3.63952 20.7297 3.43359 20.2326 3.43359 19.7142V9.94133C3.43359 9.42295 3.63952 8.9258 4.00607 8.55924C4.37263 8.19269 4.86978 7.98676 5.38817 7.98676H6.36545ZM12.2292 4.07762C13.2659 4.07762 14.2602 4.48947 14.9933 5.22258C15.7265 5.95569 16.1383 6.94999 16.1383 7.98676H8.32002C8.32002 6.94999 8.73188 5.95569 9.46498 5.22258C10.1981 4.48947 11.1924 4.07762 12.2292 4.07762ZM14.1837 13.8505C14.1837 14.1936 14.0934 14.5306 13.9219 14.8277C13.7503 15.1249 13.5036 15.3716 13.2065 15.5431V16.7823C13.2065 17.0415 13.1035 17.2901 12.9202 17.4734C12.7369 17.6567 12.4884 17.7596 12.2292 17.7596C11.97 17.7596 11.7214 17.6567 11.5381 17.4734C11.3548 17.2901 11.2519 17.0415 11.2519 16.7823V15.5431C10.8793 15.328 10.5881 14.9959 10.4234 14.5984C10.2588 14.2009 10.2299 13.7602 10.3413 13.3446C10.4526 12.929 10.698 12.5618 11.0394 12.2998C11.3807 12.0379 11.7989 11.8959 12.2292 11.8959C12.7476 11.8959 13.2447 12.1018 13.6113 12.4684C13.9778 12.8349 14.1837 13.3321 14.1837 13.8505Z" fill="#2C2933"/>
</g>
<defs>
<clipPath id="clip0_2276_5359">
<rect width="23.4549" height="23.4549" fill="white" transform="translate(0.5 0.168457)"/>
</clipPath>
</defs>
</svg>
