<svg width="102" height="24" viewBox="0 0 102 24" fill="none" xmlns="http://www.w3.org/2000/svg">
<g clip-path="url(#clip0_2276_5341)">
<path d="M98.8207 0.838623H3.48009C2.81715 0.838623 2.18136 1.10197 1.71259 1.57074C1.24382 2.03951 0.980469 2.6753 0.980469 3.33824L0.980469 21.1237C0.980469 21.7867 1.24382 22.4225 1.71259 22.8912C2.18136 23.36 2.81715 23.6233 3.48009 23.6233H98.8207C99.5317 23.6233 100.213 23.3409 100.716 22.8382C101.219 22.3355 101.501 21.6537 101.501 20.9428V3.51918C101.501 2.80825 101.219 2.12644 100.716 1.62374C100.213 1.12104 99.5317 0.838623 98.8207 0.838623ZM100.831 20.9428C100.831 21.476 100.619 21.9873 100.242 22.3644C99.8653 22.7414 99.3539 22.9532 98.8207 22.9532H3.48009C2.99542 22.9514 2.53111 22.7581 2.1884 22.4154C1.84569 22.0727 1.65237 21.6084 1.65061 21.1237V3.33824C1.65237 2.85358 1.84569 2.38927 2.1884 2.04655C2.53111 1.70384 2.99542 1.51053 3.48009 1.50876H98.8207C99.3539 1.50876 99.8653 1.72057 100.242 2.0976C100.619 2.47463 100.831 2.98598 100.831 3.51918V20.9428Z" fill="#2C2933"/>
<path d="M12.4207 8.37109H9.53906V15.5818H10.8257V12.794H12.4207C14.029 12.794 15.0342 12.0166 15.0342 10.5826C15.0342 9.14845 14.029 8.37109 12.4207 8.37109ZM12.3536 11.7218H10.8257V9.51033H12.3737C13.2985 9.51033 13.7877 9.90571 13.7877 10.6161C13.7877 11.3264 13.2784 11.6883 12.3737 11.6883L12.3536 11.7218Z" fill="#2C2933"/>
<path d="M17.8027 10.2206C17.4504 10.2166 17.1011 10.2862 16.7773 10.4251C16.4535 10.564 16.1624 10.7691 15.9226 11.0273C15.6828 11.2854 15.4996 11.5908 15.3848 11.9239C15.27 12.257 15.2262 12.6105 15.2561 12.9615C15.2247 13.3145 15.2671 13.6701 15.3807 14.0058C15.4942 14.3415 15.6764 14.6499 15.9156 14.9114C16.1548 15.1728 16.4458 15.3816 16.7701 15.5245C17.0945 15.6673 17.4449 15.7411 17.7993 15.7411C18.1537 15.7411 18.5042 15.6673 18.8285 15.5245C19.1528 15.3816 19.4438 15.1728 19.6831 14.9114C19.9223 14.6499 20.1044 14.3415 20.218 14.0058C20.3315 13.6701 20.3739 13.3145 20.3425 12.9615C20.3734 12.6108 20.3305 12.2575 20.2165 11.9244C20.1025 11.5913 19.92 11.2858 19.6807 11.0275C19.4414 10.7693 19.1507 10.5641 18.8272 10.4251C18.5037 10.2861 18.1547 10.2165 17.8027 10.2206ZM17.8027 14.6905C16.9851 14.6905 16.4624 14.0203 16.4624 12.9615C16.4624 11.9027 16.9717 11.2325 17.8027 11.2325C18.6336 11.2325 19.143 11.9027 19.143 12.9615C19.143 14.0203 18.6135 14.6838 17.8027 14.6838V14.6905Z" fill="#2C2933"/>
<path d="M25.6287 13.8057L24.6839 10.3076H23.692L22.7539 13.8057L21.8023 10.3076H20.5625L22.1507 15.5883H23.1961L24.1611 12.1304L25.1261 15.5883H26.1716L27.7598 10.3076H26.5669L25.6287 13.8057Z" fill="#2C2933"/>
<path d="M30.4663 10.2206C30.1186 10.227 29.7759 10.3041 29.4589 10.447C29.1418 10.59 28.8572 10.7959 28.6222 11.0522C28.3872 11.3085 28.2067 11.61 28.0917 11.9382C27.9767 12.2664 27.9296 12.6145 27.9533 12.9614C27.9253 13.3138 27.9711 13.668 28.0879 14.0016C28.2046 14.3352 28.3897 14.6408 28.6313 14.8988C28.8728 15.1567 29.1656 15.3615 29.4908 15.4998C29.816 15.6382 30.1665 15.7072 30.5199 15.7023C31.0058 15.7285 31.4876 15.6016 31.8976 15.3395C32.3075 15.0775 32.6249 14.6934 32.8051 14.2414L31.8066 13.8259C31.7282 14.0849 31.5642 14.3095 31.3413 14.4629C31.1185 14.6164 30.8501 14.6895 30.5802 14.6703C30.388 14.6749 30.1969 14.6404 30.0184 14.569C29.8399 14.4975 29.6777 14.3906 29.5418 14.2546C29.4058 14.1186 29.2988 13.9565 29.2274 13.778C29.1559 13.5995 29.1215 13.4083 29.126 13.2161H32.8252V12.814C32.8386 11.3665 32.021 10.2206 30.4663 10.2206ZM29.173 12.3181C29.2199 12.0104 29.3769 11.7301 29.6147 11.5293C29.8525 11.3284 30.1551 11.2206 30.4663 11.2258C30.6142 11.2133 30.763 11.2324 30.903 11.2819C31.0429 11.3314 31.1707 11.4101 31.2778 11.5128C31.3849 11.6155 31.469 11.7398 31.5243 11.8775C31.5797 12.0152 31.6051 12.1631 31.5989 12.3114L29.173 12.3181Z" fill="#2C2933"/>
<path d="M34.9484 11.0917V10.3076H33.7422V15.5816H34.9484V12.814C34.9377 12.6352 34.965 12.4561 35.0285 12.2886C35.0921 12.1211 35.1905 11.969 35.3171 11.8424C35.4438 11.7157 35.5959 11.6173 35.7634 11.5538C35.9308 11.4902 36.1099 11.4629 36.2887 11.4737C36.436 11.4633 36.5838 11.4633 36.731 11.4737V10.2674C36.6372 10.2674 36.53 10.2674 36.3892 10.2674C36.0953 10.2522 35.8032 10.3218 35.5478 10.468C35.2923 10.6141 35.0843 10.8306 34.9484 11.0917Z" fill="#2C2933"/>
<path d="M39.5015 10.2205C39.1538 10.2269 38.811 10.304 38.494 10.4469C38.177 10.5899 37.8923 10.7958 37.6573 11.0521C37.4223 11.3084 37.2418 11.6098 37.1269 11.938C37.0119 12.2662 36.9648 12.6144 36.9885 12.9613C36.9604 13.3136 37.0063 13.6679 37.123 14.0015C37.2398 14.3351 37.4248 14.6407 37.6664 14.8986C37.908 15.1566 38.2007 15.3613 38.526 15.4997C38.8512 15.6381 39.2017 15.707 39.5551 15.7022C40.0365 15.7227 40.5124 15.5931 40.9169 15.3314C41.3215 15.0697 41.6348 14.6888 41.8135 14.2413L40.7814 13.8459C40.7031 14.1049 40.539 14.3295 40.3162 14.4829C40.0933 14.6364 39.825 14.7095 39.5551 14.6903C39.3668 14.6886 39.1807 14.6494 39.0077 14.5752C38.8347 14.5009 38.6781 14.3929 38.5472 14.2576C38.4162 14.1223 38.3135 13.9623 38.2449 13.787C38.1764 13.6116 38.1433 13.4243 38.1478 13.2361H41.8604V12.834C41.8604 11.3664 41.0294 10.2205 39.5015 10.2205ZM38.2081 12.318C38.2564 12.0127 38.413 11.7349 38.6493 11.5356C38.8855 11.3362 39.1857 11.2286 39.4948 11.2324C39.6427 11.2199 39.7915 11.239 39.9314 11.2885C40.0713 11.338 40.1991 11.4167 40.3062 11.5194C40.4134 11.6221 40.4974 11.7464 40.5528 11.8841C40.6081 12.0218 40.6335 12.1697 40.6273 12.318H38.2081Z" fill="#2C2933"/>
<path d="M46.254 10.8906C46.068 10.6724 45.8353 10.4988 45.5731 10.3828C45.3109 10.2668 45.026 10.2113 44.7394 10.2204C43.2584 10.2204 42.4141 11.4602 42.4141 12.9613C42.4141 14.4624 43.2584 15.7022 44.7394 15.7022C45.0262 15.7128 45.3116 15.658 45.574 15.5418C45.8364 15.4257 46.069 15.2514 46.254 15.032V15.5815H47.4602V8.37085H46.254V10.8906ZM46.254 13.1355C46.281 13.3266 46.2664 13.5213 46.2113 13.7062C46.1561 13.8911 46.0617 14.062 45.9345 14.2071C45.8072 14.3521 45.6501 14.468 45.4739 14.5468C45.2978 14.6256 45.1066 14.6654 44.9137 14.6635C44.0358 14.6635 43.5734 13.9933 43.5734 12.9747C43.5734 11.9561 44.0425 11.286 44.9137 11.286C45.6575 11.286 46.254 11.8288 46.254 12.8206V13.1355Z" fill="#2C2933"/>
<path d="M54.1293 10.2206C53.8373 10.2078 53.5463 10.2615 53.2782 10.3775C53.01 10.4936 52.7717 10.6691 52.5813 10.8907V8.37097H51.375V15.5817H52.5813V15.0255C52.7682 15.2442 53.0021 15.418 53.2654 15.534C53.5288 15.65 53.8149 15.7053 54.1025 15.6956C55.5768 15.6956 56.4212 14.4491 56.4212 12.9547C56.4212 11.4603 55.6036 10.2206 54.1293 10.2206ZM53.9215 14.6435C53.7286 14.6454 53.5374 14.6056 53.3613 14.5268C53.1851 14.448 53.028 14.3322 52.9008 14.1871C52.7735 14.042 52.6791 13.8712 52.6239 13.6862C52.5688 13.5013 52.5542 13.3066 52.5813 13.1156V12.8006C52.5813 11.8088 53.1442 11.266 53.9215 11.266C54.7927 11.266 55.2618 11.9361 55.2618 12.9547C55.2618 13.9733 54.7592 14.6435 53.9215 14.6435Z" fill="#2C2933"/>
<path d="M59.2346 14.0135L57.9412 10.3076H56.668L58.6114 15.394L58.4103 15.8899C58.3762 16.0598 58.2775 16.2098 58.135 16.3085C57.9926 16.4073 57.8175 16.4469 57.6464 16.4193C57.5125 16.4291 57.3781 16.4291 57.2443 16.4193V17.4312C57.4062 17.4553 57.5698 17.4665 57.7335 17.4647C58.1519 17.4951 58.5677 17.3776 58.9082 17.1326C59.2487 16.8876 59.4923 16.5308 59.5965 16.1244L61.7677 10.3478H60.5012L59.2346 14.0135Z" fill="#2C2933"/>
<path d="M84.7478 9.16837C84.4833 9.16684 84.221 9.21755 83.976 9.3176C83.7311 9.41765 83.5083 9.56506 83.3205 9.75139L83.2266 9.28899H81.625V17.9472L83.4478 17.5518V15.4543C83.8103 15.7579 84.2683 15.924 84.7411 15.9234C86.0412 15.9234 87.2341 14.8578 87.2341 12.499C87.2341 10.3411 86.0278 9.16837 84.7478 9.16837ZM84.3123 14.2815C84.1524 14.2907 83.9925 14.2643 83.8441 14.204C83.6957 14.1437 83.5626 14.0512 83.4545 13.9331V11.1788C83.5631 11.0564 83.6977 10.9597 83.8484 10.896C83.9991 10.8322 84.1622 10.8029 84.3257 10.8102C84.9958 10.8102 85.4515 11.5675 85.4515 12.5392C85.4515 13.5109 84.9891 14.2815 84.3123 14.2815Z" fill="#2C2933"/>
<path d="M90.5986 9.16846C88.8429 9.16846 87.7773 10.683 87.7773 12.5929C87.7773 14.8512 89.0372 15.9972 90.8332 15.9972C91.5341 16.0086 92.2263 15.8402 92.8436 15.508V14.0002C92.283 14.283 91.6621 14.4256 91.0342 14.4156C90.3105 14.4156 89.6939 14.1543 89.6001 13.2764H93.2055C93.2055 13.1759 93.2055 12.7805 93.2055 12.6063C93.2658 10.683 92.3544 9.16846 90.5986 9.16846ZM89.6135 11.8959C89.6135 11.0515 90.1295 10.6964 90.5852 10.6964C91.0409 10.6964 91.5234 11.0515 91.5234 11.8959H89.6135Z" fill="#2C2933"/>
<path d="M76.7077 9.7918L76.5938 9.24229H75.0391V15.7493H76.835V11.3398C76.9972 11.1429 77.2157 11.0002 77.4612 10.9307C77.7067 10.8613 77.9675 10.8684 78.2088 10.9511V9.24229C77.9347 9.13488 77.6307 9.13147 77.3542 9.23269C77.0777 9.33391 76.8477 9.53278 76.7077 9.7918Z" fill="#2C2933"/>
<path d="M67.6319 11.199C67.6319 10.9041 67.8732 10.7902 68.2552 10.7902C68.8882 10.8039 69.5088 10.9693 70.0645 11.2727V9.51026C69.4899 9.27792 68.875 9.16176 68.2552 9.16849C66.7742 9.16849 65.7891 9.95925 65.7891 11.2861C65.7891 13.3636 68.5634 13.0285 68.5634 13.9198C68.5634 14.2682 68.2686 14.3822 67.8933 14.3822C67.1853 14.3408 66.4968 14.1342 65.8829 13.779V15.5817C66.5156 15.8639 67.2005 16.01 67.8933 16.0106C69.4078 16.0106 70.4532 15.2399 70.4532 13.893C70.4197 11.6413 67.6319 12.0434 67.6319 11.199Z" fill="#2C2933"/>
<path d="M72.8708 7.70093L71.095 8.08961V14.0739C71.0858 14.3261 71.1282 14.5776 71.2195 14.8128C71.3108 15.0481 71.4491 15.2623 71.626 15.4423C71.8028 15.6223 72.0146 15.7644 72.2482 15.8598C72.4818 15.9552 72.7324 16.002 72.9848 15.9972C73.425 16.0169 73.8637 15.932 74.2647 15.7493V14.2415C74.0302 14.342 72.8842 14.6838 72.8842 13.5713V10.8908H74.2647V9.32266H72.8842L72.8708 7.70093Z" fill="#2C2933"/>
<path d="M78.8828 8.67933L80.7123 8.29735V6.84985L78.8828 7.23183V8.67933Z" fill="#2C2933"/>
<path d="M80.7123 9.28906H78.8828V15.7492H80.7123V9.28906Z" fill="#2C2933"/>
</g>
<defs>
<clipPath id="clip0_2276_5341">
<rect width="100.521" height="22.7847" fill="white" transform="translate(0.980469 0.838623)"/>
</clipPath>
</defs>
</svg>
