<svg width="39" height="39" viewBox="0 0 39 39" fill="none" xmlns="http://www.w3.org/2000/svg">
<path d="M38.0531 19.4328C38.0531 8.94267 29.5968 0.486328 19.1066 0.486328C8.6165 0.486328 0.160156 8.94267 0.160156 19.4328C0.160156 28.8525 7.1179 36.6666 16.1095 38.1652V24.892H11.2926V19.4328H16.1095V15.2582C16.1095 10.5483 18.8926 7.87224 23.2813 7.87224C25.3151 7.87224 27.563 8.19337 27.563 8.19337V12.9032H25.208C22.8531 12.9032 22.1038 14.4018 22.1038 15.9004V19.4328H27.3489L26.4926 24.892H22.1038V38.1652C31.0954 36.6666 38.0531 28.8525 38.0531 19.4328Z" fill="#552B71"/>
<path d="M26.492 24.8922L27.3483 19.433H22.1033V15.9006C22.1033 14.402 22.8526 12.9034 25.2075 12.9034H27.5624V8.30062C27.5624 8.30062 25.4216 7.97949 23.2807 7.97949C18.999 7.97949 16.1089 10.5485 16.1089 15.3654V19.5401H11.292V24.9992H16.1089V38.2724C17.0723 38.3795 18.0357 38.4865 19.1061 38.4865C20.0695 38.4865 21.1399 38.3795 22.1033 38.2724V24.8922H26.492Z" fill="white"/>
</svg>
