<svg width="39" height="39" viewBox="0 0 39 39" fill="none" xmlns="http://www.w3.org/2000/svg">
<path d="M19.1066 38.3793C29.5705 38.3793 38.0531 29.8967 38.0531 19.4328C38.0531 8.96896 29.5705 0.486328 19.1066 0.486328C8.64278 0.486328 0.160156 8.96896 0.160156 19.4328C0.160156 29.8967 8.64278 38.3793 19.1066 38.3793Z" fill="#552B71"/>
<path fill-rule="evenodd" clip-rule="evenodd" d="M17.512 15.4448H20.6874V17.0266C21.1448 16.1169 22.3179 15.2995 24.0801 15.2995C27.4582 15.2995 28.2602 17.1104 28.2602 20.4329V26.5863H24.8402V21.1896C24.8402 19.2975 24.3827 18.2304 23.2182 18.2304C21.6031 18.2304 20.932 19.3804 20.932 21.1887V26.5863H17.512V15.4448ZM11.6475 26.441H15.0675V15.2995H11.6475V26.441ZM15.5574 11.6666C15.5575 11.9532 15.5007 12.2371 15.3902 12.5016C15.2796 12.7661 15.1177 13.0059 14.9136 13.2073C14.5001 13.6182 13.9405 13.8482 13.3575 13.8468C12.7756 13.8464 12.2172 13.617 11.8031 13.2081C11.5998 13.0061 11.4384 12.766 11.328 12.5014C11.2177 12.2369 11.1607 11.9532 11.1602 11.6666C11.1602 11.0877 11.391 10.5337 11.804 10.125C12.2177 9.7156 12.7763 9.48607 13.3584 9.48633C13.9415 9.48633 14.5006 9.71632 14.9136 10.125C15.3257 10.5337 15.5574 11.0877 15.5574 11.6666Z" fill="white"/>
</svg>
