<svg width="110" height="110" viewBox="0 0 110 110" fill="none" xmlns="http://www.w3.org/2000/svg">
<path d="M80.9742 50.7393H58.7119V58.015H80.9742C86.777 58.1028 92.3124 60.4696 96.3849 64.6042C100.457 68.7388 102.74 74.3093 102.74 80.1128C102.74 85.9163 100.457 91.4869 96.3849 95.6215C92.3124 99.7561 86.777 102.123 80.9742 102.211H63.5438C65.5756 105.317 68.4358 107.794 71.8011 109.36C71.8011 109.36 72.4285 109.446 73.319 109.486H81.0096C88.7332 109.385 96.1061 106.246 101.532 100.748C106.958 95.2505 110 87.8371 110 80.1128C110 72.3886 106.958 64.9751 101.532 59.4775C96.1061 53.9799 88.7332 50.8406 81.0096 50.7393H80.9742Z" fill="#009E99"/>
<path d="M67.8085 83.7484H80.9635C81.9283 83.7484 82.8536 83.3651 83.5358 82.6829C84.218 82.0006 84.6013 81.0753 84.6013 80.1105C84.6013 79.1457 84.218 78.2204 83.5358 77.5382C82.8536 76.8559 81.9283 76.4727 80.9635 76.4727H58.7012V83.7484H67.7832H67.8085Z" fill="#009E99"/>
<path d="M70.1618 96.6144H80.9742C85.3514 96.6144 89.5494 94.8755 92.6446 91.7803C95.7398 88.6851 97.4786 84.4872 97.4786 80.1099C97.4786 75.7327 95.7398 71.5347 92.6446 68.4395C89.5494 65.3443 85.3514 63.6055 80.9742 63.6055H58.7119V70.8812H80.9742C83.4218 70.8812 85.7692 71.8535 87.4999 73.5842C89.2306 75.3149 90.2029 77.6623 90.2029 80.1099C90.2029 82.5575 89.2306 84.9049 87.4999 86.6356C85.7692 88.3663 83.4218 89.3386 80.9742 89.3386H58.8789C59.1543 91.8319 59.7565 94.2781 60.67 96.6144H70.1871H70.1618Z" fill="#009E99"/>
<path style="mix-blend-mode:multiply" d="M65.2795 58.015H67.8144L67.8195 50.7393H65.2795H58.7324V58.015H65.2795Z" fill="url(#paint0_linear_987_7402)"/>
<path style="mix-blend-mode:multiply" d="M67.8086 83.7484L67.8136 76.4727H65.2787H58.7266V83.7484H65.2737H67.8086Z" fill="url(#paint1_linear_987_7402)"/>
<path style="mix-blend-mode:multiply" d="M70.1618 96.6144C68.9759 94.3402 68.1822 91.8821 67.8142 89.3438H58.8789C59.155 91.8353 59.7572 94.2797 60.67 96.6144H70.1871H70.1618Z" fill="url(#paint2_linear_987_7402)"/>
<path style="mix-blend-mode:multiply" d="M67.8144 70.8812V63.6055H65.2795H58.7324V70.8812H65.2795H67.8144Z" fill="url(#paint3_linear_987_7402)"/>
<path style="mix-blend-mode:multiply" d="M73.1513 102.211H63.5381C65.5712 105.318 68.4332 107.795 71.8004 109.36C72.3037 109.43 72.8104 109.472 73.3183 109.487H81.0089C82.9751 109.486 84.9363 109.287 86.8629 108.895L79.491 106.076C78.727 105.753 73.7636 102.651 73.1513 102.211Z" fill="url(#paint4_linear_987_7402)"/>
<path d="M49.6194 100.52C47.2298 96.3314 45.94 91.6055 45.8702 86.7835V29.4986C45.8702 25.1213 44.1314 20.9234 41.0362 17.8282C37.941 14.733 33.743 12.9941 29.3658 12.9941C24.9885 12.9941 20.7905 14.733 17.6954 17.8282C14.6002 20.9234 12.8613 25.1213 12.8613 29.4986V86.7835C12.8764 92.3892 14.959 97.7923 18.7101 101.958C22.4613 106.124 27.6174 108.759 33.1908 109.359C28.5411 107.285 25.6014 103.516 23.8812 100.52C21.4954 96.3301 20.2074 91.6048 20.137 86.7835V29.4986C20.137 28.2867 20.3758 27.0866 20.8395 25.9669C21.3033 24.8472 21.9831 23.8299 22.8401 22.9729C23.697 22.1159 24.7144 21.4361 25.8341 20.9724C26.9538 20.5086 28.1538 20.2699 29.3658 20.2699C30.5777 20.2699 31.7778 20.5086 32.8974 20.9724C34.0171 21.4361 35.0345 22.1159 35.8915 22.9729C36.7484 23.8299 37.4282 24.8472 37.892 25.9669C38.3558 27.0866 38.5945 28.2867 38.5945 29.4986V86.7835C38.6097 92.39 40.693 97.7937 44.4452 101.959C48.1974 106.125 53.3547 108.76 58.9291 109.359C54.2742 107.285 51.3295 103.516 49.6194 100.52Z" fill="#552B71"/>
<path d="M29.3654 25.8613C28.4006 25.8613 27.4753 26.2446 26.793 26.9268C26.1108 27.6091 25.7275 28.5344 25.7275 29.4992V86.7841C25.7426 92.3898 27.8252 97.7929 31.5763 101.959C35.3275 106.124 40.4836 108.76 46.057 109.36C41.4073 107.286 38.4676 103.516 36.7474 100.521C34.3616 96.3307 33.0737 91.6054 33.0033 86.7841V29.4992C33.0019 28.5348 32.6182 27.6103 31.9363 26.9283C31.2543 26.2464 30.3298 25.8627 29.3654 25.8613Z" fill="#552B71"/>
<path d="M71.8009 109.36C68.4411 107.791 65.5864 105.315 63.5588 102.211C63.1642 101.634 62.7999 101.062 62.4912 100.521C61.7806 99.2681 61.1682 97.9621 60.6597 96.6147C59.7555 94.2788 59.1618 91.8344 58.8939 89.344C58.7987 88.4939 58.748 87.6393 58.7421 86.7839V29.499C58.7421 21.7093 55.6476 14.2386 50.1395 8.73051C44.6314 3.22237 37.1607 0.12793 29.371 0.12793C21.5814 0.12793 14.1107 3.22237 8.60257 8.73051C3.09443 14.2386 0 21.7093 0 29.499V86.7839C0.01509 92.3895 2.09765 97.7927 5.84881 101.958C9.59998 106.124 14.756 108.759 20.3295 109.36C15.6747 107.285 12.7401 103.516 11.0198 100.521C8.63023 96.3318 7.3404 91.6059 7.27066 86.7839V29.499C7.22632 26.5689 7.76515 23.6593 8.85577 20.9394C9.94639 18.2195 11.567 15.7437 13.6234 13.6559C15.6798 11.5682 18.1308 9.91029 20.8339 8.77864C23.537 7.64699 26.4381 7.0642 29.3685 7.0642C32.2989 7.0642 35.2001 7.64699 37.9031 8.77864C40.6062 9.91029 43.0572 11.5682 45.1136 13.6559C47.17 15.7437 48.7906 18.2195 49.8813 20.9394C50.9719 23.6593 51.5107 26.5689 51.4663 29.499V87.1481C51.5552 92.0721 53.2407 96.834 56.2692 100.717C59.2977 104.601 63.5053 107.396 68.2592 108.682L68.411 108.722C69.5234 109.019 70.6566 109.232 71.8009 109.36Z" fill="#552B71"/>
<defs>
<linearGradient id="paint0_linear_987_7402" x1="56.6529" y1="54.3771" x2="100.322" y2="54.3771" gradientUnits="userSpaceOnUse">
<stop stop-color="#002442"/>
<stop offset="0.08" stop-color="#576F83" stop-opacity="0.66"/>
<stop offset="0.18" stop-color="#B4BEC7" stop-opacity="0.3"/>
<stop offset="0.27" stop-color="#ECEEF1" stop-opacity="0.08"/>
<stop offset="0.35" stop-color="white" stop-opacity="0"/>
</linearGradient>
<linearGradient id="paint1_linear_987_7402" x1="56.7128" y1="80.1105" x2="100.145" y2="80.1105" gradientUnits="userSpaceOnUse">
<stop stop-color="#002442"/>
<stop offset="0.08" stop-color="#576F83" stop-opacity="0.66"/>
<stop offset="0.18" stop-color="#B4BEC7" stop-opacity="0.3"/>
<stop offset="0.27" stop-color="#ECEEF1" stop-opacity="0.08"/>
<stop offset="0.35" stop-color="white" stop-opacity="0"/>
</linearGradient>
<linearGradient id="paint2_linear_987_7402" x1="55.9696" y1="95.2686" x2="94.9236" y2="84.8306" gradientUnits="userSpaceOnUse">
<stop offset="0.08" stop-color="#002442"/>
<stop offset="0.14" stop-color="#576F83" stop-opacity="0.66"/>
<stop offset="0.22" stop-color="#B4BEC7" stop-opacity="0.3"/>
<stop offset="0.29" stop-color="#ECEEF1" stop-opacity="0.08"/>
<stop offset="0.35" stop-color="white" stop-opacity="0"/>
</linearGradient>
<linearGradient id="paint3_linear_987_7402" x1="56.1419" y1="67.2433" x2="101.805" y2="67.2433" gradientUnits="userSpaceOnUse">
<stop stop-color="#002442"/>
<stop offset="0.08" stop-color="#576F83" stop-opacity="0.66"/>
<stop offset="0.18" stop-color="#B4BEC7" stop-opacity="0.3"/>
<stop offset="0.27" stop-color="#ECEEF1" stop-opacity="0.08"/>
<stop offset="0.35" stop-color="white" stop-opacity="0"/>
</linearGradient>
<linearGradient id="paint4_linear_987_7402" x1="65.9819" y1="113.276" x2="81.9804" y2="99.8481" gradientUnits="userSpaceOnUse">
<stop offset="0.19" stop-color="#002442"/>
<stop offset="0.42" stop-color="#768A9A" stop-opacity="0.54"/>
<stop offset="0.71" stop-color="white" stop-opacity="0"/>
</linearGradient>
</defs>
</svg>
