<svg width="38" height="39" viewBox="0 0 38 39" fill="none" xmlns="http://www.w3.org/2000/svg">
<path d="M18.9992 38.3793C29.4631 38.3793 37.9457 29.8967 37.9457 19.4328C37.9457 8.96896 29.4631 0.486328 18.9992 0.486328C8.53536 0.486328 0.0527344 8.96896 0.0527344 19.4328C0.0527344 29.8967 8.53536 38.3793 18.9992 38.3793Z" fill="#552B71"/>
<path d="M29.489 12.9029C28.8468 13.2241 28.0975 13.3311 27.3482 13.5452C27.6693 13.4382 28.2045 12.9029 28.4186 12.5818C28.7397 12.1536 28.9538 11.8325 29.0608 11.2973V11.1903H28.9538C28.2045 11.6184 27.3482 11.9396 26.4918 12.1536C26.3848 12.1536 26.3848 12.1536 26.2777 12.1536C26.1707 12.0466 26.1707 12.0466 26.0637 11.9396C25.7425 11.6184 25.3144 11.4043 24.8862 11.1903C24.351 10.9762 23.7087 10.8691 23.0665 10.8691C22.4242 10.8691 21.889 11.0832 21.3538 11.4044C20.8186 11.7255 20.2834 12.0466 19.9623 12.5818C19.5341 13.117 19.32 13.6522 19.1059 14.2945C18.9989 14.9367 18.9989 15.472 19.1059 16.1142C19.1059 16.2213 19.1059 16.2213 18.9989 16.2213C15.5735 15.686 12.7904 14.5086 10.5425 11.9396C10.4355 11.8325 10.4355 11.8325 10.3285 11.9396C9.36507 13.4382 9.79324 15.9001 11.0777 17.0776C11.2918 17.1846 11.3989 17.3987 11.613 17.5058C11.5059 17.5058 10.7566 17.3987 10.0073 17.0776C9.90028 16.9705 9.90028 17.0776 9.90028 17.1846C9.90028 17.3987 9.90028 17.5058 9.90028 17.7198C10.1144 19.2184 11.1848 20.61 12.5763 21.1452C12.7904 21.2522 12.8975 21.2522 13.1116 21.3593C12.7904 21.4663 12.4693 21.4663 11.5059 21.3593C11.3989 21.3593 11.2918 21.3593 11.3989 21.4663C12.1482 23.3931 13.6468 23.9283 14.8242 24.2494C14.9313 24.2494 15.1454 24.2494 15.2524 24.3565C14.8242 24.8917 13.5397 25.3198 12.8975 25.5339C11.827 25.9621 10.5425 26.0691 9.36507 25.9621C9.15099 25.9621 9.15099 25.9621 9.04395 25.9621C9.04395 25.9621 9.04395 26.0691 9.15099 26.0691C9.36507 26.1762 9.6862 26.3903 9.90028 26.4973C10.6496 26.9255 11.3989 27.2466 12.2552 27.4607C16.4299 28.6381 21.2468 27.7818 24.351 24.6776C26.813 22.2156 27.6693 18.7903 27.6693 15.3649C27.6693 15.2579 27.7763 15.1508 27.8834 15.0438C28.5256 14.5086 29.0608 13.9734 29.489 13.3311C29.489 13.117 29.489 13.01 29.489 12.9029C29.489 12.9029 29.489 12.7959 29.489 12.9029Z" fill="white"/>
</svg>
