<svg width="38" height="38" viewBox="0 0 38 38" fill="none" xmlns="http://www.w3.org/2000/svg">
<path d="M18.9465 37.893C29.4103 37.893 37.893 29.4103 37.893 18.9465C37.893 8.48263 29.4103 0 18.9465 0C8.48263 0 0 8.48263 0 18.9465C0 29.4103 8.48263 37.893 18.9465 37.893Z" fill="#552B71"/>
<g clip-path="url(#clip0_988_10074)">
<path fill-rule="evenodd" clip-rule="evenodd" d="M30.0435 14.7941C30.0435 14.7941 29.8287 13.2087 29.1677 12.5126C28.3301 11.597 27.3922 11.5911 26.9635 11.538C23.8871 11.3037 19.2668 11.3037 19.2668 11.3037H19.2586C19.2586 11.3037 14.6403 11.3037 11.5623 11.538C11.1319 11.5928 10.1953 11.5966 9.35809 12.5126C8.69672 13.2087 8.48641 14.7941 8.48641 14.7941C8.48641 14.7941 8.26758 16.6545 8.26758 18.5187V20.262C8.26758 22.1224 8.48641 23.9867 8.48641 23.9867C8.48641 23.9867 8.70118 25.572 9.35809 26.2695C10.1953 27.185 11.2956 27.1553 11.7869 27.253C13.5481 27.4287 19.2684 27.4817 19.2684 27.4817C19.2684 27.4817 23.8928 27.4732 26.9691 27.2432C27.3995 27.1901 28.3357 27.1846 29.1734 26.2686C29.8347 25.5725 30.0491 23.9854 30.0491 23.9854C30.0491 23.9854 30.268 22.125 30.268 20.2607V18.5175C30.2635 16.657 30.0447 14.7928 30.0447 14.7928L30.0435 14.7941ZM16.9878 22.3771V15.913L22.931 19.1559L16.9878 22.3771Z" fill="white"/>
</g>
<defs>
<clipPath id="clip0_988_10074">
<rect width="22" height="23" fill="white" transform="translate(8.26758 7.89258)"/>
</clipPath>
</defs>
</svg>
