<svg width="53" height="34" viewBox="0 0 53 34" fill="none" xmlns="http://www.w3.org/2000/svg">
<path fill-rule="evenodd" clip-rule="evenodd" d="M53 17C53 16.4991 52.8006 16.0187 52.4456 15.6645C52.0907 15.3104 51.6092 15.1114 51.1073 15.1114H6.46519L18.3781 3.22816C18.554 3.05256 18.6936 2.8441 18.7889 2.61467C18.8841 2.38524 18.9331 2.13934 18.9331 1.89101C18.9331 1.64268 18.8841 1.39678 18.7889 1.16735C18.6936 0.937924 18.554 0.72946 18.3781 0.553863C18.2021 0.378267 17.9932 0.238977 17.7632 0.143945C17.5333 0.0489126 17.2869 0 17.038 0C16.7891 0 16.5427 0.0489126 16.3128 0.143945C16.0828 0.238977 15.8739 0.378267 15.698 0.553863L0.556062 15.6629C0.379799 15.8383 0.239952 16.0467 0.144534 16.2762C0.0491157 16.5056 0 16.7516 0 17C0 17.2484 0.0491157 17.4944 0.144534 17.7238C0.239952 17.9533 0.379799 18.1617 0.556062 18.3371L15.698 33.4461C15.8739 33.6217 16.0828 33.761 16.3128 33.8561C16.5427 33.9511 16.7891 34 17.038 34C17.2869 34 17.5333 33.9511 17.7632 33.8561C17.9932 33.761 18.2021 33.6217 18.3781 33.4461C18.554 33.2705 18.6936 33.0621 18.7889 32.8326C18.8841 32.6032 18.9331 32.3573 18.9331 32.109C18.9331 31.8607 18.8841 31.6148 18.7889 31.3853C18.6936 31.1559 18.554 30.9474 18.3781 30.7718L6.46519 18.8886H51.1073C51.6092 18.8886 52.0907 18.6896 52.4456 18.3355C52.8006 17.9813 53 17.5009 53 17Z" fill="#9D64A9"/>
</svg>
