<svg width="53" height="34" viewBox="0 0 53 34" fill="none" xmlns="http://www.w3.org/2000/svg">
<path fill-rule="evenodd" clip-rule="evenodd" d="M0 17C0 16.4991 0.199413 16.0187 0.554367 15.6645C0.909325 15.3104 1.39075 15.1114 1.89274 15.1114H46.5348L34.6219 3.22816C34.446 3.05256 34.3064 2.8441 34.2111 2.61467C34.1159 2.38524 34.0669 2.13934 34.0669 1.89101C34.0669 1.64268 34.1159 1.39678 34.2111 1.16735C34.3064 0.937924 34.446 0.72946 34.6219 0.553863C34.7979 0.378267 35.0068 0.238977 35.2368 0.143945C35.4667 0.0489126 35.7131 0 35.962 0C36.2109 0 36.4573 0.0489126 36.6872 0.143945C36.9172 0.238977 37.1261 0.378267 37.302 0.553863L52.4439 15.6629C52.6202 15.8383 52.76 16.0467 52.8555 16.2762C52.9509 16.5056 53 16.7516 53 17C53 17.2484 52.9509 17.4944 52.8555 17.7238C52.76 17.9533 52.6202 18.1617 52.4439 18.3371L37.302 33.4461C37.1261 33.6217 36.9172 33.761 36.6872 33.8561C36.4573 33.9511 36.2109 34 35.962 34C35.7131 34 35.4667 33.9511 35.2368 33.8561C35.0068 33.761 34.7979 33.6217 34.6219 33.4461C34.446 33.2705 34.3064 33.0621 34.2111 32.8326C34.1159 32.6032 34.0669 32.3573 34.0669 32.109C34.0669 31.8607 34.1159 31.6148 34.2111 31.3853C34.3064 31.1559 34.446 30.9474 34.6219 30.7718L46.5348 18.8886H1.89274C1.39075 18.8886 0.909325 18.6896 0.554367 18.3355C0.199413 17.9813 0 17.5009 0 17Z" fill="#9D64A9"/>
</svg>
