<svg width="14" height="14" viewBox="0 0 14 14" fill="none" xmlns="http://www.w3.org/2000/svg">
<path d="M7.875 10C7.875 10.0995 7.83549 10.1948 7.76517 10.2652C7.69484 10.3355 7.59946 10.375 7.5 10.375C7.26794 10.375 7.04538 10.2828 6.88128 10.1187C6.71719 9.95462 6.625 9.73206 6.625 9.5V7C6.625 6.96685 6.61183 6.93505 6.58839 6.91161C6.56495 6.88817 6.53315 6.875 6.5 6.875C6.40055 6.875 6.30516 6.83549 6.23484 6.76516C6.16451 6.69484 6.125 6.59946 6.125 6.5C6.125 6.40054 6.16451 6.30516 6.23484 6.23484C6.30516 6.16451 6.40055 6.125 6.5 6.125C6.73207 6.125 6.95463 6.21719 7.11872 6.38128C7.28282 6.54538 7.375 6.76794 7.375 7V9.5C7.375 9.53315 7.38817 9.56495 7.41161 9.58839C7.43506 9.61183 7.46685 9.625 7.5 9.625C7.59946 9.625 7.69484 9.66451 7.76517 9.73483C7.83549 9.80516 7.875 9.90054 7.875 10ZM6.75 4.875C6.87362 4.875 6.99445 4.83834 7.09723 4.76967C7.20002 4.70099 7.28012 4.60338 7.32743 4.48918C7.37473 4.37497 7.38711 4.24931 7.36299 4.12807C7.33888 4.00683 7.27935 3.89547 7.19195 3.80806C7.10454 3.72065 6.99317 3.66112 6.87193 3.63701C6.7507 3.61289 6.62503 3.62527 6.51083 3.67258C6.39662 3.71988 6.29901 3.79999 6.23033 3.90277C6.16166 4.00555 6.125 4.12639 6.125 4.25C6.125 4.41576 6.19085 4.57473 6.30806 4.69194C6.42527 4.80915 6.58424 4.875 6.75 4.875ZM13.375 7C13.375 8.26086 13.0011 9.4934 12.3006 10.5418C11.6001 11.5901 10.6045 12.4072 9.43961 12.8897C8.27473 13.3722 6.99293 13.4985 5.7563 13.2525C4.51967 13.0065 3.38376 12.3994 2.4922 11.5078C1.60064 10.6162 0.993478 9.48033 0.747497 8.2437C0.501516 7.00707 0.627762 5.72527 1.11027 4.56039C1.59278 3.39551 2.40988 2.39988 3.45824 1.69938C4.50661 0.998887 5.73915 0.625 7 0.625C8.69015 0.626985 10.3105 1.29927 11.5056 2.49439C12.7007 3.6895 13.373 5.30985 13.375 7ZM12.625 7C12.625 5.88748 12.2951 4.79994 11.677 3.87492C11.0589 2.94989 10.1804 2.22892 9.1526 1.80318C8.12476 1.37743 6.99376 1.26604 5.90262 1.48308C4.81148 1.70012 3.8092 2.23585 3.02253 3.02252C2.23586 3.80919 1.70013 4.81147 1.48309 5.90262C1.26604 6.99376 1.37744 8.12476 1.80318 9.15259C2.22892 10.1804 2.94989 11.0589 3.87492 11.677C4.79995 12.2951 5.88748 12.625 7 12.625C8.49134 12.6233 9.92112 12.0302 10.9757 10.9756C12.0302 9.92111 12.6233 8.49133 12.625 7Z" fill="#9D64A9"/>
</svg>
