<svg width="398" height="358" viewBox="0 0 398 358" fill="none" xmlns="http://www.w3.org/2000/svg">
<path fill-rule="evenodd" clip-rule="evenodd" d="M86.9729 32.2352C65.9832 30.6928 43.189 58.3705 43.7258 76.8581C44.2626 95.3456 103.221 170.35 116.328 213.937C129.434 257.524 218.818 340.633 263.978 341.469C309.14 342.306 308.88 268.576 314.106 232.357C319.333 196.137 405.251 173.644 375.872 126.1C346.493 78.5543 245.433 21.9654 198.434 36.954C151.433 51.9433 86.9729 32.2352 86.9729 32.2352Z" fill="#F1F1F1"/>
<g clip-path="url(#clip0_660_1451)">
<path fill-rule="evenodd" clip-rule="evenodd" d="M82.8416 125.25C77.4874 140.978 72.8406 151.008 72.0472 165.824C71.5718 174.714 73.4791 188.816 74.6612 197.138C75.489 202.967 80.1014 210.973 81.7493 216.45C85.9609 230.446 89.4842 240.856 99.1003 251.833C109.411 263.603 122.866 274.113 139.479 281.189C145.979 283.958 151.267 289.575 158.742 291.489C164.131 292.87 174.578 292.722 180.475 293.625C187.16 294.648 191.06 292.632 198.401 293.003C218.793 294.033 236.194 292.529 250.976 289.003C262.602 286.229 272.092 278.31 280.664 273.286C288.229 268.852 295.195 267.531 300.649 261.711C323.069 237.785 328.733 203.598 326.386 171.087C325.638 160.726 325.016 154.255 323.507 145.805C322.716 141.38 324.984 130.2 323.969 126.222C322.187 119.247 315.07 109.086 312.543 103.261C309.678 96.6597 308.48 96.7234 304.57 91.2074C295.617 78.5752 291.793 68.6813 271.958 62.2827C259.726 58.3368 238.386 55.0754 225.361 49.8748C210.638 43.9968 195.948 46.4592 181.903 50.015C174.185 51.9688 143.969 54.4541 136.642 57.3771C123.328 62.6892 119.673 71.185 109.96 81.8143C99.619 93.1293 88.1632 106.708 82.8409 125.249" fill="#552B71"/>
<path fill-rule="evenodd" clip-rule="evenodd" d="M211.079 59.1504C211.079 59.1504 165.741 54.1691 129.184 69.3681C120.749 72.8755 116.941 78.7592 110.106 84.7251C103.752 90.2711 94.2142 95.7157 90.3518 103.902C78.9693 128.035 74.2237 158.623 78.8501 188.016C79.9685 195.123 85.8076 201.917 88.0686 209.333C90.3295 216.748 89.0136 224.788 92.4668 232.305C101.85 252.733 117.53 269.711 138.226 280.83C200.57 314.322 286.081 273.597 305.788 248.567C309.704 243.591 308.8 231.998 312.04 222.156C314.216 215.544 320.834 211.717 322.408 203.727C325.631 187.367 327.341 168.807 326.511 150.878C326.02 140.263 321.777 129.909 319.291 120.321C315.771 106.745 312.557 94.821 303.706 86.2092C294.733 77.4789 287.641 76.2873 277.854 72.0184C272.331 69.6096 264.089 62.8516 258.747 61.4968C232.933 54.9471 211.078 59.1491 211.078 59.1491" fill="#9D64A9"/>
<path fill-rule="evenodd" clip-rule="evenodd" d="M153.671 69.0973C153.671 69.0973 127.561 76.3167 107.464 92.8112C100.398 98.6108 100.574 103.479 96.3915 111.664C93.2479 117.816 84.5935 126.419 83.2508 133.245C80.4902 147.284 81.144 162.548 84.0665 178.881C85.2097 185.272 90.0834 191.309 91.8536 198.018C98.5256 223.306 101.475 250.847 117.689 265.089C121.344 268.298 125.368 271.185 129.692 273.757C142.662 281.475 160.153 280.144 176.652 282.588C189.852 284.543 201.762 291.165 215.069 290.147C227.902 289.165 239.563 282.199 250.748 278.774C265.376 274.294 278.643 272.541 287.065 264.513C300.081 252.107 306.562 225.532 312.38 203.258C314.989 193.275 322.256 185.27 323.461 175.818C326.316 153.431 319.148 131.307 308.148 115.909C302.461 107.946 302.777 100.085 296.563 93.4669C274.371 69.8327 242.225 55.9215 210.034 55.1033C168.829 54.055 153.671 69.0979 153.671 69.0979" fill="#C495CE"/>
<path fill-rule="evenodd" clip-rule="evenodd" d="M130.937 111.188C123.424 123.482 103.571 130.072 101.031 150.111C99.701 160.607 101.768 187.521 104.923 200.69C110.73 224.929 124.264 251.665 145.301 265.694C157.321 273.71 180.105 267.135 198.586 270.424C227.026 275.485 258.598 270.519 274.192 257.988C287.112 247.606 286.026 231.199 291.213 214.223C297.115 194.905 306.317 171.639 305.912 150.868C305.531 131.356 295.875 114.163 290.982 100.825C283.957 81.6777 252.869 71.2542 229.506 71.75C229.331 71.7532 140.291 95.8813 130.937 111.188Z" fill="#E4BDED"/>
<path fill-rule="evenodd" clip-rule="evenodd" d="M279.671 98.2896C278.111 87.9528 259.627 79.6252 249.115 81.7109C238.603 83.7966 202.563 119.809 179.158 130.472C155.752 141.135 118.618 192.711 123.396 214.706C128.173 236.702 170.315 229.296 191.64 228.256C212.966 227.216 235.831 266.684 259.606 247.735C283.382 228.786 303.988 174.163 289.945 152.838C275.901 131.512 279.671 98.2896 279.671 98.2896Z" fill="#CCA6D5"/>
<path fill-rule="evenodd" clip-rule="evenodd" d="M189.17 236.448C189.17 236.448 199.573 230.727 203.214 232.548C206.854 234.368 206.854 238.789 204.255 245.291C201.654 251.792 204.322 259.925 198.013 265.575C191.704 271.226 186.37 274.47 182.928 270.852C179.487 267.235 166.628 258.579 170.533 249.296C174.436 240.013 189.171 236.448 189.171 236.448M258.217 234.498C258.217 234.498 267.58 235.408 268.23 239.569C268.88 243.73 267.389 251.209 263.939 251.272C260.489 251.334 257.347 252.439 254.402 247.044C251.456 241.649 253.426 234.594 254.728 234.202C256.029 233.81 258.218 234.498 258.218 234.498H258.217ZM209.235 180.006C209.235 180.006 203.817 182.238 201.483 184.554C199.15 186.87 200.516 193.081 203.184 195.892C205.851 198.703 209.43 198.573 213.92 196.546C218.41 194.519 220.036 191.578 219.646 188.047C219.255 184.517 216.783 183.929 215.156 181.64C213.529 179.352 209.235 180.006 209.235 180.006H209.235ZM225.577 118.357C225.577 118.357 212.889 116.527 211.067 118.945C209.245 121.364 204.365 119.338 204.365 124.306C204.365 129.274 207.358 135.616 212.759 137.12C218.159 138.623 229.026 142.023 233.06 138.492C237.094 134.962 239.84 128.981 236.027 124.551C232.214 120.122 225.577 118.357 225.577 118.357ZM211.861 74.9446C212.178 76.0107 205.619 76.6352 204.969 80.0158C204.318 83.3964 208.349 87.1677 219.012 88.9883C229.674 90.8083 229.935 81.8365 224.733 79.3659C219.532 76.8952 211.86 74.9446 211.86 74.9446H211.861ZM147.397 97.2464C147.397 97.2464 152.019 106.261 157.224 107.112C162.429 107.962 168.091 103.189 168.611 100.182C169.132 97.1744 161.454 88.2179 153.776 88.806C146.098 89.3949 147.398 97.2464 147.398 97.2464H147.397ZM112.752 122.148C112.752 122.148 120.69 120.71 122.057 122.868C123.423 125.025 126.155 125.613 123.358 130.713C120.56 135.812 116.005 143.658 110.215 142.546C104.423 141.434 103.838 136.27 106.636 132.544C109.433 128.818 112.752 122.149 112.752 122.149V122.148ZM286.695 104.076C286.695 104.076 271.22 100.565 269.4 104.596C267.58 108.626 276.032 127.351 285.134 131.902C294.236 136.454 297.487 128.132 297.357 123.711C297.227 119.289 286.695 104.076 286.695 104.076ZM153.672 154.398C153.672 154.398 151.462 149.717 148.601 150.237C145.74 150.757 136.638 154.007 131.567 156.478C126.496 158.949 124.675 162.98 125.325 168.311C125.975 173.642 125.87 184.778 129.746 185.345C133.622 185.912 134.427 194.447 142.619 193.537C150.811 192.626 153.802 193.667 159.004 188.986C164.205 184.305 161.474 180.664 158.223 171.562C154.972 162.459 153.672 154.397 153.672 154.397L153.672 154.398ZM251.8 166.081C251.8 166.081 245.618 172.16 245.423 178.633C245.228 185.105 240.371 194.756 244.564 196.398C248.757 198.041 250.675 204.07 258.347 198.869C266.019 193.668 278.372 180.144 274.992 172.862C271.61 165.58 264.072 162.518 260.038 163.24C256.004 163.962 251.8 166.08 251.8 166.08V166.081ZM297.098 188.727C297.098 188.727 288.386 189.637 287.085 191.847C285.785 194.058 281.695 199.874 286.535 203.337C291.376 206.801 302.2 207.709 304.72 200.168C307.24 192.628 297.098 188.727 297.098 188.727ZM120.366 213.935C120.366 213.935 112.818 217.074 111.777 219.362C110.736 221.649 108.914 226.879 111.126 229.168C113.339 231.456 118.805 236.033 122.969 234.006C127.133 231.978 128.317 226.718 129.222 221.078C130.127 215.439 120.367 213.935 120.367 213.935H120.366Z" fill="#C495CE"/>
<path fill-rule="evenodd" clip-rule="evenodd" d="M150.027 153.618C150.027 153.618 127.402 154.138 126.622 166.881C125.842 179.624 135.723 190.807 142.225 190.547C148.727 190.287 158.089 187.687 158.349 181.445C158.609 175.203 150.027 153.618 150.027 153.618Z" fill="#512D79"/>
<path fill-rule="evenodd" clip-rule="evenodd" d="M250.283 165.477C254.834 161.837 272.001 164.551 273.684 175.786C275.366 187.021 249.309 203.817 247.381 196.484C245.452 189.152 250.283 165.477 250.283 165.477Z" fill="#512D79"/>
<path fill-rule="evenodd" clip-rule="evenodd" d="M204.641 237.619C204.641 237.619 173.954 235.538 170.312 247.501C166.672 259.464 185.916 271.947 194.239 266.226C202.56 260.505 204.641 237.619 204.641 237.619" fill="#512D79"/>
<path fill-rule="evenodd" clip-rule="evenodd" d="M254.838 235.538C254.838 235.538 268.621 238.399 267.581 243.08C266.541 247.761 263.159 251.402 257.698 251.922C252.237 252.442 254.838 235.538 254.838 235.538Z" fill="#512D79"/>
<path fill-rule="evenodd" clip-rule="evenodd" d="M130.005 223.055C130.005 223.055 128.715 229.226 123.503 232.157C118.291 235.088 109.199 228.256 109.199 225.135C109.199 222.014 121.162 213.953 124.283 214.733C127.403 215.513 130.004 223.055 130.004 223.055" fill="#512D79"/>
<path fill-rule="evenodd" clip-rule="evenodd" d="M292.774 188.514C292.774 188.514 280.291 201.257 286.533 203.337C292.774 205.418 305.258 205.418 304.997 201.257C304.737 197.095 292.774 188.514 292.774 188.514" fill="#512D79"/>
<path fill-rule="evenodd" clip-rule="evenodd" d="M201 184.825C201 184.825 207.502 180.924 212.182 181.965C216.864 183.005 220.765 190.807 217.644 192.887C214.523 194.968 206.981 198.348 204.641 197.048C202.3 195.748 201 184.825 201 184.825Z" fill="#512D79"/>
<path fill-rule="evenodd" clip-rule="evenodd" d="M123.241 127.221C123.241 127.221 116.454 116.587 108.677 122.54C100.9 128.493 99.4448 135.803 106.077 138.404C112.708 141.004 113.358 140.354 115.179 138.664C117 136.973 123.241 127.221 123.241 127.221Z" fill="#512D79"/>
<path fill-rule="evenodd" clip-rule="evenodd" d="M171.937 257.32C176.658 265.054 188.268 270.334 194.244 266.225C202.566 260.504 204.647 237.619 204.647 237.619C204.647 237.619 197.235 256.473 187.222 260.894C182.301 263.067 176.532 260.496 171.937 257.32ZM129.639 224.324C128.964 226.288 127.244 230.056 123.506 232.158C118.294 235.089 109.203 228.257 109.203 225.136C109.203 224.674 109.467 224.103 109.923 223.47C112.68 226.796 116.745 230.628 120.515 230.077C123.984 229.57 127.297 226.801 129.638 224.324H129.639ZM218.725 189.77C218.895 191.103 218.595 192.257 217.65 192.888C214.529 194.969 206.987 198.35 204.647 197.049C203.118 196.2 202.033 191.245 201.465 187.91C203.889 190.537 206.763 192.804 209.588 193.018C212.665 193.252 215.979 191.644 218.726 189.77H218.725ZM273.216 179.924C269.584 190.631 249.089 202.957 247.387 196.485C245.823 190.538 248.706 173.84 249.851 167.743C249.748 168.386 246.524 188.995 255.228 189.508C260.484 189.817 267.991 184.383 273.216 179.924ZM134.77 187.043C137.27 189.329 139.957 190.639 142.231 190.548C148.733 190.288 158.095 187.687 158.355 181.445C158.615 175.203 150.033 153.619 150.033 153.619C150.033 153.619 154.974 174.293 151.854 179.885C149.748 183.658 140.538 185.95 134.77 187.043H134.77ZM270.683 106.866C270.683 106.866 287.44 97.6491 292.468 105.609C297.495 113.569 302.522 127.394 295.819 130.327C289.116 133.259 277.805 122.367 274.244 117.968C270.683 113.569 270.683 106.866 270.683 106.866V106.866ZM208.237 85.0227C208.237 85.0227 204.596 72.6696 217.079 73.8402C229.562 75.0102 226.572 86.0633 221.5 88.0133C216.429 89.9639 208.237 85.0227 208.237 85.0227ZM147.562 97.7045C147.562 97.7045 148.863 88.2121 154.844 87.9521C160.826 87.6921 166.287 92.8933 166.937 96.5346C167.588 100.175 164.857 104.336 161.736 106.027C158.616 107.718 147.562 97.7052 147.562 97.7052V97.7045ZM123.246 127.222C123.246 127.222 122.211 125.598 120.485 123.976C119.291 127.446 117.41 131.147 114.535 132.944C111.315 134.956 106.227 134.893 102.055 134.359C102.509 136.093 103.829 137.521 106.083 138.405C112.715 141.006 113.365 140.356 115.185 138.665C117.006 136.974 123.247 127.223 123.247 127.223L123.246 127.222ZM237.12 125.139C237.12 125.139 211.374 110.575 208.773 124.879C206.173 139.182 227.368 138.272 230.749 137.102C234.129 135.932 237.12 125.139 237.12 125.139ZM285.975 197.339C284.526 200.04 284.076 202.518 286.537 203.338C292.779 205.419 305.262 205.419 305.001 201.257C304.934 200.182 304.084 198.812 302.862 197.371C301.522 199.471 299.711 201.341 297.4 201.71C293.125 202.394 288.197 199.068 285.974 197.339H285.975ZM267.034 244.91C265.592 248.685 262.425 251.472 257.699 251.922C254.207 252.255 254.012 245.461 254.324 240.519C255.233 243.954 256.873 247.735 259.609 247.735C262.149 247.735 264.93 246.303 267.034 244.91H267.034Z" fill="#9D64A9"/>
<path fill-rule="evenodd" clip-rule="evenodd" d="M147.559 97.7046C147.559 97.7046 148.859 88.2122 154.84 87.9522C159.522 87.7489 163.886 90.8911 165.872 94.0124C164.707 96.2255 162.693 99.2569 160.314 99.4628C156.54 99.7897 147.559 97.7046 147.559 97.7046Z" fill="#512D79"/>
<path fill-rule="evenodd" clip-rule="evenodd" d="M207.866 83.1958C207.412 79.805 207.63 72.9546 217.071 73.8397C223.134 74.4081 225.546 77.3083 225.843 80.3639C224.707 82.419 223.418 84.2186 222.187 84.7532C219.784 85.799 212.012 84.1791 207.867 83.1958" fill="#512D79"/>
<path fill-rule="evenodd" clip-rule="evenodd" d="M278.131 103.715C283.276 102.064 289.675 101.193 292.464 105.609C295.506 110.426 298.548 117.389 298.99 122.788C291.573 122.616 280.605 121.839 279.412 118.77C278.284 115.871 278.105 108.73 278.131 103.715" fill="#512D79"/>
<path fill-rule="evenodd" clip-rule="evenodd" d="M274.539 126.366C274.539 126.366 280.13 135.208 288.062 135.468C295.994 135.728 298.985 131.567 298.985 131.567C298.985 131.567 295.734 138.329 288.712 137.939C281.691 137.549 274.539 126.366 274.539 126.366ZM232.046 82.2355C232.046 82.2355 229.575 89.6474 224.244 90.688C218.913 91.728 214.881 90.038 214.881 90.038C214.881 90.038 221.773 94.8492 228.275 92.3786C234.777 89.908 232.046 82.2362 232.046 82.2362L232.046 82.2355ZM153.356 108.616C153.356 108.616 158.887 109.661 161.555 109.204C164.222 108.746 168.126 106.982 170.273 104.955C172.421 102.928 173.657 96.2594 173.657 96.2594C173.657 96.2594 174.112 105.282 170.924 108.223C167.736 111.165 163.767 112.734 161.62 112.604C159.473 112.472 153.356 108.616 153.356 108.616H153.356ZM124.548 135.544C124.548 135.544 117.244 142.154 114.186 143.396C111.128 144.638 107.68 142.742 107.68 142.742C107.68 142.742 110.998 146.991 116.724 144.769C122.449 142.545 124.547 135.544 124.547 135.544H124.548ZM201.917 120.07C201.917 120.07 199.836 129.823 202.567 133.333C205.298 136.844 208.809 139.184 212.97 142.045C217.131 144.906 226.233 143.085 226.233 143.085C226.233 143.085 216.09 145.556 209.459 142.435C202.827 139.314 199.057 136.844 198.277 132.423C197.497 128.001 201.917 120.07 201.917 120.07L201.917 120.07ZM121.427 178.324C121.427 178.324 123.508 184.435 127.408 187.166C131.309 189.897 130.269 194.708 138.981 196.529C147.693 198.349 149.644 197.049 155.625 194.838C161.606 192.627 166.157 184.435 166.157 184.435C166.157 184.435 159.916 199.259 149.643 199.259C139.371 199.259 135.599 200.69 130.528 194.708C128.804 192.674 126.55 190.391 125.184 187.919C122.533 183.118 121.426 178.324 121.426 178.324L121.427 178.324ZM240.406 198.219C240.406 198.219 243.787 198.609 245.478 202.51C247.168 206.411 253.279 207.321 258.221 205.24C263.162 203.16 267.583 193.797 271.874 191.717C276.165 189.637 277.335 182.355 277.335 182.355C277.335 182.355 277.334 189.27 273.726 192.428C270.118 195.587 266.672 203.94 261.211 208.361C255.75 212.782 248.208 210.052 245.088 205.11C241.967 200.169 240.406 198.218 240.406 198.218V198.219ZM264.816 234.268C264.816 234.268 269.175 235.051 269.826 240.609C270.476 246.166 267.874 250.547 267.874 250.547C267.874 250.547 273.014 244.794 272.103 239.825C271.192 234.856 264.816 234.268 264.816 234.268V234.268ZM131.459 222.372C131.459 222.372 130.419 229.524 127.558 233.295C124.697 237.066 121.186 236.676 121.186 236.676C121.186 236.676 125.737 239.016 129.638 234.595C133.539 230.174 131.459 222.372 131.459 222.372H131.459ZM212.58 234.628C212.58 234.628 205.428 240.61 206.858 247.111C208.289 253.613 203.868 265.186 203.868 265.186C203.868 265.186 210.89 257.384 209.72 250.232C208.55 243.08 212.58 234.628 212.58 234.628H212.58ZM198.666 191.588C198.666 191.588 199.935 199.095 204.359 200.142C208.783 201.188 212.102 200.142 212.102 200.142C212.102 200.142 207.092 203.476 202.472 201.057C197.853 198.638 198.667 191.587 198.667 191.587L198.666 191.588Z" fill="#9D64A9" fill-opacity="0.3"/>
<path fill-rule="evenodd" clip-rule="evenodd" d="M236.707 124.911C233.401 123.122 211.18 111.643 208.774 124.878C208.692 125.327 208.633 125.76 208.598 126.179C214.825 129.694 223.16 133.842 226.622 133.072C229.782 132.37 233.737 128.408 236.707 124.911Z" fill="#512D79"/>
<path fill-rule="evenodd" clip-rule="evenodd" d="M172.742 253.684C172.742 253.684 171.115 246.754 175.084 244.139C179.053 241.524 182.176 240.74 182.176 240.74C182.176 240.74 177.361 243.028 175.214 246.428C173.067 249.827 172.742 253.685 172.742 253.685M116.264 219.395C116.264 219.395 121.221 214.948 124.072 215.93C126.923 216.913 127.552 219.722 127.552 219.722C127.552 219.722 125.73 217.172 122.51 217.531C119.289 217.89 116.263 219.394 116.263 219.394L116.264 219.395ZM204.874 184.844C204.874 184.844 208.173 183.053 211.706 183.34C215.24 183.627 216.13 187.72 216.13 187.72C216.13 187.72 214.929 185.155 211.348 184.451C207.767 183.748 204.874 184.844 204.874 184.844ZM257.393 165.296C271.442 166.864 273.578 177.222 270.862 179.09C271.962 172.804 261.436 166.109 257.393 165.296ZM281.24 104.791C281.24 104.791 286.557 102.997 289.731 104.66C292.905 106.323 294.611 113.289 294.611 113.289C294.611 113.289 292.041 107.895 288.949 106.196C285.859 104.497 281.239 104.791 281.239 104.791H281.24ZM209.179 79.2615C209.179 79.2615 209.862 75.6993 214.091 74.5873C218.321 73.4753 221.118 75.8293 221.118 75.8293C221.118 75.8293 217.376 74.9792 213.863 76.3849C210.35 77.7907 209.179 79.2615 209.179 79.2615ZM150.586 91.6827C150.586 91.6827 152.309 88.515 155.401 88.4793C158.493 88.4429 159.411 89.915 159.411 89.915C159.411 89.915 156.98 89.0184 154.687 89.6888C152.394 90.3592 150.587 91.6827 150.587 91.6827H150.586ZM116.98 122.41C116.98 122.41 114.084 121.036 110.928 122.344C107.773 123.652 105.398 126.855 105.398 126.855C105.398 126.855 108.905 123.906 112.227 123.174C115.549 122.442 116.98 122.41 116.98 122.41H116.98ZM210.382 123.913C210.382 123.913 212.433 119.532 216.922 119.467C221.411 119.402 224.6 121.559 224.6 121.559C224.6 121.559 220.143 120.121 216.109 121.265C212.074 122.41 210.382 123.913 210.382 123.913ZM137.671 157.124C137.671 157.124 130.058 160.066 128.822 165.099C127.586 170.133 130.058 175.82 130.058 175.82C130.058 175.82 129.26 169.848 131.424 164.576C133.59 159.304 137.671 157.124 137.671 157.124H137.671ZM289.166 194.682C289.166 194.682 291.086 191.021 293.493 191.185C295.9 191.347 297.82 194.387 297.82 194.387C297.82 194.387 295.087 191.935 293.038 192.426C290.989 192.917 289.167 194.682 289.167 194.682H289.166ZM261.427 238.352C261.427 238.352 265.559 239.954 266.275 241.523C266.991 243.092 266.047 244.301 266.047 244.301C266.047 244.301 266.471 242.798 264.322 240.902C262.175 239.006 261.427 238.352 261.427 238.352H261.427Z" fill="white" fill-opacity="0.45"/>
</g>
<defs>
<clipPath id="clip0_660_1451">
<rect width="254.904" height="247.575" fill="white" transform="translate(71.9727 46.3431)"/>
</clipPath>
</defs>
</svg>
