<svg width="1320" height="34" viewBox="0 0 1320 34" fill="none" xmlns="http://www.w3.org/2000/svg">
<g clip-path="url(#clip0_2656_3584)">
<path d="M598.739 15.7361H591.809V18.0007H598.739C600.565 18.0007 602.317 18.7245 603.609 20.0129C604.9 21.3013 605.626 23.0488 605.626 24.8709C605.626 26.693 604.9 28.4404 603.609 29.7288C602.317 31.0172 600.565 31.7411 598.739 31.7411H593.307C593.933 32.7054 594.818 33.4752 595.861 33.9632C595.861 33.9632 596.057 33.9915 596.329 34.0028H598.724C601.152 34.0028 603.481 33.0407 605.198 31.3281C606.915 29.6156 607.879 27.2928 607.879 24.8709C607.879 22.4489 606.915 20.1262 605.198 18.4136C603.481 16.701 601.152 15.7389 598.724 15.7389L598.739 15.7361Z" fill="#009E99"/>
<path d="M594.641 26.0003H598.741C599.042 26.0003 599.331 25.881 599.544 25.6687C599.757 25.4563 599.877 25.1683 599.877 24.868C599.877 24.5677 599.757 24.2797 599.544 24.0674C599.331 23.855 599.042 23.7357 598.741 23.7357H591.809V26.0003H594.646H594.641Z" fill="#009E99"/>
<path d="M595.373 30.0058H598.741C599.417 30.0058 600.086 29.8731 600.71 29.6152C601.335 29.3572 601.902 28.9792 602.379 28.5027C602.857 28.0261 603.236 27.4603 603.495 26.8377C603.753 26.215 603.886 25.5477 603.886 24.8737C603.886 24.1997 603.753 23.5324 603.495 22.9097C603.236 22.2871 602.857 21.7213 602.379 21.2447C601.902 20.7682 601.335 20.3901 600.71 20.1322C600.086 19.8743 599.417 19.7416 598.741 19.7416H591.809V22.0062H598.741C599.505 22.0062 600.237 22.3086 600.776 22.8469C601.316 23.3852 601.619 24.1153 601.619 24.8765C601.619 25.6378 601.316 26.3679 600.776 26.9062C600.237 27.4445 599.505 27.7469 598.741 27.7469H591.857C591.941 28.5221 592.125 29.2833 592.405 30.0115H595.373V30.0058Z" fill="#009E99"/>
<path style="mix-blend-mode:multiply" d="M593.849 17.9978H594.638V15.7361H593.849H591.809V17.9978H593.849Z" fill="url(#paint0_linear_2656_3584)"/>
<path style="mix-blend-mode:multiply" d="M594.641 26.0003V23.7386H593.849H591.809V26.0003H593.849H594.641Z" fill="url(#paint1_linear_2656_3584)"/>
<path style="mix-blend-mode:multiply" d="M595.372 30.0058C595.002 29.2972 594.755 28.5317 594.639 27.7412H591.855C591.94 28.5165 592.124 29.2776 592.403 30.0058H595.372Z" fill="url(#paint2_linear_2656_3584)"/>
<path style="mix-blend-mode:multiply" d="M594.641 21.9977V19.7359H593.849H591.809V21.9977H593.849H594.641Z" fill="url(#paint3_linear_2656_3584)"/>
<path style="mix-blend-mode:multiply" d="M596.303 31.7382H593.309C593.935 32.7025 594.82 33.4724 595.863 33.9604C596.018 33.9825 596.174 33.9957 596.331 34H598.726C599.339 34.0003 599.95 33.9396 600.551 33.8188L598.255 32.9413C598.042 32.8366 596.487 31.8769 596.303 31.7382Z" fill="url(#paint4_linear_2656_3584)"/>
<path d="M588.968 31.2146C588.225 29.9113 587.824 28.442 587.802 26.943V9.13196C587.802 7.77083 587.26 6.46546 586.295 5.503C585.33 4.54054 584.021 3.99983 582.657 3.99983C581.292 3.99983 579.984 4.54054 579.019 5.503C578.054 6.46546 577.512 7.77083 577.512 9.13196V26.943C577.514 28.6872 578.163 30.369 579.332 31.6657C580.502 32.9624 582.11 33.7826 583.849 33.9689C582.615 33.3823 581.6 32.4211 580.948 31.223C580.203 29.9205 579.801 28.4509 579.779 26.9515V9.13196C579.779 8.37069 580.082 7.6406 580.622 7.1023C581.162 6.56401 581.894 6.26159 582.657 6.26159C583.42 6.26159 584.152 6.56401 584.691 7.1023C585.231 7.6406 585.534 8.37069 585.534 9.13196V26.943C585.537 28.6872 586.185 30.369 587.355 31.6657C588.524 32.9624 590.133 33.7826 591.871 33.9689C590.636 33.3793 589.62 32.4152 588.968 31.2146Z" fill="#552B71"/>
<path d="M582.655 7.99966C582.354 7.99966 582.065 8.11896 581.852 8.33131C581.639 8.54365 581.52 8.83166 581.52 9.13196V26.943C581.522 28.6876 582.171 30.3698 583.341 31.6666C584.511 32.9633 586.12 33.7832 587.859 33.9689C586.625 33.3823 585.609 32.4211 584.956 31.223C584.213 29.9198 583.812 28.4505 583.79 26.9515V9.13196C583.79 8.98326 583.76 8.83603 583.703 8.69865C583.646 8.56127 583.563 8.43645 583.457 8.33131C583.352 8.22616 583.227 8.14276 583.089 8.08586C582.951 8.02895 582.804 7.99966 582.655 7.99966Z" fill="#552B71"/>
<path d="M595.876 33.9689C594.833 33.4809 593.949 32.711 593.322 31.7467C593.2 31.5684 593.087 31.3901 592.99 31.223C592.77 30.8332 592.581 30.4272 592.423 30.0087C592.143 29.2804 591.959 28.5193 591.875 27.7441C591.845 27.4799 591.829 27.2144 591.827 26.9486V9.13195C591.827 6.70776 590.861 4.38285 589.143 2.66868C587.424 0.95451 585.094 -0.00849915 582.663 -0.00849915C580.233 -0.00849915 577.902 0.95451 576.184 2.66868C574.465 4.38285 573.5 6.70776 573.5 9.13195V26.943C573.503 28.6872 574.151 30.369 575.32 31.6657C576.49 32.9624 578.098 33.7826 579.837 33.9689C578.604 33.3823 577.588 32.421 576.937 31.223C576.191 29.9177 575.79 28.4451 575.77 26.943V9.13195C575.77 7.30986 576.496 5.5624 577.788 4.27399C579.079 2.98558 580.831 2.26175 582.658 2.26175C584.484 2.26175 586.236 2.98558 587.528 4.27399C588.819 5.5624 589.545 7.30986 589.545 9.13195V27.0562C589.575 28.5872 590.101 30.0674 591.046 31.2745C591.99 32.4816 593.302 33.3506 594.784 33.7509H594.832C595.174 33.8509 595.523 33.9238 595.876 33.9689Z" fill="#552B71"/>
<path d="M629.939 23.7584V26.0032H621.426V11.3229H623.838V23.7584H629.939Z" fill="#552B71"/>
<path d="M645.735 14.683V26.006H643.857L643.63 24.6303C643.09 25.1671 642.448 25.5905 641.741 25.8755C641.034 26.1604 640.277 26.301 639.515 26.2891C636.135 26.2891 633.609 23.7414 633.609 20.3445C633.609 16.9476 636.135 14.4169 639.515 14.4169C640.286 14.4059 641.051 14.5507 641.764 14.8426C642.477 15.1345 643.123 15.5675 643.664 16.1154L643.948 14.7L645.735 14.683ZM643.4 20.3445C643.4 19.3633 643.009 18.4222 642.314 17.7284C641.618 17.0345 640.675 16.6447 639.691 16.6447C638.707 16.6447 637.764 17.0345 637.068 17.7284C636.373 18.4222 635.982 19.3633 635.982 20.3445C635.982 21.3258 636.373 22.2668 637.068 22.9606C637.764 23.6545 638.707 24.0443 639.691 24.0443C640.675 24.0443 641.618 23.6545 642.314 22.9606C643.009 22.2668 643.4 21.3258 643.4 20.3445Z" fill="#552B71"/>
<path d="M661.694 14.6887L656.481 26.2098C655.201 29.0405 654.072 30.0624 651.759 30.0624H650.607V27.9649H651.58C653.079 27.9649 653.541 27.5289 654.373 25.7172L654.628 25.1851L649.688 14.6887H652.225L655.829 22.578L659.203 14.6887H661.694Z" fill="#552B71"/>
<path d="M675.964 20.3813C675.964 20.6361 675.941 20.8908 675.916 21.1456H666.707C666.991 22.9799 668.322 24.1066 670.18 24.1066C670.791 24.129 671.397 23.987 671.933 23.6957C672.47 23.4043 672.918 22.9742 673.231 22.4506H675.686C675.289 23.5865 674.544 24.5688 673.555 25.2579C672.567 25.947 671.386 26.3078 670.18 26.2891C666.863 26.2891 664.352 23.7414 664.352 20.3445C664.352 16.9476 666.857 14.4 670.18 14.4C673.651 14.4 675.964 17.0694 675.964 20.3615V20.3813ZM666.767 19.249H673.626C673.206 17.5308 671.909 16.5145 670.18 16.5145C669.377 16.4851 668.59 16.7453 667.963 17.2474C667.336 17.7496 666.911 18.4601 666.767 19.249Z" fill="#552B71"/>
<path d="M686.946 14.6264V16.8231H685.714C683.785 16.8231 682.823 17.9186 682.823 19.9709V26.0032H680.484V14.6802H682.062L682.471 16.2314C683.282 15.1586 684.395 14.6264 685.944 14.6264H686.946Z" fill="#552B71"/>
<path d="M690.582 22.411H692.852C692.912 23.6084 693.919 24.2339 695.287 24.2339C696.539 24.2339 697.504 23.7046 697.504 22.7591C697.504 21.6835 696.283 21.44 694.896 21.2051C693.006 20.8824 690.778 20.4549 690.778 17.8308C690.778 15.8012 692.537 14.4113 695.176 14.4113C697.816 14.4113 699.53 15.8521 699.575 18.0375H697.367C697.322 16.9618 696.499 16.3843 695.131 16.3843C693.84 16.3843 693.042 16.9306 693.042 17.7572C693.042 18.7565 694.2 18.9518 695.568 19.1726C697.486 19.4925 699.825 19.8605 699.825 22.6516C699.825 24.8482 697.986 26.2749 695.222 26.2749C692.458 26.2749 690.642 24.7576 690.582 22.411Z" fill="#552B71"/>
<path d="M714.684 19.1839V26.0032H712.354V19.6623C712.354 17.6128 711.474 16.5174 709.752 16.5174C708.029 16.5174 706.704 17.9327 706.704 19.9454V26.0032H704.371V10.6322H706.704V15.9739C707.174 15.4707 707.746 15.0729 708.382 14.8069C709.018 14.5409 709.704 14.4128 710.393 14.4311C713.035 14.4368 714.684 16.2682 714.684 19.1839Z" fill="#552B71"/>
<path d="M719.875 10.536H722.284V12.9336H719.875V10.536ZM719.912 14.6887H722.245V26.0116H719.912V14.6887Z" fill="#552B71"/>
<path d="M734.748 16.7297H731.538V26.0032H729.209V16.7297H727.086V14.7963H729.214V13.8395C729.214 11.5268 730.349 10.2501 732.835 10.2501H734.728V12.1042H733.284C732.018 12.1042 731.47 12.6308 731.47 13.8933V14.7963H734.748V16.7297Z" fill="#552B71"/>
<path d="M746.5 23.8914V26.0032H744.769C742.283 26.0032 740.748 24.4746 740.748 21.975V16.6815H738.719V16.2314L742.666 12.0448H743.063V14.6887H746.438V16.6702H743.08V21.7967C743.08 23.1469 743.833 23.8971 745.206 23.8971L746.5 23.8914Z" fill="#552B71"/>
</g>
<defs>
<linearGradient id="paint0_linear_2656_3584" x1="591.159" y1="16.8684" x2="604.769" y2="16.8684" gradientUnits="userSpaceOnUse">
<stop stop-color="#002442"/>
<stop offset="0.08" stop-color="#576F83" stop-opacity="0.66"/>
<stop offset="0.18" stop-color="#B4BEC7" stop-opacity="0.3"/>
<stop offset="0.27" stop-color="#ECEEF1" stop-opacity="0.08"/>
<stop offset="0.35" stop-color="white" stop-opacity="0"/>
</linearGradient>
<linearGradient id="paint1_linear_2656_3584" x1="591.181" y1="24.868" x2="604.718" y2="24.868" gradientUnits="userSpaceOnUse">
<stop stop-color="#002442"/>
<stop offset="0.08" stop-color="#576F83" stop-opacity="0.66"/>
<stop offset="0.18" stop-color="#B4BEC7" stop-opacity="0.3"/>
<stop offset="0.27" stop-color="#ECEEF1" stop-opacity="0.08"/>
<stop offset="0.35" stop-color="white" stop-opacity="0"/>
</linearGradient>
<linearGradient id="paint2_linear_2656_3584" x1="590.947" y1="29.5812" x2="603.086" y2="26.322" gradientUnits="userSpaceOnUse">
<stop offset="0.08" stop-color="#002442"/>
<stop offset="0.14" stop-color="#576F83" stop-opacity="0.66"/>
<stop offset="0.22" stop-color="#B4BEC7" stop-opacity="0.3"/>
<stop offset="0.29" stop-color="#ECEEF1" stop-opacity="0.08"/>
<stop offset="0.35" stop-color="white" stop-opacity="0"/>
</linearGradient>
<linearGradient id="paint3_linear_2656_3584" x1="591.003" y1="20.8682" x2="605.234" y2="20.8682" gradientUnits="userSpaceOnUse">
<stop stop-color="#002442"/>
<stop offset="0.08" stop-color="#576F83" stop-opacity="0.66"/>
<stop offset="0.18" stop-color="#B4BEC7" stop-opacity="0.3"/>
<stop offset="0.27" stop-color="#ECEEF1" stop-opacity="0.08"/>
<stop offset="0.35" stop-color="white" stop-opacity="0"/>
</linearGradient>
<linearGradient id="paint4_linear_2656_3584" x1="594.069" y1="35.1776" x2="599.045" y2="30.9928" gradientUnits="userSpaceOnUse">
<stop offset="0.19" stop-color="#002442"/>
<stop offset="0.42" stop-color="#768A9A" stop-opacity="0.54"/>
<stop offset="0.71" stop-color="white" stop-opacity="0"/>
</linearGradient>
<clipPath id="clip0_2656_3584">
<rect width="173" height="34" fill="white" transform="translate(573.5)"/>
</clipPath>
</defs>
</svg>
