<svg width="107" height="138" viewBox="0 0 107 138" fill="none" xmlns="http://www.w3.org/2000/svg">
<g clip-path="url(#clip0_339_5008)">
<path d="M53.0039 38.6714V80.6571L55.3925 80.129L56.8575 82.1295L83.7528 49.922C83.7528 49.922 72.1443 36.4069 53.0119 38.6794L53.0039 38.6714Z" fill="#D73B5F"/>
<path d="M53.0047 27.7337C60.1854 27.7337 66.0065 21.8834 66.0065 14.6666C66.0065 7.44992 60.1854 1.59961 53.0047 1.59961C45.824 1.59961 40.0029 7.44992 40.0029 14.6666C40.0029 21.8834 45.824 27.7337 53.0047 27.7337Z" stroke="#552B71" stroke-width="4" stroke-linecap="round" stroke-linejoin="round"/>
<path d="M100.107 95.0933L91.9062 93.637" stroke="#552B71" stroke-width="4" stroke-linecap="round" stroke-linejoin="round"/>
<path d="M94.4223 110.777L87.2168 106.592" stroke="#552B71" stroke-width="4" stroke-linecap="round" stroke-linejoin="round"/>
<path d="M83.7449 123.564L78.3945 117.154" stroke="#552B71" stroke-width="4" stroke-linecap="round" stroke-linejoin="round"/>
<path d="M69.358 131.911L66.5156 124.053" stroke="#552B71" stroke-width="4" stroke-linecap="round" stroke-linejoin="round"/>
<path d="M53.0039 134.815V126.445" stroke="#552B71" stroke-width="4" stroke-linecap="round" stroke-linejoin="round"/>
<path d="M53.0039 47.819V39.457" stroke="#552B71" stroke-width="4" stroke-linecap="round" stroke-linejoin="round"/>
<path d="M36.6426 131.911L39.4929 124.053" stroke="#552B71" stroke-width="4" stroke-linecap="round" stroke-linejoin="round"/>
<path d="M22.2559 123.564L27.6063 117.154" stroke="#552B71" stroke-width="4" stroke-linecap="round" stroke-linejoin="round"/>
<path d="M11.5781 110.777L18.7916 106.592" stroke="#552B71" stroke-width="4" stroke-linecap="round" stroke-linejoin="round"/>
<path d="M5.90137 95.0931L14.0942 93.6367" stroke="#552B71" stroke-width="4" stroke-linecap="round" stroke-linejoin="round"/>
<path d="M5.90137 78.3926L14.0942 79.8489" stroke="#552B71" stroke-width="4" stroke-linecap="round" stroke-linejoin="round"/>
<path d="M11.5781 62.709L18.7916 66.894" stroke="#552B71" stroke-width="4" stroke-linecap="round" stroke-linejoin="round"/>
<path d="M100.107 78.3926L91.9062 79.8489" stroke="#552B71" stroke-width="4" stroke-linecap="round" stroke-linejoin="round"/>
<path d="M53.0044 93.7801C56.8695 93.7801 60.0029 90.6311 60.0029 86.7465C60.0029 82.862 56.8695 79.7129 53.0044 79.7129C49.1392 79.7129 46.0059 82.862 46.0059 86.7465C46.0059 90.6311 49.1392 93.7801 53.0044 93.7801Z" stroke="#552B71" stroke-width="4" stroke-linecap="round" stroke-linejoin="round"/>
<path d="M53.0039 27.7422V37.0884" stroke="#552B71" stroke-width="4" stroke-linecap="round" stroke-linejoin="round"/>
<path d="M84.7568 48.6349L92.3843 40.1289" stroke="#552B71" stroke-width="4" stroke-linecap="round" stroke-linejoin="round"/>
<path d="M86.7314 34.248L98.7937 45.1786" stroke="#552B71" stroke-width="4" stroke-linecap="round" stroke-linejoin="round"/>
<path d="M69.358 41.5762L66.5156 49.434" stroke="#552B71" stroke-width="4" stroke-linecap="round" stroke-linejoin="round"/>
<path d="M94.4223 62.709L87.2168 66.894" stroke="#552B71" stroke-width="4" stroke-linecap="round" stroke-linejoin="round"/>
<path d="M22.2559 49.9219L27.6063 56.3314" stroke="#552B71" stroke-width="4" stroke-linecap="round" stroke-linejoin="round"/>
<path d="M36.6426 41.5762L39.4929 49.434" stroke="#552B71" stroke-width="4" stroke-linecap="round" stroke-linejoin="round"/>
<path d="M53.0044 136.407C80.2936 136.407 102.416 114.174 102.416 86.7473C102.416 59.3212 80.2936 37.0878 53.0044 37.0878C25.7151 37.0878 3.59277 59.3212 3.59277 86.7473C3.59277 114.174 25.7151 136.407 53.0044 136.407Z" stroke="#552B71" stroke-width="4" stroke-linecap="round" stroke-linejoin="round"/>
<path d="M81.0703 53.123L57.4951 81.3616" stroke="#552B71" stroke-width="4" stroke-linecap="round" stroke-linejoin="round"/>
</g>
<defs>
<clipPath id="clip0_339_5008">
<rect width="107" height="138" fill="white"/>
</clipPath>
</defs>
</svg>
