<svg width="27" height="28" viewBox="0 0 27 28" fill="none" xmlns="http://www.w3.org/2000/svg">
<g clip-path="url(#clip0_2170_4924)">
<path d="M0.585996 15.9234C0.585996 14.6829 1.07879 13.4932 1.95596 12.6161C2.83313 11.7389 4.02284 11.2461 5.26335 11.2461V20.6242C4.64713 20.6242 4.037 20.5024 3.46798 20.2659C2.89897 20.0294 2.3823 19.6828 1.94766 19.246C1.51302 18.8091 1.16898 18.2908 0.935303 17.7206C0.701624 17.1504 0.582915 16.5396 0.585996 15.9234V15.9234Z" stroke="#552B71" stroke-linecap="round" stroke-linejoin="round"/>
<path d="M26.4195 15.9176C26.4195 14.6771 25.9267 13.4874 25.0496 12.6102C24.1724 11.733 22.9827 11.2402 21.7422 11.2402V20.6242C22.3589 20.6242 22.9695 20.5022 23.5389 20.2653C24.1083 20.0285 24.6252 19.6813 25.06 19.2439C25.4947 18.8064 25.8386 18.2874 26.0719 17.7165C26.3053 17.1456 26.4234 16.5343 26.4195 15.9176V15.9176Z" stroke="#552B71" stroke-linecap="round" stroke-linejoin="round"/>
<path d="M3.41016 11.2171C3.47371 8.57123 4.56943 6.0551 6.46322 4.20624C8.35702 2.35738 10.8987 1.3224 13.5454 1.3224C16.192 1.3224 18.7338 2.35738 20.6276 4.20624C22.5214 6.0551 23.6171 8.57123 23.6806 11.2171" stroke="#552B71" stroke-linecap="round" stroke-linejoin="round"/>
<path d="M14.6429 26.8863C16.0572 26.8863 17.2037 25.7398 17.2037 24.3255C17.2037 22.9112 16.0572 21.7646 14.6429 21.7646C13.2286 21.7646 12.082 22.9112 12.082 24.3255C12.082 25.7398 13.2286 26.8863 14.6429 26.8863Z" stroke="#552B71" stroke-linecap="round" stroke-linejoin="round"/>
<path d="M24.065 19.9873C24.065 19.9873 22.8956 26.3427 16.207 26.3427" stroke="#552B71" stroke-linecap="round" stroke-linejoin="round"/>
</g>
<defs>
<clipPath id="clip0_2170_4924">
<rect width="27" height="26.9708" fill="white" transform="translate(0 0.5)"/>
</clipPath>
</defs>
</svg>
