<svg width="10" height="6" viewBox="0 0 10 6" fill="none" xmlns="http://www.w3.org/2000/svg">
<path d="M4.99216 5.50413C4.82555 5.50443 4.6641 5.45112 4.53581 5.35347L0.257587 2.07822C0.111972 1.96704 0.0204009 1.80726 0.00301722 1.63405C-0.0143664 1.46084 0.0438616 1.28838 0.164892 1.15461C0.285922 1.02083 0.45984 0.93671 0.648386 0.920741C0.836931 0.904771 1.02466 0.958263 1.17027 1.06945L4.99216 4.00407L8.81404 1.17426C8.88697 1.11985 8.9709 1.07921 9.06098 1.05469C9.15107 1.03017 9.24554 1.02225 9.33896 1.03138C9.43239 1.04051 9.52294 1.06652 9.60539 1.1079C9.68784 1.14928 9.76058 1.20522 9.81942 1.27252C9.88472 1.33987 9.93418 1.41888 9.96469 1.50461C9.9952 1.59034 10.0061 1.68093 9.99674 1.77072C9.98737 1.8605 9.95792 1.94754 9.91023 2.02638C9.86254 2.10522 9.79764 2.17416 9.7196 2.22889L5.44137 5.39277C5.3094 5.47499 5.15124 5.51419 4.99216 5.50413Z" fill="#00594E"/>
</svg>
