<svg width="9" height="5" viewBox="0 0 9 5" fill="white" xmlns="http://www.w3.org/2000/svg">
<path d="M4.37578 4.37578C4.22975 4.37607 4.08823 4.32521 3.97578 4.23203L0.225783 1.10703C0.0981473 1.00095 0.017882 0.848502 0.00264469 0.683235C-0.0125926 0.517969 0.0384461 0.353418 0.144533 0.225782C0.250619 0.098147 0.403064 0.017882 0.56833 0.0026447C0.733597 -0.0125926 0.898147 0.0384458 1.02578 0.144532L4.37578 2.94453L7.72578 0.244533C7.78971 0.192617 7.86327 0.153847 7.94224 0.130452C8.0212 0.107057 8.104 0.0994985 8.1859 0.108211C8.26779 0.116923 8.34715 0.141733 8.41943 0.181217C8.4917 0.2207 8.55546 0.274078 8.60703 0.338283C8.66427 0.402546 8.70762 0.477938 8.73437 0.559734C8.76111 0.64153 8.77068 0.727968 8.76246 0.813632C8.75425 0.899297 8.72843 0.982342 8.68663 1.05756C8.64483 1.13279 8.58794 1.19857 8.51953 1.25078L4.76953 4.26953C4.65386 4.34798 4.51522 4.38539 4.37578 4.37578Z" fill="white"/>
</svg>
