<svg width="26" height="24" viewBox="0 0 26 24" fill="none" xmlns="http://www.w3.org/2000/svg">
<g clip-path="url(#clip0_1357_214)">
<path d="M1.38794 1.72415H4.95691L7.6638 13.4914L23.7155 11.7155L24.6379 4.51726" stroke="white" stroke-width="1.72414" stroke-linecap="round" stroke-linejoin="round"/>
<path d="M9.43926 22.4137C10.9152 22.4137 12.1117 21.2172 12.1117 19.7413C12.1117 18.2654 10.9152 17.0689 9.43926 17.0689C7.96333 17.0689 6.76685 18.2654 6.76685 19.7413C6.76685 21.2172 7.96333 22.4137 9.43926 22.4137Z" stroke="white" stroke-width="1.72414" stroke-linecap="round" stroke-linejoin="round"/>
<path d="M20.1463 22.4137C21.6222 22.4137 22.8187 21.2172 22.8187 19.7413C22.8187 18.2654 21.6222 17.0689 20.1463 17.0689C18.6704 17.0689 17.4739 18.2654 17.4739 19.7413C17.4739 21.2172 18.6704 22.4137 20.1463 22.4137Z" stroke="white" stroke-width="1.72414" stroke-linecap="round" stroke-linejoin="round"/>
<path d="M7.86265 13.6382C7.45908 13.7802 7.12032 14.063 6.90864 14.4348C6.69697 14.8066 6.62662 15.2422 6.71052 15.6617C6.79441 16.0812 7.02693 16.4564 7.36531 16.7181C7.70369 16.9799 8.12518 17.1107 8.5523 17.0865H20.1471" stroke="white" stroke-width="1.72414" stroke-linecap="round" stroke-linejoin="round"/>
</g>
<defs>
<clipPath id="clip0_1357_214">
<rect width="24.9741" height="22.4138" fill="white" transform="translate(0.896606 0.862076)"/>
</clipPath>
</defs>
</svg>
