<svg width="11" height="6" viewBox="0 0 11 6" fill="none" xmlns="http://www.w3.org/2000/svg">
<path d="M5.01556 5.41058C4.84817 5.4109 4.68596 5.35413 4.55707 5.25013L0.258794 1.76203C0.112497 1.64362 0.0204965 1.47346 0.00303136 1.28899C-0.0144338 1.10452 0.0440672 0.920849 0.165665 0.778384C0.287262 0.635918 0.461995 0.546327 0.651425 0.529319C0.840855 0.512311 1.02946 0.56928 1.17576 0.687693L5.01556 3.81303L8.85536 0.799313C8.92863 0.741364 9.01295 0.69809 9.10345 0.671977C9.19396 0.645864 9.28888 0.637427 9.38274 0.647151C9.47661 0.656875 9.56758 0.684568 9.65042 0.72864C9.73326 0.772711 9.80633 0.832291 9.86545 0.903956C9.93106 0.975686 9.98075 1.05984 10.0114 1.15114C10.0421 1.24244 10.053 1.33892 10.0436 1.43454C10.0342 1.53016 10.0046 1.62285 9.95668 1.70681C9.90877 1.79078 9.84357 1.8642 9.76516 1.92248L5.46688 5.29199C5.33429 5.37955 5.17538 5.4213 5.01556 5.41058Z" fill="#00594E"/>
</svg>
