<svg width="27" height="27" viewBox="0 0 27 27" fill="none" xmlns="http://www.w3.org/2000/svg">
<g clip-path="url(#clip0_1357_228)">
<path d="M0.585019 15.4237C0.585019 14.1832 1.07781 12.9935 1.95498 12.1163C2.83216 11.2391 4.02186 10.7463 5.26237 10.7463V20.1244C4.64616 20.1244 4.03602 20.0027 3.46701 19.7662C2.89799 19.5296 2.38133 19.183 1.94669 18.7462C1.51205 18.3094 1.16801 17.791 0.934327 17.2208C0.700648 16.6506 0.581938 16.0399 0.585019 15.4237V15.4237Z" stroke="white" stroke-linecap="round" stroke-linejoin="round"/>
<path d="M26.4157 15.4178C26.4157 14.1773 25.9229 12.9876 25.0457 12.1105C24.1686 11.2333 22.9789 10.7405 21.7384 10.7405V20.1244C22.3551 20.1244 22.9657 20.0025 23.5351 19.7656C24.1045 19.5287 24.6214 19.1816 25.0561 18.7441C25.4908 18.3067 25.8348 17.7876 26.0681 17.2168C26.3014 16.6459 26.4196 16.0345 26.4157 15.4178V15.4178Z" stroke="white" stroke-linecap="round" stroke-linejoin="round"/>
<path d="M3.40897 10.7171C3.47253 8.07123 4.56824 5.5551 6.46204 3.70624C8.35584 1.85738 10.8976 0.822403 13.5442 0.822403C16.1909 0.822403 18.7326 1.85738 20.6264 3.70624C22.5202 5.5551 23.6159 8.07123 23.6794 10.7171" stroke="white" stroke-linecap="round" stroke-linejoin="round"/>
<path d="M14.6409 26.3863C16.0552 26.3863 17.2018 25.2398 17.2018 23.8255C17.2018 22.4112 16.0552 21.2646 14.6409 21.2646C13.2266 21.2646 12.0801 22.4112 12.0801 23.8255C12.0801 25.2398 13.2266 26.3863 14.6409 26.3863Z" stroke="white" stroke-linecap="round" stroke-linejoin="round"/>
<path d="M24.065 19.4873C24.065 19.4873 22.8956 25.8427 16.207 25.8427" stroke="white" stroke-linecap="round" stroke-linejoin="round"/>
</g>
<defs>
<clipPath id="clip0_1357_228">
<rect width="27" height="26.9708" fill="white"/>
</clipPath>
</defs>
</svg>
