<svg xmlns="http://www.w3.org/2000/svg"
    xmlns:xlink="http://www.w3.org/1999/xlink" viewBox="0 0 609.62 120.11">
    <defs>
        <style>.cls-1{isolation:isolate;}.cls-2{fill:none;}.cls-3{fill:#009e99;}.cls-4,.cls-5,.cls-6,.cls-7,.cls-8{mix-blend-mode:multiply;}.cls-4{fill:url(#linear-gradient);}.cls-5{fill:url(#linear-gradient-2);}.cls-6{fill:url(#linear-gradient-3);}.cls-7{fill:url(#linear-gradient-4);}.cls-8{fill:url(#linear-gradient-5);}.cls-9{fill:#552b71;}</style>
        <linearGradient id="linear-gradient" x1="62.23" y1="59.59" x2="110.19" y2="59.59" gradientUnits="userSpaceOnUse">
            <stop offset="0" stop-color="#002442"/>
            <stop offset="0.08" stop-color="#576f83" stop-opacity="0.66"/>
            <stop offset="0.18" stop-color="#b4bec7" stop-opacity="0.3"/>
            <stop offset="0.27" stop-color="#eceef1" stop-opacity="0.08"/>
            <stop offset="0.35" stop-color="#fff" stop-opacity="0"/>
        </linearGradient>
        <linearGradient id="linear-gradient-2" x1="62.3" y1="87.85" x2="110" y2="87.85" xlink:href="#linear-gradient"/>
        <linearGradient id="linear-gradient-3" x1="61.48" y1="104.5" x2="104.27" y2="93.04" gradientUnits="userSpaceOnUse">
            <stop offset="0.08" stop-color="#002442"/>
            <stop offset="0.14" stop-color="#576f83" stop-opacity="0.66"/>
            <stop offset="0.22" stop-color="#b4bec7" stop-opacity="0.3"/>
            <stop offset="0.29" stop-color="#eceef1" stop-opacity="0.08"/>
            <stop offset="0.35" stop-color="#fff" stop-opacity="0"/>
        </linearGradient>
        <linearGradient id="linear-gradient-4" x1="61.67" y1="73.72" x2="111.82" y2="73.72" xlink:href="#linear-gradient"/>
        <linearGradient id="linear-gradient-5" x1="72.48" y1="124.27" x2="90.05" y2="109.53" gradientUnits="userSpaceOnUse">
            <stop offset="0.19" stop-color="#002442"/>
            <stop offset="0.42" stop-color="#768a9a" stop-opacity="0.54"/>
            <stop offset="0.71" stop-color="#fff" stop-opacity="0"/>
        </linearGradient>
    </defs>
    <g class="cls-1">
        <g id="Layer_2" data-name="Layer 2">
            <g id="Layer_1-2" data-name="Layer 1">
                <path class="cls-2" d="M64.52,63.58v6.14H88.94a18.13,18.13,0,1,1,0,36.26H66.61a31.13,31.13,0,0,0,2,4.29c.34.59.74,1.22,1.17,1.85H88.94a24.27,24.27,0,0,0,0-48.54H64.52Z"/>
                <path class="cls-2" d="M74.49,98H88.94a10.14,10.14,0,0,0,0-20.28H64.51v6.15H88.94a4,4,0,1,1,0,8H64.51v3.33A27,27,0,0,0,64.68,98h9.81Z"/>
                <path class="cls-3" d="M88.94,55.59H64.52v8H88.94a24.27,24.27,0,0,1,0,48.54H69.8a21.71,21.71,0,0,0,9,7.85s.69.1,1.65.14h8.44a32.26,32.26,0,1,0,0-64.52Z"/>
                <path class="cls-3" d="M74.49,91.85H88.94a4,4,0,1,0,0-8H64.51v8h10Z"/>
                <path class="cls-3" d="M77.07,106H88.94a18.13,18.13,0,1,0,0-36.26H64.51v8H88.94a10.14,10.14,0,0,1,0,20.28H64.68a32,32,0,0,0,1.93,8H77.07Z"/>
                <polygon class="cls-4" points="71.71 63.58 74.49 63.58 74.49 55.59 71.71 55.59 64.52 55.59 64.52 63.58 71.71 63.58"/>
                <polygon class="cls-5" points="74.49 91.85 74.49 83.86 71.7 83.86 64.51 83.86 64.51 91.85 71.7 91.85 74.49 91.85"/>
                <path class="cls-6" d="M77.07,106a25.18,25.18,0,0,1-2.58-8H64.68a32,32,0,0,0,1.93,8H77.07Z"/>
                <polygon class="cls-7" points="74.49 77.71 74.49 69.72 71.7 69.72 64.51 69.72 64.51 77.71 71.7 77.71 74.49 77.71"/>
                <path class="cls-8" d="M80.35,112.12H69.8a21.71,21.71,0,0,0,9,7.85,14.48,14.48,0,0,0,1.65.14h8.44a32.46,32.46,0,0,0,6.43-.64l-8.09-3.1C86.48,116,81,112.61,80.35,112.12Z"/>
                <path class="cls-9" d="M54.5,110.27a31.47,31.47,0,0,1-4.11-15.09V32.26a18.13,18.13,0,0,0-36.26,0V95.18A25,25,0,0,0,36.46,120a22.78,22.78,0,0,1-10.22-9.7,31.38,31.38,0,0,1-4.12-15.09V32.26a10.14,10.14,0,0,1,20.28,0V95.18A25,25,0,0,0,64.73,120,22.86,22.86,0,0,1,54.5,110.27Z"/>
                <path class="cls-9" d="M32.26,28.26a4,4,0,0,0-4,4V95.18A25,25,0,0,0,50.6,120a22.81,22.81,0,0,1-10.23-9.7,31.47,31.47,0,0,1-4.11-15.09V32.26A4,4,0,0,0,32.26,28.26Z"/>
                <path class="cls-9" d="M78.85,120a21.71,21.71,0,0,1-9-7.85c-.43-.63-.83-1.26-1.17-1.85a31.13,31.13,0,0,1-2-4.29,32,32,0,0,1-1.93-8,27,27,0,0,1-.17-2.81V32.26A32.26,32.26,0,0,0,0,32.26V95.18A25,25,0,0,0,22.33,120a22.78,22.78,0,0,1-10.22-9.7A31.38,31.38,0,0,1,8,95.18V32.26a24.27,24.27,0,0,1,48.54,0V95.58A25,25,0,0,0,75,119.23l.17,0A23.8,23.8,0,0,0,78.85,120Z"/>
                <path class="cls-9" d="M198.88,83.93v7.93h-30V40h8.5V83.93Z"/>
                <path class="cls-9" d="M254.54,51.87v40h-6.62l-.8-4.86a20.09,20.09,0,0,1-14.5,5.86c-11.91,0-20.81-9-20.81-21s8.9-20.94,20.81-20.94a20.11,20.11,0,0,1,14.62,6l1-5Zm-8.23,20a13.07,13.07,0,1,0-26.14,0,13.07,13.07,0,1,0,26.14,0Z"/>
                <path class="cls-9" d="M310.78,51.89l-18.37,40.7c-4.51,10-8.49,13.61-16.64,13.61h-4.06V98.79h3.43c5.28,0,6.91-1.54,9.84-7.94l.9-1.88L268.47,51.89h8.94l12.7,27.87L302,51.89Z"/>
                <path class="cls-9" d="M361.06,72c0,.9-.08,1.8-.17,2.7H328.44c1,6.48,5.69,10.46,12.24,10.46a12,12,0,0,0,10.75-5.85h8.65a20.21,20.21,0,0,1-19.4,13.56c-11.69,0-20.54-9-20.54-21s8.83-21,20.54-21c12.23,0,20.38,9.43,20.38,21.06Zm-32.41-4h24.17c-1.48-6.07-6.05-9.66-12.14-9.66A11.79,11.79,0,0,0,328.65,68Z"/>
                <path class="cls-9" d="M399.77,51.67v7.76h-4.34c-6.8,0-10.19,3.87-10.19,11.12V91.86H377v-40h5.56L384,57.34c2.86-3.79,6.78-5.67,12.24-5.67Z"/>
                <path class="cls-9" d="M412.57,79.17h8c.21,4.23,3.76,6.44,8.58,6.44,4.41,0,7.81-1.87,7.81-5.21,0-3.8-4.3-4.66-9.19-5.49-6.66-1.14-14.51-2.65-14.51-11.92,0-7.17,6.2-12.08,15.5-12.08S444.1,56,444.26,63.72h-7.78c-.16-3.8-3.06-5.84-7.88-5.84-4.55,0-7.36,1.93-7.36,4.85,0,3.53,4.08,4.22,8.9,5,6.76,1.13,15,2.43,15,12.29,0,7.76-6.48,12.8-16.22,12.8S412.78,87.46,412.57,79.17Z"/>
                <path class="cls-9" d="M497.51,67.77V91.86H489.3V69.46c0-7.24-3.1-11.11-9.17-11.11s-10.74,5-10.74,12.11v21.4h-8.22V37.56h8.22V56.43a17.15,17.15,0,0,1,13-5.45C491.7,51,497.51,57.47,497.51,67.77Z"/>
                <path class="cls-9" d="M515.8,37.22h8.49v8.47H515.8Zm.13,14.67h8.22v40h-8.22Z"/>
                <path class="cls-9" d="M568.21,59.1H556.9V91.86h-8.21V59.1h-7.48V52.27h7.5V48.89c0-8.17,4-12.68,12.76-12.68h6.67v6.55h-5.09c-4.46,0-6.39,1.86-6.39,6.32v3.19h11.55Z"/>
                <path class="cls-9" d="M609.62,84.4v7.46h-6.1c-8.76,0-14.17-5.4-14.17-14.23V58.93H582.2V57.34l13.91-14.79h1.4v9.34H609.4v7H597.57V77c0,4.77,2.65,7.42,7.49,7.42Z"/>
            </g>
        </g>
    </g>
</svg>