<svg width="151" height="58" viewBox="0 0 151 58" fill="none" xmlns="http://www.w3.org/2000/svg">
<path d="M68.6378 48.479V49.9844H62.9344V40.1475H64.5481V48.479H68.6378Z" fill="#552B71"/>
<path d="M79.2033 42.3906V49.9798H77.9354L77.7832 49.0576C77.4219 49.4174 76.9922 49.701 76.5194 49.8919C76.0467 50.0828 75.5404 50.1769 75.0307 50.1688C72.7714 50.1688 71.0816 48.4606 71.0816 46.1852C71.0816 43.9098 72.7714 42.2108 75.0307 42.2108C75.5441 42.2027 76.0539 42.2986 76.5294 42.4927C77.0048 42.6869 77.436 42.9752 77.7971 43.3404L77.9815 42.3906H79.2033ZM77.638 46.1852C77.6362 45.6945 77.4888 45.2153 77.2147 44.8084C76.9405 44.4014 76.5518 44.085 76.0977 43.899C75.6436 43.713 75.1445 43.6658 74.6636 43.7635C74.1828 43.8612 73.7417 44.0993 73.3961 44.4478C73.0506 44.7962 72.8162 45.2393 72.7225 45.721C72.6289 46.2026 72.6802 46.7013 72.87 47.1538C73.0597 47.6063 73.3795 47.9924 73.7887 48.2631C74.1979 48.5339 74.6783 48.6772 75.169 48.675C75.4972 48.683 75.8235 48.6239 76.1281 48.5013C76.4327 48.3788 76.709 48.1953 76.9401 47.9622C77.1713 47.7291 77.3524 47.4513 77.4724 47.1457C77.5924 46.8402 77.6488 46.5133 77.638 46.1852Z" fill="#552B71"/>
<path d="M89.8775 42.3952L86.3918 50.1204C85.5342 52.0292 84.7781 52.7047 83.2312 52.7047H82.4612V51.2984H83.1113C84.1165 51.2984 84.4254 51.0056 84.981 49.7907L85.1493 49.4334L81.8549 42.3952H83.5516L85.963 47.6859L88.2269 42.3952H89.8775Z" fill="#552B71"/>
<path d="M99.4215 46.2083C99.42 46.3794 99.4092 46.5502 99.3893 46.7201H93.2294C93.2915 47.2845 93.5665 47.804 93.9982 48.1728C94.4299 48.5415 94.986 48.7319 95.5532 48.705C95.9617 48.7201 96.3668 48.625 96.7258 48.4294C97.0848 48.2339 97.3845 47.9452 97.5934 47.5938H99.2371C98.9714 48.3565 98.4719 49.016 97.8096 49.4783C97.1474 49.9407 96.3561 50.1823 95.5486 50.1689C93.3285 50.1689 91.6502 48.456 91.6502 46.1899C91.6502 43.9237 93.3262 42.2108 95.5486 42.2108C97.87 42.2108 99.4169 43.9998 99.4169 46.2083H99.4215ZM93.2686 45.4522H97.8562C97.7533 44.9221 97.4645 44.4462 97.0419 44.1102C96.6192 43.7742 96.0905 43.6002 95.5509 43.6194C95.0139 43.6005 94.4881 43.7752 94.0691 44.1116C93.6502 44.4481 93.3661 44.9238 93.2686 45.4522Z" fill="#552B71"/>
<path d="M106.769 42.3537V43.8268H105.946C104.655 43.8268 104.011 44.5622 104.011 45.9362V49.9844H102.451V42.3952H103.507L103.769 43.4303C104.313 42.711 105.058 42.3537 106.093 42.3537H106.769Z" fill="#552B71"/>
<path d="M109.198 47.5754H110.722C110.763 48.3776 111.437 48.7972 112.352 48.7972C113.189 48.7972 113.834 48.4422 113.834 47.8082C113.834 47.0867 113.018 46.923 112.089 46.7662C110.826 46.5495 109.336 46.2613 109.336 44.5024C109.336 43.1422 110.512 42.2108 112.278 42.2108C114.044 42.2108 115.185 43.1699 115.215 44.643H113.737C113.707 43.9191 113.156 43.5318 112.241 43.5318C111.379 43.5318 110.844 43.9007 110.844 44.4539C110.844 45.1225 111.619 45.2562 112.534 45.4061C113.818 45.6205 115.374 45.8671 115.374 47.7391C115.374 49.2122 114.145 50.1689 112.296 50.1689C110.448 50.1689 109.24 49.1476 109.198 47.5754Z" fill="#552B71"/>
<path d="M125.324 45.413V49.9868H123.763V45.7311C123.763 44.3479 123.175 43.6218 122.023 43.6218C120.87 43.6218 119.985 44.5762 119.985 45.9271V49.9914H118.424V39.675H119.985V43.2575C120.299 42.9201 120.681 42.6534 121.106 42.4749C121.531 42.2965 121.989 42.2104 122.449 42.2224C124.22 42.2224 125.324 43.4558 125.324 45.413Z" fill="#552B71"/>
<path d="M128.793 39.6105H130.407V41.2242H128.793V39.6105ZM128.818 42.3953H130.379V49.9845H128.818V42.3953Z" fill="#552B71"/>
<path d="M138.743 43.7645H136.597V49.989H135.036V43.7645H133.618V42.4666H135.04V41.8258C135.04 40.2766 135.808 39.4213 137.463 39.4213H138.729V40.6616H137.763C136.917 40.6616 136.55 41.0143 136.55 41.8626V42.4666H138.743V43.7645Z" fill="#552B71"/>
<path d="M146.604 48.5667V49.9845H145.451C143.789 49.9845 142.763 48.9586 142.763 47.2826V43.7324H141.405V43.4304L144.045 40.6248H144.31V42.3953H146.567V43.7324H144.322V47.1582C144.322 48.0642 144.826 48.5667 145.744 48.5667H146.604Z" fill="#552B71"/>
<path d="M43.8472 26.0573H33.7037V29.3724H43.8472C46.4912 29.4124 49.0133 30.4908 50.8689 32.3746C52.7245 34.2585 53.7646 36.7967 53.7646 39.4409C53.7646 42.0852 52.7245 44.6234 50.8689 46.5072C49.0133 48.3911 46.4912 49.4695 43.8472 49.5095H35.9053C36.831 50.925 38.1342 52.0533 39.6676 52.767C39.6676 52.767 39.9535 52.8062 40.3592 52.8246H43.8634C47.3825 52.7784 50.7418 51.348 53.2141 48.8431C55.6863 46.3382 57.0725 42.9604 57.0725 39.4409C57.0725 35.9215 55.6863 32.5437 53.2141 30.0387C50.7418 27.5338 47.3825 26.1035 43.8634 26.0573H43.8472Z" fill="#009E99"/>
<path d="M37.849 41.0974H43.8429C44.2825 41.0974 44.7041 40.9228 45.0149 40.6119C45.3258 40.3011 45.5004 39.8795 45.5004 39.4399C45.5004 39.0003 45.3258 38.5786 45.0149 38.2678C44.7041 37.957 44.2825 37.7823 43.8429 37.7823H33.6994V41.0974H37.8375H37.849Z" fill="#009E99"/>
<path d="M38.9207 46.9597H43.8472C45.8416 46.9597 47.7544 46.1674 49.1647 44.7572C50.575 43.3469 51.3672 41.4341 51.3672 39.4397C51.3672 37.4453 50.575 35.5325 49.1647 34.1222C47.7544 32.712 45.8416 31.9197 43.8472 31.9197H33.7037V35.2347H43.8472C44.9624 35.2347 46.032 35.6778 46.8206 36.4663C47.6091 37.2549 48.0522 38.3245 48.0522 39.4397C48.0522 40.5549 47.6091 41.6245 46.8206 42.413C46.032 43.2016 44.9624 43.6446 43.8472 43.6446H33.7798C33.9053 44.7807 34.1797 45.8953 34.5959 46.9597H38.9322H38.9207Z" fill="#009E99"/>
<path style="mix-blend-mode:multiply" d="M36.6966 29.3724H37.8515L37.8539 26.0573H36.6966H33.7135V29.3724H36.6966Z" fill="url(#paint0_linear_1357_3389)"/>
<path style="mix-blend-mode:multiply" d="M37.8494 41.0974L37.8517 37.7823H36.6967H33.7113V41.0974H36.6944H37.8494Z" fill="url(#paint1_linear_1357_3389)"/>
<path style="mix-blend-mode:multiply" d="M38.9205 46.9599C38.3802 45.9237 38.0185 44.8037 37.8508 43.6471H33.7796C33.9054 44.7824 34.1798 45.8962 34.5957 46.9599H38.932H38.9205Z" fill="url(#paint2_linear_1357_3389)"/>
<path style="mix-blend-mode:multiply" d="M37.8515 35.2347V31.9197H36.6966H33.7135V35.2347H36.6966H37.8515Z" fill="url(#paint3_linear_1357_3389)"/>
<path style="mix-blend-mode:multiply" d="M40.2828 49.5095H35.9026C36.829 50.9253 38.133 52.0537 39.6672 52.767C39.8965 52.7987 40.1274 52.8179 40.3588 52.8246H43.863C44.7588 52.8242 45.6524 52.7338 46.5302 52.5549L43.1714 51.2708C42.8232 51.1233 40.5617 49.7101 40.2828 49.5095Z" fill="url(#paint4_linear_1357_3389)"/>
<path d="M29.5603 48.7395C28.4715 46.8309 27.8838 44.6776 27.852 42.4805V16.3794C27.852 14.385 27.0597 12.4722 25.6494 11.0619C24.2392 9.65166 22.3264 8.85938 20.332 8.85938C18.3375 8.85938 16.4248 9.65166 15.0145 11.0619C13.6042 12.4722 12.812 14.385 12.812 16.3794V42.4805C12.8188 45.0347 13.7677 47.4965 15.4769 49.3945C17.186 51.2926 19.5353 52.4934 22.0748 52.7669C19.9562 51.8218 18.6168 50.1043 17.833 48.7395C16.7459 46.8303 16.1591 44.6773 16.127 42.4805V16.3794C16.127 15.8272 16.2358 15.2804 16.4471 14.7702C16.6584 14.2601 16.9682 13.7965 17.3586 13.4061C17.7491 13.0156 18.2126 12.7059 18.7228 12.4945C19.233 12.2832 19.7798 12.1745 20.332 12.1745C20.8842 12.1745 21.431 12.2832 21.9411 12.4945C22.4513 12.7059 22.9149 13.0156 23.3053 13.4061C23.6958 13.7965 24.0055 14.2601 24.2168 14.7702C24.4282 15.2804 24.5369 15.8272 24.5369 16.3794V42.4805C24.5439 45.035 25.4931 47.4972 27.2027 49.3952C28.9124 51.2933 31.2622 52.4939 33.8021 52.7669C31.6812 51.8218 30.3395 50.1043 29.5603 48.7395Z" fill="#552B71"/>
<path d="M20.3332 14.722C19.8936 14.722 19.472 14.8967 19.1612 15.2075C18.8503 15.5184 18.6757 15.94 18.6757 16.3796V42.4807C18.6826 45.0348 19.6315 47.4967 21.3406 49.3947C23.0498 51.2927 25.3991 52.4935 27.9386 52.7671C25.82 51.8219 24.4806 50.1044 23.6967 48.7397C22.6097 46.8305 22.0229 44.6774 21.9908 42.4807V16.3796C21.9902 15.9402 21.8153 15.5189 21.5046 15.2082C21.1939 14.8975 20.7727 14.7226 20.3332 14.722Z" fill="#552B71"/>
<path d="M39.6675 52.7671C38.1366 52.0524 36.8359 50.9241 35.9121 49.5096C35.7323 49.2468 35.5663 48.9863 35.4257 48.7397C35.1018 48.1689 34.8228 47.5739 34.5911 46.9599C34.1791 45.8956 33.9086 44.7819 33.7866 43.6472C33.7432 43.2598 33.7201 42.8704 33.7174 42.4806V16.3795C33.7174 12.8303 32.3075 9.42638 29.7977 6.91668C27.288 4.40697 23.8841 2.99702 20.3349 2.99702C16.7856 2.99702 13.3817 4.40697 10.872 6.91668C8.36229 9.42638 6.95235 12.8303 6.95235 16.3795V42.4806C6.95923 45.0348 7.90812 47.4967 9.61729 49.3947C11.3265 51.2927 13.6757 52.4935 16.2152 52.7671C14.0943 51.8219 12.7572 50.1044 11.9734 48.7397C10.8846 46.831 10.2969 44.6778 10.2651 42.4806V16.3795C10.2449 15.0445 10.4904 13.7188 10.9874 12.4795C11.4843 11.2402 12.2227 10.1121 13.1597 9.16088C14.0966 8.20963 15.2134 7.45423 16.445 6.9386C17.6767 6.42298 18.9985 6.15744 20.3337 6.15744C21.6689 6.15744 22.9908 6.42298 24.2224 6.9386C25.454 7.45423 26.5708 8.20963 27.5078 9.16088C28.4447 10.1121 29.1832 11.2402 29.6801 12.4795C30.177 13.7188 30.4225 15.0445 30.4023 16.3795V42.6466C30.4428 44.8901 31.2108 47.0598 32.5907 48.8293C33.9705 50.5987 35.8877 51.8722 38.0537 52.4582L38.1229 52.4766C38.6298 52.6119 39.1461 52.709 39.6675 52.7671Z" fill="#552B71"/>
<defs>
<linearGradient id="paint0_linear_1357_3389" x1="32.766" y1="27.7148" x2="52.6634" y2="27.7148" gradientUnits="userSpaceOnUse">
<stop stop-color="#002442"/>
<stop offset="0.08" stop-color="#576F83" stop-opacity="0.66"/>
<stop offset="0.18" stop-color="#B4BEC7" stop-opacity="0.3"/>
<stop offset="0.27" stop-color="#ECEEF1" stop-opacity="0.08"/>
<stop offset="0.35" stop-color="white" stop-opacity="0"/>
</linearGradient>
<linearGradient id="paint1_linear_1357_3389" x1="32.7938" y1="39.4399" x2="52.5828" y2="39.4399" gradientUnits="userSpaceOnUse">
<stop stop-color="#002442"/>
<stop offset="0.08" stop-color="#576F83" stop-opacity="0.66"/>
<stop offset="0.18" stop-color="#B4BEC7" stop-opacity="0.3"/>
<stop offset="0.27" stop-color="#ECEEF1" stop-opacity="0.08"/>
<stop offset="0.35" stop-color="white" stop-opacity="0"/>
</linearGradient>
<linearGradient id="paint2_linear_1357_3389" x1="32.454" y1="46.3467" x2="50.2029" y2="41.5908" gradientUnits="userSpaceOnUse">
<stop offset="0.08" stop-color="#002442"/>
<stop offset="0.14" stop-color="#576F83" stop-opacity="0.66"/>
<stop offset="0.22" stop-color="#B4BEC7" stop-opacity="0.3"/>
<stop offset="0.29" stop-color="#ECEEF1" stop-opacity="0.08"/>
<stop offset="0.35" stop-color="white" stop-opacity="0"/>
</linearGradient>
<linearGradient id="paint3_linear_1357_3389" x1="32.5331" y1="33.5772" x2="53.3388" y2="33.5772" gradientUnits="userSpaceOnUse">
<stop stop-color="#002442"/>
<stop offset="0.08" stop-color="#576F83" stop-opacity="0.66"/>
<stop offset="0.18" stop-color="#B4BEC7" stop-opacity="0.3"/>
<stop offset="0.27" stop-color="#ECEEF1" stop-opacity="0.08"/>
<stop offset="0.35" stop-color="white" stop-opacity="0"/>
</linearGradient>
<linearGradient id="paint4_linear_1357_3389" x1="37.0161" y1="54.5513" x2="44.3056" y2="48.4329" gradientUnits="userSpaceOnUse">
<stop offset="0.19" stop-color="#002442"/>
<stop offset="0.42" stop-color="#768A9A" stop-opacity="0.54"/>
<stop offset="0.71" stop-color="white" stop-opacity="0"/>
</linearGradient>
</defs>
</svg>
