<svg width="31" height="21" viewBox="0 0 31 21" fill="none" xmlns="http://www.w3.org/2000/svg">
<path d="M29.5 3H1.5C1.10218 3 0.720644 2.84196 0.43934 2.56066C0.158035 2.27936 0 1.89782 0 1.5C0 1.10218 0.158035 0.720644 0.43934 0.43934C0.720644 0.158035 1.10218 0 1.5 0L29.5 0C29.8978 0 30.2794 0.158035 30.5607 0.43934C30.842 0.720644 31 1.10218 31 1.5C31 1.89782 30.842 2.27936 30.5607 2.56066C30.2794 2.84196 29.8978 3 29.5 3Z" fill="white"/>
<path d="M29.5 12H1.5C1.10218 12 0.720644 11.842 0.43934 11.5607C0.158035 11.2794 0 10.8978 0 10.5C0 10.1022 0.158035 9.72064 0.43934 9.43934C0.720644 9.15804 1.10218 9 1.5 9H29.5C29.8978 9 30.2794 9.15804 30.5607 9.43934C30.842 9.72064 31 10.1022 31 10.5C31 10.8978 30.842 11.2794 30.5607 11.5607C30.2794 11.842 29.8978 12 29.5 12Z" fill="white"/>
<path d="M29.5 21H1.5C1.10218 21 0.720644 20.842 0.43934 20.5607C0.158035 20.2794 0 19.8978 0 19.5C0 19.1022 0.158035 18.7206 0.43934 18.4393C0.720644 18.158 1.10218 18 1.5 18H29.5C29.8978 18 30.2794 18.158 30.5607 18.4393C30.842 18.7206 31 19.1022 31 19.5C31 19.8978 30.842 20.2794 30.5607 20.5607C30.2794 20.842 29.8978 21 29.5 21Z" fill="white"/>
</svg>
