<svg width="173" height="34" viewBox="0 0 173 34" fill="none" xmlns="http://www.w3.org/2000/svg">
<g clip-path="url(#clip0_307_2613)">
<path d="M25.2396 15.7354H18.3096V17.9999H25.2396C27.0662 17.9999 28.8181 18.7238 30.1097 20.0122C31.4013 21.3006 32.127 23.0481 32.127 24.8701C32.127 26.6922 31.4013 28.4397 30.1097 29.7281C28.8181 31.0165 27.0662 31.7403 25.2396 31.7403H19.8079C20.4343 32.7047 21.3191 33.4745 22.362 33.9625C22.362 33.9625 22.5578 33.9908 22.8302 34.0021H25.2254C27.6534 34.0021 29.982 33.04 31.6988 31.3274C33.4157 29.6148 34.3802 27.2921 34.3802 24.8701C34.3802 22.4482 33.4157 20.1254 31.6988 18.4129C29.982 16.7003 27.6534 15.7382 25.2254 15.7382L25.2396 15.7354Z" fill="#009E99"/>
<path d="M21.1388 25.9999H25.2395C25.5405 25.9999 25.8292 25.8806 26.0421 25.6683C26.255 25.456 26.3746 25.168 26.3746 24.8676C26.3746 24.5673 26.255 24.2793 26.0421 24.067C25.8292 23.8546 25.5405 23.7354 25.2395 23.7354H18.3066V25.9999H21.1445H21.1388Z" fill="#009E99"/>
<path d="M21.871 30.0055H25.2395C25.9151 30.0055 26.5842 29.8727 27.2084 29.6148C27.8326 29.3569 28.3998 28.9789 28.8775 28.5023C29.3553 28.0257 29.7343 27.46 29.9928 26.8373C30.2514 26.2147 30.3845 25.5473 30.3845 24.8733C30.3845 24.1994 30.2514 23.532 29.9928 22.9094C29.7343 22.2867 29.3553 21.7209 28.8775 21.2444C28.3998 20.7678 27.8326 20.3898 27.2084 20.1319C26.5842 19.874 25.9151 19.7412 25.2395 19.7412H18.3066V22.0058H25.2395C26.0026 22.0058 26.7346 22.3082 27.2742 22.8465C27.8139 23.3848 28.117 24.1149 28.117 24.8762C28.117 25.6374 27.8139 26.3675 27.2742 26.9058C26.7346 27.4441 26.0026 27.7465 25.2395 27.7465H18.3549C18.439 28.5218 18.6231 29.2829 18.9026 30.0111H21.871V30.0055Z" fill="#009E99"/>
<path style="mix-blend-mode:multiply" d="M20.35 17.9971H21.1389V15.7354H20.35H18.3096V17.9971H20.35Z" fill="url(#paint0_linear_307_2613)"/>
<path style="mix-blend-mode:multiply" d="M21.1388 26V23.7383H20.347H18.3066V26H20.347H21.1388Z" fill="url(#paint1_linear_307_2613)"/>
<path style="mix-blend-mode:multiply" d="M21.8715 30.0058C21.502 29.2972 21.2545 28.5317 21.1394 27.7412H18.3555C18.4396 28.5164 18.6237 29.2776 18.9032 30.0058H21.8715Z" fill="url(#paint2_linear_307_2613)"/>
<path style="mix-blend-mode:multiply" d="M21.1388 21.9971V19.7354H20.347H18.3066V21.9971H20.347H21.1388Z" fill="url(#paint3_linear_307_2613)"/>
<path style="mix-blend-mode:multiply" d="M22.8015 31.7383H19.8076C20.434 32.7026 21.3188 33.4724 22.3617 33.9604C22.5169 33.9825 22.6732 33.9958 22.8299 34H25.225C25.8378 34.0003 26.4491 33.9397 27.0498 33.8189L24.754 32.9413C24.5411 32.8366 22.986 31.877 22.8015 31.7383Z" fill="url(#paint4_linear_307_2613)"/>
<path d="M15.4661 31.2147C14.7232 29.9114 14.322 28.4422 14.2997 26.9431V9.13213C14.2997 7.771 13.7577 6.46563 12.7928 5.50317C11.8279 4.5407 10.5193 4 9.15476 4C7.79022 4 6.48157 4.5407 5.5167 5.50317C4.55183 6.46563 4.00977 7.771 4.00977 9.13213V26.9431C4.01235 28.6874 4.66061 30.3692 5.83013 31.6659C6.99966 32.9626 8.60805 33.7827 10.3466 33.969C9.11328 33.3825 8.09794 32.4212 7.44638 31.2232C6.70142 29.9206 6.2992 28.4511 6.27719 26.9516V9.13213C6.27719 8.37086 6.58037 7.64077 7.12001 7.10247C7.65966 6.56417 8.39158 6.26176 9.15476 6.26176C9.91793 6.26176 10.6499 6.56417 11.1895 7.10247C11.7291 7.64077 12.0323 8.37086 12.0323 9.13213V26.9431C12.0349 28.6874 12.6832 30.3692 13.8527 31.6659C15.0222 32.9626 16.6306 33.7827 18.3692 33.969C17.1344 33.3795 16.1182 32.4154 15.4661 31.2147Z" fill="#552B71"/>
<path d="M9.15466 7.99902C8.85361 7.99902 8.56488 8.11832 8.352 8.33066C8.13912 8.54301 8.01953 8.83101 8.01953 9.13132V26.9423C8.0222 28.687 8.67085 30.3692 9.84095 31.6659C11.0111 32.9627 12.6201 33.7826 14.3593 33.9682C13.1252 33.3817 12.1089 32.4205 11.4561 31.2224C10.7132 29.9191 10.312 28.4499 10.2898 26.9508V9.13132C10.2898 8.98262 10.2604 8.83538 10.2034 8.69801C10.1463 8.56063 10.0627 8.43581 9.95733 8.33066C9.85192 8.22552 9.72678 8.14212 9.58906 8.08521C9.45134 8.02831 9.30373 7.99902 9.15466 7.99902Z" fill="#552B71"/>
<path d="M22.3763 33.9686C21.3335 33.4806 20.4486 32.7107 19.8223 31.7464C19.7002 31.5681 19.5867 31.3898 19.4902 31.2227C19.2704 30.8329 19.0807 30.4269 18.9227 30.0084C18.6432 29.2802 18.4591 28.519 18.375 27.7438C18.345 27.4796 18.3289 27.2141 18.3267 26.9483V9.13166C18.3267 6.70747 17.3613 4.38256 15.6428 2.66839C13.9244 0.95422 11.5936 -0.00878906 9.16336 -0.00878906C6.73309 -0.00878906 4.40235 0.95422 2.68389 2.66839C0.965423 4.38256 0 6.70747 0 9.13166L0 26.9427C0.00258905 28.6869 0.650847 30.3687 1.82037 31.6654C2.98989 32.9621 4.59828 33.7823 6.33688 33.9686C5.10351 33.382 4.08817 32.4208 3.43662 31.2227C2.69126 29.9174 2.28997 28.4448 2.27027 26.9427V9.13166C2.27027 7.30957 2.9959 5.56211 4.28755 4.2737C5.57919 2.98529 7.33103 2.26146 9.15769 2.26146C10.9843 2.26146 12.7362 2.98529 14.0278 4.2737C15.3195 5.56211 16.0451 7.30957 16.0451 9.13166V27.0559C16.0746 28.5869 16.6012 30.0671 17.5458 31.2742C18.4904 32.4813 19.802 33.3503 21.2838 33.7506H21.332C21.6738 33.8506 22.023 33.9235 22.3763 33.9686Z" fill="#552B71"/>
<path d="M56.4393 23.7577V26.0025H47.9258V11.3223H50.3379V23.7577H56.4393Z" fill="#552B71"/>
<path d="M72.2345 14.6827V26.0056H70.3558L70.1288 24.6299C69.5889 25.1668 68.9466 25.5902 68.2398 25.8751C67.533 26.16 66.7762 26.3007 66.0139 26.2887C62.6341 26.2887 60.1084 23.7411 60.1084 20.3442C60.1084 16.9473 62.6341 14.4166 66.0139 14.4166C66.7846 14.4056 67.5496 14.5504 68.2627 14.8423C68.9757 15.1342 69.6221 15.5671 70.1628 16.115L70.4466 14.6997L72.2345 14.6827ZM69.8989 20.3442C69.8989 19.3629 69.5082 18.4219 68.8126 17.728C68.117 17.0342 67.1736 16.6444 66.1899 16.6444C65.2062 16.6444 64.2628 17.0342 63.5672 17.728C62.8716 18.4219 62.4808 19.3629 62.4808 20.3442C62.4808 21.3254 62.8716 22.2665 63.5672 22.9603C64.2628 23.6541 65.2062 24.0439 66.1899 24.0439C67.1736 24.0439 68.117 23.6541 68.8126 22.9603C69.5082 22.2665 69.8989 21.3254 69.8989 20.3442Z" fill="#552B71"/>
<path d="M88.1944 14.6885L82.9813 26.2096C81.7014 29.0403 80.5719 30.0622 78.2591 30.0622H77.107V27.9646H78.0803C79.5787 27.9646 80.0413 27.5287 80.8728 25.717L81.1282 25.1849L76.1875 14.6885H78.7245L82.3286 22.5777L85.7028 14.6885H88.1944Z" fill="#552B71"/>
<path d="M102.463 20.3808C102.463 20.6355 102.44 20.8903 102.415 21.1451H93.206C93.4898 22.9794 94.8207 24.106 96.6795 24.106C97.2902 24.1284 97.8956 23.9865 98.4324 23.6951C98.9691 23.4038 99.4174 22.9737 99.7302 22.45H102.185C101.788 23.5859 101.043 24.5682 100.054 25.2573C99.0661 25.9464 97.8852 26.3072 96.6795 26.2885C93.3621 26.2885 90.8506 23.7409 90.8506 20.344C90.8506 16.9471 93.3564 14.3994 96.6795 14.3994C100.15 14.3994 102.463 17.0688 102.463 20.3609V20.3808ZM93.2656 19.2485H100.125C99.7046 17.5302 98.4077 16.514 96.6795 16.514C95.876 16.4846 95.0888 16.7447 94.4619 17.2469C93.835 17.749 93.4103 18.4596 93.2656 19.2485Z" fill="#552B71"/>
<path d="M113.448 14.626V16.8226H112.216C110.287 16.8226 109.325 17.9181 109.325 19.9704V26.0027H106.986V14.6798H108.564L108.973 16.231C109.784 15.1582 110.897 14.626 112.446 14.626H113.448Z" fill="#552B71"/>
<path d="M117.08 22.4108H119.35C119.41 23.6082 120.417 24.2338 121.785 24.2338C123.037 24.2338 124.002 23.7044 124.002 22.759C124.002 21.6833 122.781 21.4399 121.394 21.2049C119.504 20.8822 117.276 20.4548 117.276 17.8307C117.276 15.801 119.035 14.4111 121.675 14.4111C124.314 14.4111 126.028 15.852 126.073 18.0373H123.865C123.82 16.9616 122.997 16.3842 121.629 16.3842C120.338 16.3842 119.54 16.9305 119.54 17.7571C119.54 18.7563 120.698 18.9516 122.066 19.1724C123.985 19.4923 126.323 19.8603 126.323 22.6514C126.323 24.8481 124.484 26.2748 121.72 26.2748C118.956 26.2748 117.14 24.7575 117.08 22.4108Z" fill="#552B71"/>
<path d="M141.185 19.1835V26.0027H138.855V19.6619C138.855 17.6124 137.975 16.5169 136.253 16.5169C134.53 16.5169 133.205 17.9323 133.205 19.945V26.0027H130.872V10.6318H133.205V15.9734C133.675 15.4702 134.247 15.0725 134.883 14.8065C135.519 14.5405 136.205 14.4124 136.894 14.4307C139.536 14.4363 141.185 16.2678 141.185 19.1835Z" fill="#552B71"/>
<path d="M146.375 10.5361H148.784V12.9338H146.375V10.5361ZM146.412 14.6888H148.745V26.0118H146.412V14.6888Z" fill="#552B71"/>
<path d="M161.248 16.7296H158.038V26.0031H155.709V16.7296H153.586V14.7962H155.714V13.8394C155.714 11.5267 156.849 10.25 159.335 10.25H161.228V12.1041H159.784C158.518 12.1041 157.97 12.6307 157.97 13.8932V14.7962H161.248V16.7296Z" fill="#552B71"/>
<path d="M173 23.8916V26.0033H171.269C168.783 26.0033 167.248 24.4747 167.248 21.9752V16.6817H165.219V16.2316L169.166 12.0449H169.563V14.6888H172.938V16.6703H169.58V21.7968C169.58 23.1471 170.333 23.8972 171.706 23.8972L173 23.8916Z" fill="#552B71"/>
</g>
<defs>
<linearGradient id="paint0_linear_307_2613" x1="17.6597" y1="16.8676" x2="31.27" y2="16.8676" gradientUnits="userSpaceOnUse">
<stop stop-color="#002442"/>
<stop offset="0.08" stop-color="#576F83" stop-opacity="0.66"/>
<stop offset="0.18" stop-color="#B4BEC7" stop-opacity="0.3"/>
<stop offset="0.27" stop-color="#ECEEF1" stop-opacity="0.08"/>
<stop offset="0.35" stop-color="white" stop-opacity="0"/>
</linearGradient>
<linearGradient id="paint1_linear_307_2613" x1="17.6795" y1="24.8677" x2="31.2159" y2="24.8677" gradientUnits="userSpaceOnUse">
<stop stop-color="#002442"/>
<stop offset="0.08" stop-color="#576F83" stop-opacity="0.66"/>
<stop offset="0.18" stop-color="#B4BEC7" stop-opacity="0.3"/>
<stop offset="0.27" stop-color="#ECEEF1" stop-opacity="0.08"/>
<stop offset="0.35" stop-color="white" stop-opacity="0"/>
</linearGradient>
<linearGradient id="paint2_linear_307_2613" x1="17.4474" y1="29.5812" x2="29.5864" y2="26.322" gradientUnits="userSpaceOnUse">
<stop offset="0.08" stop-color="#002442"/>
<stop offset="0.14" stop-color="#576F83" stop-opacity="0.66"/>
<stop offset="0.22" stop-color="#B4BEC7" stop-opacity="0.3"/>
<stop offset="0.29" stop-color="#ECEEF1" stop-opacity="0.08"/>
<stop offset="0.35" stop-color="white" stop-opacity="0"/>
</linearGradient>
<linearGradient id="paint3_linear_307_2613" x1="17.5007" y1="20.8676" x2="31.7324" y2="20.8676" gradientUnits="userSpaceOnUse">
<stop stop-color="#002442"/>
<stop offset="0.08" stop-color="#576F83" stop-opacity="0.66"/>
<stop offset="0.18" stop-color="#B4BEC7" stop-opacity="0.3"/>
<stop offset="0.27" stop-color="#ECEEF1" stop-opacity="0.08"/>
<stop offset="0.35" stop-color="white" stop-opacity="0"/>
</linearGradient>
<linearGradient id="paint4_linear_307_2613" x1="20.5682" y1="35.1776" x2="25.5439" y2="30.9929" gradientUnits="userSpaceOnUse">
<stop offset="0.19" stop-color="#002442"/>
<stop offset="0.42" stop-color="#768A9A" stop-opacity="0.54"/>
<stop offset="0.71" stop-color="white" stop-opacity="0"/>
</linearGradient>
<clipPath id="clip0_307_2613">
<rect width="173" height="34" fill="white"/>
</clipPath>
</defs>
</svg>
