<svg width="18" height="18" viewBox="0 0 18 18" fill="none" xmlns="http://www.w3.org/2000/svg">
<path d="M7.68295 14.8015C9.30351 14.8012 10.8774 14.2716 12.1539 13.297L16.1675 17.2152L17.4585 15.9549L13.4449 12.0367C14.4438 10.7903 14.9866 9.25348 14.987 7.67101C14.987 3.73944 11.7102 0.540527 7.68295 0.540527C3.65568 0.540527 0.378906 3.73944 0.378906 7.67101C0.378906 11.6026 3.65568 14.8015 7.68295 14.8015ZM7.68295 2.32315C10.7041 2.32315 13.161 4.72167 13.161 7.67101C13.161 10.6204 10.7041 13.0189 7.68295 13.0189C4.66181 13.0189 2.20492 10.6204 2.20492 7.67101C2.20492 4.72167 4.66181 2.32315 7.68295 2.32315Z" fill="white"/>
</svg>
