<svg width="29" height="28" viewBox="0 0 29 28" fill="none" xmlns="http://www.w3.org/2000/svg">
<path d="M12.4018 23.947C15.1534 23.9464 17.8257 23.0571 19.9932 21.4206L26.808 28L29 25.8837L22.1852 19.3043C23.8812 17.2114 24.8029 14.6308 24.8035 11.9735C24.8035 5.37161 19.2398 0 12.4018 0C5.56375 0 0 5.37161 0 11.9735C0 18.5754 5.56375 23.947 12.4018 23.947ZM12.4018 2.99337C17.5315 2.99337 21.7031 7.02095 21.7031 11.9735C21.7031 16.926 17.5315 20.9536 12.4018 20.9536C7.27209 20.9536 3.10044 16.926 3.10044 11.9735C3.10044 7.02095 7.27209 2.99337 12.4018 2.99337Z" fill="white"/>
</svg>
