<svg width="25" height="25" viewBox="0 0 25 25" fill="none" xmlns="http://www.w3.org/2000/svg">
<path d="M23.1021 3.26167L3.30307 23.0607C3.02177 23.342 2.64024 23.5 2.24241 23.5C1.84459 23.5 1.46306 23.342 1.18175 23.0607C0.900449 22.7794 0.742414 22.3978 0.742414 22C0.742414 21.6022 0.900449 21.2206 1.18175 20.9393L20.9807 1.14035C21.262 0.859045 21.6436 0.701011 22.0414 0.701011C22.4392 0.70101 22.8208 0.859046 23.1021 1.14035C23.3834 1.42165 23.5414 1.80319 23.5414 2.20101C23.5414 2.59884 23.3834 2.98037 23.1021 3.26167Z" fill="#552B71"/>
<path d="M20.8594 22.981L1.06043 3.18198C0.779129 2.90068 0.621094 2.51914 0.621094 2.12132C0.621094 1.7235 0.779129 1.34196 1.06043 1.06066C1.34174 0.779356 1.72327 0.621321 2.12109 0.621321C2.51892 0.621321 2.90045 0.779356 3.18175 1.06066L22.9807 20.8596C23.262 21.141 23.4201 21.5225 23.4201 21.9203C23.4201 22.3181 23.262 22.6997 22.9807 22.981C22.6994 23.2623 22.3179 23.4203 21.9201 23.4203C21.5223 23.4203 21.1407 23.2623 20.8594 22.981Z" fill="#552B71"/>
</svg>
