<svg width="25" height="24" viewBox="0 0 25 24" fill="none" xmlns="http://www.w3.org/2000/svg">
<path d="M23.9451 3.24542L4.27966 22.945C4.00025 23.2249 3.6213 23.3821 3.22616 23.3821C2.83101 23.3821 2.45206 23.2249 2.17265 22.945C1.89324 22.6651 1.73627 22.2855 1.73627 21.8896C1.73627 21.4938 1.89324 21.1142 2.17265 20.8343L21.8381 1.13475C22.1175 0.854859 22.4965 0.697618 22.8916 0.697618C23.2868 0.697618 23.6657 0.854859 23.9451 1.13475C24.2245 1.41464 24.3815 1.79426 24.3815 2.19009C24.3815 2.58591 24.2245 2.96553 23.9451 3.24542Z" fill="white"/>
<path d="M21.7174 22.8656L2.05196 3.166C1.77255 2.88611 1.61558 2.50649 1.61559 2.11067C1.61559 1.71484 1.77255 1.33523 2.05196 1.05533C2.33137 0.775442 2.71033 0.618201 3.10547 0.618201C3.50061 0.618201 3.87957 0.775442 4.15898 1.05533L23.8244 20.7549C24.1039 21.0348 24.2608 21.4144 24.2608 21.8102C24.2608 22.2061 24.1039 22.5857 23.8244 22.8656C23.545 23.1455 23.1661 23.3027 22.7709 23.3027C22.3758 23.3027 21.9968 23.1455 21.7174 22.8656Z" fill="white"/>
</svg>
