<svg width="81" height="62" viewBox="0 0 81 62" fill="none" xmlns="http://www.w3.org/2000/svg">
<g clip-path="url(#clip0_1_7521)">
<path d="M59.0586 42.6085H68.9969C74.937 42.6085 79.849 37.8108 79.849 31.7564C79.849 25.7021 75.0512 20.9043 68.9969 20.9043C68.5399 20.9043 68.083 20.9043 67.6261 21.0185" stroke="#552B71" stroke-width="1.515" stroke-miterlimit="10" stroke-linecap="round" stroke-linejoin="round"/>
<path d="M21.476 13.9373C19.6483 13.1376 17.7063 12.7949 15.7643 12.7949C7.53957 12.7949 0.914062 19.4204 0.914062 27.6452C0.914062 35.87 7.53957 42.4955 15.7643 42.4955H21.2475" stroke="#552B71" stroke-width="1.515" stroke-miterlimit="10" stroke-linecap="round" stroke-linejoin="round"/>
<path d="M46.9502 16.3365C48.6637 12.6811 52.4334 10.168 56.7742 10.168C62.8286 10.168 67.6264 15.08 67.6264 21.0201" stroke="#552B71" stroke-width="1.515" stroke-miterlimit="10" stroke-linecap="round" stroke-linejoin="round"/>
<path d="M22.2754 19.7625C21.7042 18.2775 21.4758 16.6782 21.4758 14.9647C21.4758 7.19687 27.7586 0.914062 35.5264 0.914062C42.6089 0.914062 48.4347 6.16878 49.4628 12.9085" stroke="#552B71" stroke-width="1.515" stroke-miterlimit="10" stroke-linecap="round" stroke-linejoin="round"/>
<path d="M25.7021 15.6501C25.7021 15.3074 25.7021 15.0789 25.7021 14.7362C25.7021 9.36724 30.043 5.14062 35.2977 5.14062C35.8689 5.14062 36.44 5.14062 37.0112 5.25486" stroke="#552B71" stroke-width="1.515" stroke-miterlimit="10" stroke-linecap="round" stroke-linejoin="round"/>
<path d="M29.5859 53.4598V34.8398" stroke="#009D98" stroke-width="1.515" stroke-miterlimit="10" stroke-linecap="round" stroke-linejoin="round"/>
<path d="M25.5879 38.838L29.586 34.8398L33.5842 38.838" stroke="#009D98" stroke-width="1.515" stroke-miterlimit="10" stroke-linecap="round" stroke-linejoin="round"/>
<path d="M40.667 53.4618V34.8418" stroke="#009D98" stroke-width="1.515" stroke-miterlimit="10" stroke-linecap="round" stroke-linejoin="round"/>
<path d="M36.6689 38.8399L40.6671 34.8418L44.551 38.8399" stroke="#009D98" stroke-width="1.515" stroke-miterlimit="10" stroke-linecap="round" stroke-linejoin="round"/>
<path d="M51.6328 53.4598V34.8398" stroke="#009D98" stroke-width="1.515" stroke-miterlimit="10" stroke-linecap="round" stroke-linejoin="round"/>
<path d="M29.5859 61.0012V57.5742" stroke="#009D98" stroke-width="1.515" stroke-miterlimit="10" stroke-linecap="round" stroke-linejoin="round"/>
<path d="M40.667 61.0012V57.5742" stroke="#009D98" stroke-width="1.515" stroke-miterlimit="10" stroke-linecap="round" stroke-linejoin="round"/>
<path d="M29.5859 61.0012V57.5742" stroke="#009D98" stroke-width="1.515" stroke-miterlimit="10" stroke-linecap="round" stroke-linejoin="round"/>
<path d="M40.667 61.0012V57.5742" stroke="#009D98" stroke-width="1.515" stroke-miterlimit="10" stroke-linecap="round" stroke-linejoin="round"/>
<path d="M51.6328 61.0012V57.5742" stroke="#009D98" stroke-width="1.515" stroke-miterlimit="10" stroke-linecap="round" stroke-linejoin="round"/>
<path d="M47.6348 38.838L51.6329 34.8398L55.6311 38.838" stroke="#009D98" stroke-width="1.515" stroke-miterlimit="10" stroke-linecap="round" stroke-linejoin="round"/>
</g>
<defs>
<clipPath id="clip0_1_7521">
<rect width="80.6484" height="61.8" fill="white"/>
</clipPath>
</defs>
</svg>
