<svg width="20" height="20" viewBox="0 0 20 20" fill="none" xmlns="http://www.w3.org/2000/svg">
<path d="M7.10447 19.7276C6.48221 19.7276 5.89285 19.4508 5.51521 18.9735L0.404109 12.5351C0.246089 12.3363 0.130724 12.1097 0.06461 11.8684C-0.00150434 11.627 -0.0170714 11.3756 0.0187984 11.1285C0.0546683 10.8814 0.141272 10.6434 0.273658 10.4282C0.406044 10.2131 0.581617 10.0249 0.790339 9.87444C0.998986 9.72336 1.23685 9.61303 1.49031 9.54976C1.74377 9.4865 2.00783 9.47154 2.26736 9.50574C2.5269 9.53995 2.7768 9.62265 3.00274 9.7491C3.22869 9.87556 3.42623 10.0433 3.58406 10.2427L6.94712 14.4758L15.4027 1.53093C15.6831 1.10353 16.1299 0.799607 16.645 0.685838C17.1602 0.572069 17.7016 0.657739 18.1506 0.924056C19.0847 1.47774 19.3722 2.65058 18.7886 3.54248L8.79815 18.8303C8.62761 19.0924 8.39254 19.3109 8.11335 19.4668C7.83415 19.6227 7.51927 19.7113 7.19602 19.7249C7.16455 19.7276 7.13594 19.7276 7.10447 19.7276Z" fill="#9D64A9"/>
</svg>
