<svg width="45" height="29" viewBox="0 0 45 29" fill="none" xmlns="http://www.w3.org/2000/svg">
<path fill-rule="evenodd" clip-rule="evenodd" d="M0 14.5C0 14.0728 0.169312 13.663 0.470692 13.3609C0.772068 13.0588 1.18083 12.8891 1.60704 12.8891H39.5107L29.396 2.75343C29.2466 2.60365 29.128 2.42585 29.0472 2.23016C28.9663 2.03447 28.9247 1.82473 28.9247 1.61292C28.9247 1.40111 28.9663 1.19137 29.0472 0.995682C29.128 0.799994 29.2466 0.622186 29.396 0.472413C29.5454 0.322639 29.7228 0.203833 29.918 0.122776C30.1132 0.0417195 30.3225 0 30.5338 0C30.7451 0 30.9543 0.0417195 31.1495 0.122776C31.3448 0.203833 31.5221 0.322639 31.6715 0.472413L44.5279 13.3595C44.6775 13.5091 44.7963 13.6869 44.8773 13.8826C44.9583 14.0783 45 14.2881 45 14.5C45 14.7119 44.9583 14.9217 44.8773 15.1174C44.7963 15.3131 44.6775 15.4909 44.5279 15.6405L31.6715 28.5276C31.5221 28.6774 31.3448 28.7962 31.1495 28.8772C30.9543 28.9583 30.7451 29 30.5338 29C30.3225 29 30.1132 28.9583 29.918 28.8772C29.7228 28.7962 29.5454 28.6774 29.396 28.5276C29.2466 28.3778 29.128 28.2 29.0472 28.0043C28.9663 27.8086 28.9247 27.5989 28.9247 27.3871C28.9247 27.1753 28.9663 26.9655 29.0472 26.7698C29.128 26.5742 29.2466 26.3963 29.396 26.2466L39.5107 16.1109H1.60704C1.18083 16.1109 0.772068 15.9412 0.470692 15.6391C0.169312 15.337 0 14.9272 0 14.5Z" fill="white" fill-opacity="0.8"/>
</svg>
