<svg width="102" height="91" viewBox="0 0 102 91" fill="none" xmlns="http://www.w3.org/2000/svg">
<path d="M100.146 1.89172H1.90381V89.1084H100.146V1.89172Z" stroke="#552B71" stroke-width="3" stroke-linejoin="round"/>
<path d="M8.06592 17.423H94.4353" stroke="#D73B5F" stroke-width="3" stroke-linejoin="round"/>
<path d="M35.62 25.4884H9.96973V80.646H35.62V25.4884Z" stroke="#552B71" stroke-width="3" stroke-linejoin="round"/>
<path d="M92.5314 25.4884H44.5874V38.6804H92.5314V25.4884Z" stroke="#552B71" stroke-width="3" stroke-linejoin="round"/>
<path d="M92.5314 67.4532H44.5874V80.6453H92.5314V67.4532Z" stroke="#552B71" stroke-width="3" stroke-linejoin="round"/>
<path d="M92.5314 46.4454H44.5874V59.6374H92.5314V46.4454Z" stroke="#552B71" stroke-width="3" stroke-linejoin="round"/>
<path d="M11.1718 8.4127C11.3066 8.59247 11.4045 8.79689 11.4599 9.01426C11.5153 9.23164 11.527 9.45773 11.4944 9.67961C11.4619 9.9015 11.3857 10.1148 11.2701 10.3075C11.1546 10.5001 11.002 10.6682 10.8211 10.8022C10.6402 10.9362 10.4344 11.0335 10.2157 11.0885C9.99691 11.1435 9.76939 11.1552 9.54609 11.1228C9.32279 11.0905 9.10809 11.0147 8.91425 10.8999C8.72041 10.7851 8.55123 10.6335 8.41636 10.4537C8.28149 10.2739 8.18358 10.0695 8.12821 9.85215C8.07284 9.63478 8.06111 9.40869 8.09367 9.18681C8.12623 8.96492 8.20246 8.75158 8.318 8.55897C8.43354 8.36636 8.58612 8.19824 8.76705 8.06423C8.94797 7.93021 9.15368 7.83292 9.37245 7.7779C9.59121 7.72288 9.81874 7.71122 10.042 7.74358C10.2653 7.77594 10.48 7.85168 10.6739 7.96649C10.8677 8.0813 11.0369 8.23292 11.1718 8.4127Z" fill="#D73B5F"/>
<path d="M17.2841 8.4127C17.5565 8.77578 17.6725 9.2315 17.6068 9.67962C17.541 10.1277 17.2988 10.5315 16.9334 10.8022C16.568 11.0729 16.1094 11.1882 15.6584 11.1228C15.2074 11.0575 14.8011 10.8168 14.5287 10.4537C14.2563 10.0907 14.1402 9.63493 14.206 9.18681C14.2717 8.7387 14.514 8.33489 14.8794 8.06423C15.2447 7.79358 15.7034 7.67824 16.1543 7.74359C16.6053 7.80894 17.0117 8.04963 17.2841 8.4127Z" fill="#D73B5F"/>
<path d="M23.3959 8.41301C23.6594 8.77917 23.7701 9.23247 23.7047 9.67791C23.6393 10.1234 23.403 10.5264 23.0452 10.8025C22.6688 11.0673 22.2046 11.1788 21.748 11.114C21.2914 11.0492 20.8771 10.813 20.5904 10.454C20.3858 10.0833 20.324 9.65125 20.4163 9.2385C20.5086 8.82575 20.7488 8.46044 21.0921 8.21066C21.4355 7.96088 21.8585 7.84369 22.2823 7.88092C22.7062 7.91815 23.102 8.10726 23.3959 8.41301Z" fill="#D73B5F"/>
</svg>
