<svg width="104" height="91" viewBox="0 0 104 91" fill="none" xmlns="http://www.w3.org/2000/svg">
<g clip-path="url(#clip0_347_6859)">
<path d="M48.431 45.6991H27.4995V54.2927H48.431V45.6991Z" stroke="#552B71" stroke-width="2.8" stroke-linecap="round" stroke-linejoin="round"/>
<path d="M37.9656 88.6973C35.2112 88.665 32.5806 87.5481 30.6444 85.5889C28.7081 83.6297 27.6224 80.9861 27.6226 78.2316V61.873H48.5541V78.2316C48.5583 79.6175 48.2864 80.9904 47.7543 82.2701C47.2221 83.5498 46.4403 84.7107 45.4546 85.685C44.4689 86.6593 43.299 87.4274 42.0132 87.9446C40.7273 88.4618 39.3514 88.7177 37.9656 88.6973V88.6973Z" stroke="#552B71" stroke-width="2.8" stroke-linecap="round" stroke-linejoin="round"/>
<path d="M37.9653 67.7666V80.657" stroke="#552B71" stroke-width="2.8" stroke-linecap="round" stroke-linejoin="round"/>
<path d="M30.7222 55.9501V61.8735" stroke="#552B71" stroke-width="2.8" stroke-linecap="round" stroke-linejoin="round"/>
<path d="M45.761 55.9501V61.8735" stroke="#552B71" stroke-width="2.8" stroke-linecap="round" stroke-linejoin="round"/>
<path d="M40.9424 45.6991V15.1612L44.1343 10.8644L40.9424 1.74902H35.019L31.7964 10.8644L35.019 15.1612V45.6991" stroke="#552B71" stroke-width="2.8" stroke-linecap="round" stroke-linejoin="round"/>
<path d="M76.2068 69.7305V26.5784C78.4981 25.4484 80.4274 23.6996 81.7765 21.5301C83.1256 19.3605 83.8406 16.8566 83.8406 14.3018C83.8406 11.747 83.1256 9.24317 81.7765 7.0736C80.4274 4.90402 78.4981 3.1553 76.2068 2.02527V12.2762L70.0685 16.573L63.8381 12.2762V2.14803C61.5562 3.28626 59.6367 5.03794 58.2951 7.20648C56.9534 9.37502 56.2427 11.8746 56.2427 14.4246C56.2427 16.9746 56.9534 19.4742 58.2951 21.6427C59.6367 23.8112 61.5562 25.5629 63.8381 26.7012V69.7305C61.9614 71.0373 60.5506 72.909 59.8113 75.0731C59.0719 77.2371 59.0425 79.5807 59.7274 81.7627C60.4122 83.9447 61.7755 85.8511 63.6189 87.2046C65.4623 88.5581 67.6895 89.2879 69.9764 89.2879C72.2633 89.2879 74.4905 88.5581 76.3339 87.2046C78.1773 85.8511 79.5406 83.9447 80.2254 81.7627C80.9103 79.5807 80.8809 77.2371 80.1415 75.0731C79.4022 72.909 77.9914 71.0373 76.1147 69.7305H76.2068ZM70.0685 83.0813C69.1627 83.0873 68.2756 82.8243 67.5195 82.3255C66.7635 81.8267 66.1726 81.1147 65.8217 80.2796C65.4709 79.4446 65.376 78.5241 65.5489 77.635C65.7219 76.746 66.155 75.9283 66.7933 75.2856C67.4316 74.643 68.2464 74.2044 69.1343 74.0255C70.0222 73.8465 70.9432 73.9353 71.7806 74.2805C72.618 74.6257 73.3341 75.2118 73.8379 75.9644C74.3418 76.7171 74.6108 77.6025 74.6108 78.5082C74.6108 79.7211 74.129 80.8842 73.2714 81.7418C72.4138 82.5995 71.2506 83.0813 70.0378 83.0813H70.0685Z" stroke="#552B71" stroke-width="2.8" stroke-linecap="round" stroke-linejoin="round"/>
<path d="M95.1436 28.0515V31.2741" stroke="#D73B5F" stroke-width="2.8" stroke-linecap="round" stroke-linejoin="round"/>
<path d="M95.1436 38.7939V42.0165" stroke="#D73B5F" stroke-width="2.8" stroke-linecap="round" stroke-linejoin="round"/>
<path d="M102.11 35.0186H98.9185" stroke="#D73B5F" stroke-width="2.8" stroke-linecap="round" stroke-linejoin="round"/>
<path d="M91.3991 35.0186H88.1765" stroke="#D73B5F" stroke-width="2.8" stroke-linecap="round" stroke-linejoin="round"/>
<path d="M8.71631 56.5029V59.7255" stroke="#D73B5F" stroke-width="2.8" stroke-linecap="round" stroke-linejoin="round"/>
<path d="M8.71631 67.2441V70.4667" stroke="#D73B5F" stroke-width="2.8" stroke-linecap="round" stroke-linejoin="round"/>
<path d="M15.7143 63.4697H12.4917" stroke="#D73B5F" stroke-width="2.8" stroke-linecap="round" stroke-linejoin="round"/>
<path d="M4.97211 63.4697H1.74951" stroke="#D73B5F" stroke-width="2.8" stroke-linecap="round" stroke-linejoin="round"/>
</g>
<defs>
<clipPath id="clip0_347_6859">
<rect width="103.86" height="91" fill="white"/>
</clipPath>
</defs>
</svg>
