<svg width="25" height="25" viewBox="0 0 25 25" fill="none" xmlns="http://www.w3.org/2000/svg">
<path d="M9.27804 24.9317C8.46541 24.9317 7.69574 24.5701 7.20256 23.9468L0.527744 15.5387C0.321379 15.279 0.170719 14.9831 0.084377 14.6679C-0.00196458 14.3527 -0.0222943 14.0244 0.0245497 13.7016C0.0713938 13.3789 0.184493 13.0682 0.357382 12.7872C0.530271 12.5062 0.759559 12.2604 1.03214 12.0639C1.30462 11.8667 1.61526 11.7226 1.94626 11.6399C2.27727 11.5573 2.62212 11.5378 2.96105 11.5825C3.29999 11.6271 3.62634 11.7351 3.92141 11.9003C4.21648 12.0654 4.47447 12.2844 4.68059 12.5448L9.07255 18.073L20.115 1.16779C20.4813 0.609625 21.0647 0.212724 21.7375 0.0641473C22.4102 -0.084429 23.1174 0.027451 23.7037 0.375246C24.9236 1.09833 25.2991 2.62999 24.5369 3.79477L11.4899 23.7598C11.2672 24.1021 10.9602 24.3875 10.5956 24.5911C10.231 24.7947 9.81974 24.9104 9.3976 24.9281C9.3565 24.9317 9.31914 24.9317 9.27804 24.9317Z" fill="#9D64A9"/>
</svg>
