<?xml version="1.0" encoding="utf-8"?>
<!-- Generator: Adobe Illustrator 26.2.1, SVG Export Plug-In . SVG Version: 6.00 Build 0)  -->
<svg version="1.1" id="Layer_1" xmlns="http://www.w3.org/2000/svg" xmlns:xlink="http://www.w3.org/1999/xlink" x="0px" y="0px"
	 viewBox="0 0 753.7 496" style="enable-background:new 0 0 753.7 496;" xml:space="preserve">
<style type="text/css">
	.st0{fill:#552B71;}
	.st1{fill:url(#SVGID_1_);}
	.st2{fill:url(#SVGID_00000154421901003447387100000014058158554933300632_);}
	.st3{fill:url(#SVGID_00000057122806297926969750000009718622454950540445_);}
	.st4{fill:url(#SVGID_00000161591516619707006660000010277348608353990788_);}
	.st5{fill:url(#SVGID_00000029736096873295287050000009930615245055719601_);}
	.st6{fill:#A660A3;}
	.st7{fill:#009E99;}
	.st8{fill:url(#SVGID_00000032627834170071103560000015684457720282492601_);}
	.st9{fill:url(#SVGID_00000036234451928287141240000000953972493975372683_);}
	.st10{fill:url(#SVGID_00000075870784034926293490000011454851201972607363_);}
	.st11{fill:url(#SVGID_00000166655600712645581300000004400393948891678390_);}
	.st12{fill:url(#SVGID_00000176750568293809614470000007262590692802126993_);}
	.st13{fill:url(#SVGID_00000004537213992072964540000002479622733748393652_);}
	.st14{fill:url(#SVGID_00000026157827075302977360000002455585835429770644_);}
	.st15{fill:url(#SVGID_00000028325983228623669290000001976063914694132629_);}
	.st16{fill:url(#SVGID_00000160176608197179448740000003881704706957717180_);}
	.st17{fill:url(#SVGID_00000109740895355380615800000007013384912260190386_);}
	.st18{fill:url(#SVGID_00000165215410403546517740000015912366940004642726_);}
	.st19{fill:url(#SVGID_00000124851487682629187890000010798721622272864141_);}
	.st20{fill:url(#SVGID_00000156562837864884803590000003404935691486549892_);}
	.st21{fill:url(#SVGID_00000133497347292495205780000004058383656739694010_);}
	.st22{fill:url(#SVGID_00000132068845326682915710000002877794794311093411_);}
	.st23{fill:#FFFFFF;}
	.st24{fill:url(#SVGID_00000131356708779462283380000007773019779015337130_);}
	.st25{fill:url(#SVGID_00000120557692763829661810000002506228212219422616_);}
	.st26{fill:url(#SVGID_00000023999652003641572010000003063841957852051855_);}
	.st27{fill:url(#SVGID_00000129906345669131852250000015234993627844582843_);}
	.st28{fill:url(#SVGID_00000092454984534704645670000011917164937390821272_);}
	.st29{fill:url(#SVGID_00000173878401929178839100000005712542594197936277_);}
	.st30{fill:url(#SVGID_00000141446263914903603960000007770442406732609724_);}
	.st31{fill:url(#SVGID_00000065794608333900019170000011403747039994891681_);}
	.st32{fill:url(#SVGID_00000002346720619049408270000011279456015514546833_);}
	.st33{fill:url(#SVGID_00000011000333542446480970000006967168805900934528_);}
	.st34{fill:url(#SVGID_00000145019385652348498730000009892871944296442303_);}
	.st35{fill:url(#SVGID_00000139990165942211467100000016259119561644172190_);}
	.st36{fill:url(#SVGID_00000041996789459153395910000002998681787146478225_);}
	.st37{fill:url(#SVGID_00000160881268632093792880000003961049873996884136_);}
	.st38{fill:url(#SVGID_00000083806149905357991230000014872478446520620957_);}
	.st39{fill:url(#SVGID_00000157267240167247659500000007097223918862582435_);}
	.st40{fill:url(#SVGID_00000178197557810521249110000007810519537393868700_);}
	.st41{fill:url(#SVGID_00000075147741826090995760000012282057773680687546_);}
	.st42{fill:url(#SVGID_00000078733091392456706300000006743112874013192326_);}
	.st43{fill:url(#SVGID_00000146476991388248998130000000504681166490060421_);}
</style>
<g>
	<path class="st0" d="M482.9,4285.1h-5.3c-72,5-164.6,20.9-275.3,47.2c-90.6,21.5-193.6,50.1-306.1,84.9
		c-191.4,59.2-346,116.7-347.6,117.2l4.5,12.2c1.5-0.6,155.8-57.9,346.9-117c318-98.3,492.3-126,582.7-131.8l14.5-0.4
		C497.3,4297.4,483,4285.1,482.9,4285.1z"/>
	<path class="st0" d="M485.9,4313.3c-72.7,4.6-167.2,20.6-280.6,47.6c-90.6,21.5-193.6,50.1-306.1,84.9
		c-191.4,59.2-346,116.7-347.6,117.2l4.5,12.2c1.5-0.6,155.8-57.9,346.9-117c310.7-96.1,484.3-124.7,576.4-131.4
		c2.8-3.9,11-13.7,11-13.7L485.9,4313.3z"/>
	<path class="st0" d="M208.1,4389.4c-90.6,21.5-193.6,50.1-306.1,84.9c-191.4,59.2-346,116.7-347.6,117.2l4.5,12.2
		c1.5-0.6,155.9-57.9,346.9-117c280.6-86.8,449.3-118.5,547.2-128.8c4.5-5,8.8-9.8,12.6-14.3C396.5,4349.8,310,4365.2,208.1,4389.4z
		"/>
	<path class="st0" d="M211,4417.9c-90.6,21.5-193.6,50.1-306.1,84.9c-191.4,59.2-346,116.7-347.6,117.2l4.5,12.2
		c1.5-0.6,155.9-57.9,346.9-117c251.2-77.7,412.7-111.2,514-124.8c4.9-5.1,9.6-10.1,14.1-14.9C373.6,4383.1,297.9,4397.3,211,4417.9
		z"/>
	<path class="st0" d="M213.8,4446.5c-90.6,21.5-193.6,50.1-306.1,84.9c-191.4,59.2-346,116.7-347.6,117.2l4.5,12.2
		c1.5-0.6,155.8-57.9,346.9-117c224.4-69.4,377.2-103.6,479.5-119.7c4.9-5.3,9.8-10.4,14.5-15.4
		C349.8,4416.8,285.6,4429.4,213.8,4446.5z"/>
	<g>
		<linearGradient id="SVGID_1_" gradientUnits="userSpaceOnUse" x1="440.799" y1="4310.6699" x2="488.9248" y2="4282.8843">
			<stop  offset="0.3443" style="stop-color:#FFFFFF;stop-opacity:0"/>
			<stop  offset="0.5286" style="stop-color:#A2A2A2;stop-opacity:0.1316"/>
			<stop  offset="0.7128" style="stop-color:#4B4B4B;stop-opacity:0.2632"/>
			<stop  offset="0.8419" style="stop-color:#151515;stop-opacity:0.3554"/>
			<stop  offset="0.9043" style="stop-color:#000000;stop-opacity:0.4"/>
		</linearGradient>
		<path class="st1" d="M435.9,4302.1c17.7-2,33.3-3.4,47-4.3l14.5-0.4c0,0-14.9-12.3-14.9-12.3h-4.7c-9.8,0.7-20,1.6-30.6,2.7
			c-2.2,3.1-4.8,6.4-7.6,10C438.3,4299.2,437.1,4300.6,435.9,4302.1z"/>
		
			<linearGradient id="SVGID_00000119816750987075923200000010765067083349418672_" gradientUnits="userSpaceOnUse" x1="431.9616" y1="4307.8989" x2="465.9141" y2="4340.6865">
			<stop  offset="0.4" style="stop-color:#FFFFFF;stop-opacity:0"/>
			<stop  offset="0.4105" style="stop-color:#FAFAFA;stop-opacity:7.013583e-03"/>
			<stop  offset="0.6328" style="stop-color:#909090;stop-opacity:0.1552"/>
			<stop  offset="0.8114" style="stop-color:#434343;stop-opacity:0.2742"/>
			<stop  offset="0.9375" style="stop-color:#131313;stop-opacity:0.3583"/>
			<stop  offset="1" style="stop-color:#000000;stop-opacity:0.4"/>
		</linearGradient>
		<path style="fill:url(#SVGID_00000119816750987075923200000010765067083349418672_);" d="M420.5,4319.7c-2.6,2.9-5.4,6-8.3,9.1
			c-1.8,1.9-3.6,3.9-5.5,5.9c28.5-4,52.5-6.5,72.6-8c2.8-3.9,11-13.7,11-13.7l-4.5,0.2C465.7,4314.6,443.9,4316.7,420.5,4319.7z"/>
		
			<linearGradient id="SVGID_00000177465227220869855530000017000891949444047278_" gradientUnits="userSpaceOnUse" x1="403.9889" y1="4339.187" x2="437.068" y2="4373.4414">
			<stop  offset="0.4" style="stop-color:#FFFFFF;stop-opacity:0"/>
			<stop  offset="0.4105" style="stop-color:#FAFAFA;stop-opacity:7.013583e-03"/>
			<stop  offset="0.6328" style="stop-color:#909090;stop-opacity:0.1552"/>
			<stop  offset="0.8114" style="stop-color:#434343;stop-opacity:0.2742"/>
			<stop  offset="0.9375" style="stop-color:#131313;stop-opacity:0.3583"/>
			<stop  offset="1" style="stop-color:#000000;stop-opacity:0.4"/>
		</linearGradient>
		<path style="fill:url(#SVGID_00000177465227220869855530000017000891949444047278_);" d="M380.6,4362.6c-1.9,2-3.8,4-5.7,6
			c30.1-4.9,56-8.4,78.3-10.7c4.5-5,8.8-9.8,12.6-14.3c-23.4,2.1-48.8,5.3-76.2,9.4c-2.5,2.7-5.1,5.4-7.8,8.3
			C381.4,4361.7,381,4362.2,380.6,4362.6z"/>
		
			<linearGradient id="SVGID_00000150804605555674172600000000183878746034698685_" gradientUnits="userSpaceOnUse" x1="374.0989" y1="4372.1836" x2="404.9982" y2="4406.5005">
			<stop  offset="0.4" style="stop-color:#FFFFFF;stop-opacity:0"/>
			<stop  offset="0.4105" style="stop-color:#FAFAFA;stop-opacity:7.013583e-03"/>
			<stop  offset="0.6328" style="stop-color:#909090;stop-opacity:0.1552"/>
			<stop  offset="0.8114" style="stop-color:#434343;stop-opacity:0.2742"/>
			<stop  offset="0.9375" style="stop-color:#131313;stop-opacity:0.3583"/>
			<stop  offset="1" style="stop-color:#000000;stop-opacity:0.4"/>
		</linearGradient>
		<path style="fill:url(#SVGID_00000150804605555674172600000000183878746034698685_);" d="M422.9,4390.4
			c4.9-5.1,9.6-10.1,14.1-14.9c-24.7,3-51.3,6.9-79.7,11.9c-4.9,5.2-9.9,10.5-14.9,16C372.6,4397.8,399.4,4393.6,422.9,4390.4z"/>
		
			<linearGradient id="SVGID_00000055697491022154894800000003008364378802218895_" gradientUnits="userSpaceOnUse" x1="343.8179" y1="4406.5703" x2="371.959" y2="4440.1079">
			<stop  offset="0.4" style="stop-color:#FFFFFF;stop-opacity:0"/>
			<stop  offset="0.4105" style="stop-color:#FAFAFA;stop-opacity:7.013583e-03"/>
			<stop  offset="0.6328" style="stop-color:#909090;stop-opacity:0.1552"/>
			<stop  offset="0.8114" style="stop-color:#434343;stop-opacity:0.2742"/>
			<stop  offset="0.9375" style="stop-color:#131313;stop-opacity:0.3583"/>
			<stop  offset="1" style="stop-color:#000000;stop-opacity:0.4"/>
		</linearGradient>
		<path style="fill:url(#SVGID_00000055697491022154894800000003008364378802218895_);" d="M391.1,4424c4.9-5.3,9.8-10.4,14.5-15.4
			c-25.2,3.7-52.2,8.3-80.7,13.8c-4.8,5.3-9.6,10.7-14.4,16.2C340.4,4432.6,367.1,4427.8,391.1,4424z"/>
	</g>
</g>
<path class="st6" d="M443.5-407.3c0-0.2,0-0.5,0.1-0.7c-0.1,0-0.1,0-0.2,0L443.5-407.3z"/>
<path class="st6" d="M1102.6,4556.4c-101.2,0.7-198.4,12.2-305.8,36.2c-129.6,28.9-284.6,84.5-367.8,114.3
	c-33.2,11.9-57.2,20.5-64.5,22.1c-11.7,2.6-15.9,0.5-17.1-0.5c-0.5-0.4-0.8-0.8-1.1-1.2c1.5,5.1,5.4,12.5,16.4,15.1
	c0,0,0.3,0,4.6-0.8c8.2-1.8,31.2-10.1,66.1-22.6c83-29.7,237.5-85.1,366.3-113.9c106.5-23.8,202.7-35.2,303-35.9
	c125.8-0.9,255.5,15.3,396.4,49.5l3.1-12.6C1360.2,4571.8,1229.5,4555.5,1102.6,4556.4z"/>
<path class="st6" d="M345.6,4720.1c8.2-1.8,31.2-10.1,66.1-22.6c83-29.7,237.5-85.1,366.3-113.9c76-17,179-36.9,301.8-40.2
	c126.9-3.4,257,10.9,397.6,43.8l3-12.7c-141.7-33.1-272.9-47.5-401-44.1c-123.9,3.3-227.7,23.4-304.3,40.5
	c-129.6,28.9-284.6,84.5-367.8,114.3c-27.8,10-49.1,17.6-59.7,20.8c-1.6,5.8-2.3,10.5-2.4,14.1
	C345.4,4720.1,345.5,4720.1,345.6,4720.1z"/>
<path class="st6" d="M389.2,4676.9c83-29.7,237.5-85.1,366.3-113.9c84.6-18.9,184.7-39.5,302.6-45.3c129.3-6.3,259.1,6.4,396.8,38.9
	l3-12.7c-138.9-32.8-269.9-45.6-400.4-39.2c-118.9,5.8-219.7,26.6-304.8,45.6c-129.6,28.9-284.6,84.5-367.8,114.3
	c-8.4,3-16.3,5.8-23.4,8.4c-3.1,6-5.7,11.5-7.8,16.6C363.5,4686.1,375.4,4681.8,389.2,4676.9z"/>
<path class="st6" d="M733.8,4541.4c99.4-22.2,190.7-41.2,299.8-48.3c128.7-8.5,259.5,2,399.7,31.9l2.7-12.7
	c-141.4-30.2-273.3-40.7-403.3-32.2c-110.1,7.2-201.8,26.3-301.8,48.6c-119.4,26.7-260.5,75.9-347,106.9
	c-4.3,6.3-8.1,12.3-11.6,17.9C456.4,4623.4,607.5,4569.6,733.8,4541.4z"/>
<path class="st6" d="M712.2,4519.8c86.4-19.3,184.3-41.1,298.5-50.1c128.4-10.1,259.6-2.3,401.2,23.7l2.4-12.8
	c-142.7-26.3-275.1-34.1-404.6-23.9c-115.2,9-213.6,31-300.3,50.4c-98.1,21.9-210.8,59.1-295.9,88.8c-5.3,6.6-10.2,12.9-14.7,18.9
	C485.3,4584.3,607.3,4543.2,712.2,4519.8z"/>
<path class="st7" d="M346.2,4727.4c-0.6-2.1-0.8-3.9-0.9-4.7c-0.1-0.8-0.1-1.6-0.1-2.6c0.1-3.6,0.8-8.3,2.4-14.1
	c1.3-4.8,3.2-10.3,5.8-16.5c2.1-5,4.7-10.6,7.8-16.6c3.1-6,6.8-12.5,11-19.5c3.4-5.7,7.3-11.6,11.6-17.9c4.5-6.6,9.4-13.5,14.8-20.8
	c4.5-6.1,9.4-12.4,14.7-18.9c6.8-8.5,14.2-17.3,22.3-26.6c15.7-17.9,30.7-34.6,43.9-49.4c61-68,89.6-100.9,82-121.5
	c-1.5-4.1-4.2-7.4-8-9.6c4.1,10.7-4.5,23.5-8.8,31.4c-2.8,5-8.7,12.9-13.7,19.6c-13.8,18.4-34.7,41.8-61.2,71.3
	c-13.2,14.8-28.3,31.5-44,49.5c-12.8,14.6-24.6,29.1-35.2,43.1c-4.8,6.3-9.3,12.5-13.5,18.6c-4.8,6.9-9.4,13.7-13.5,20.4
	c-3.8,6-7.2,11.8-10.3,17.5c-0.2,0.4-0.4,0.8-0.6,1.1c-3.4,6.2-6.4,12.1-8.9,17.8c-2.6,5.6-4.7,10.9-6.4,15.9
	c-1.7,4.8-3,9.3-3.8,13.5c-1,4.8-1.4,9.1-1.3,13c0,0.7,0,1.5,0.1,2.2c0.5,6.2,2.6,11,6.3,14.2c1.7,1.7,6.4,5.2,16.2,5.2
	c2.3,0,4.8-0.2,7.7-0.6C351.7,4739.9,347.7,4732.5,346.2,4727.4z"/>
<g>
	
		<linearGradient id="SVGID_00000177485631022923982090000004521495322493490349_" gradientUnits="userSpaceOnUse" x1="358.2026" y1="4742.2705" x2="377.5346" y2="4719.2314">
		<stop  offset="3.000000e-04" style="stop-color:#000000;stop-opacity:0.4"/>
		<stop  offset="5.686107e-02" style="stop-color:#20201F;stop-opacity:0.366"/>
		<stop  offset="0.152" style="stop-color:#484746;stop-opacity:0.3088"/>
		<stop  offset="0.274" style="stop-color:#717171;stop-opacity:0.2355"/>
		<stop  offset="0.4181" style="stop-color:#A5A5A5;stop-opacity:0.1489"/>
		<stop  offset="0.5791" style="stop-color:#E0E0E0;stop-opacity:5.219841e-02"/>
		<stop  offset="0.6659" style="stop-color:#FFFFFF;stop-opacity:0"/>
	</linearGradient>
	<path style="fill:url(#SVGID_00000177485631022923982090000004521495322493490349_);" d="M382.5,4723.4c-8.7,3-14.9,4.9-18,5.6
		c-11.7,2.6-15.9,0.5-17.1-0.5c-0.5-0.4-0.8-0.8-1.1-1.2c1.5,5.1,5.4,12.5,16.4,15.1c0,0,0.3,0,4.6-0.8c3.9-0.9,11.2-3.2,21.6-6.8
		c-0.2-0.2-0.4-0.3-0.5-0.5C385.3,4731.9,383.3,4728.1,382.5,4723.4z"/>
	
		<linearGradient id="SVGID_00000010276569275702641940000002048507724920500148_" gradientUnits="userSpaceOnUse" x1="346.5952" y1="4704.6914" x2="385.4193" y2="4708.0884">
		<stop  offset="3.000000e-04" style="stop-color:#000000;stop-opacity:0.4"/>
		<stop  offset="0.5281" style="stop-color:#B2B2B1;stop-opacity:0.1653"/>
		<stop  offset="0.9" style="stop-color:#FFFFFF;stop-opacity:0"/>
	</linearGradient>
	<path style="fill:url(#SVGID_00000010276569275702641940000002048507724920500148_);" d="M386.8,4692.6
		c-17.7,6.3-31.3,11.1-39,13.4c-1.6,5.8-2.3,10.5-2.4,14.1c0.1,0,0.2,0,0.3-0.1c5.7-1.2,18.4-5.6,37.2-12.2c0.2-0.9,0.3-1.8,0.5-2.7
		C384.1,4701.3,385.3,4697.1,386.8,4692.6z"/>
	
		<linearGradient id="SVGID_00000044887194569315209400000006103705990035494019_" gradientUnits="userSpaceOnUse" x1="359.0928" y1="4668.9399" x2="396.7255" y2="4679.0239">
		<stop  offset="3.000015e-04" style="stop-color:#000000;stop-opacity:0.4"/>
		<stop  offset="0.5281" style="stop-color:#B2B2B1;stop-opacity:0.1653"/>
		<stop  offset="0.9" style="stop-color:#FFFFFF;stop-opacity:0"/>
	</linearGradient>
	<path style="fill:url(#SVGID_00000044887194569315209400000006103705990035494019_);" d="M384.8,4664.6c-8.4,3-16.3,5.8-23.4,8.4
		c-3.1,6-5.7,11.5-7.8,16.6c9.9-3.5,21.8-7.7,35.6-12.7c1.5-0.5,3.1-1.1,4.6-1.7c2.5-5.4,5.3-11,8.5-16.8
		C396.1,4660.6,390.3,4662.7,384.8,4664.6z"/>
	
		<linearGradient id="SVGID_00000147219427318265457190000015678418545276275903_" gradientUnits="userSpaceOnUse" x1="386.1405" y1="4629.7148" x2="411.9383" y2="4644.6094">
		<stop  offset="3.000000e-04" style="stop-color:#000000;stop-opacity:0.4"/>
		<stop  offset="0.5281" style="stop-color:#B2B2B1;stop-opacity:0.1653"/>
		<stop  offset="0.9" style="stop-color:#FFFFFF;stop-opacity:0"/>
	</linearGradient>
	<path style="fill:url(#SVGID_00000147219427318265457190000015678418545276275903_);" d="M384,4635.6c-4.3,6.3-8.1,12.3-11.6,17.9
		c12.4-4.5,26.3-9.4,41.4-14.8c3.7-5.9,7.7-11.9,11.9-18C410.8,4626,396.8,4631,384,4635.6z"/>
	
		<linearGradient id="SVGID_00000062882412243510592290000003836061655245641119_" gradientUnits="userSpaceOnUse" x1="415.9078" y1="4590.3608" x2="438.1485" y2="4605.9341">
		<stop  offset="3.000000e-04" style="stop-color:#000000;stop-opacity:0.4"/>
		<stop  offset="0.5281" style="stop-color:#B2B2B1;stop-opacity:0.1653"/>
		<stop  offset="0.9" style="stop-color:#FFFFFF;stop-opacity:0"/>
	</linearGradient>
	<path style="fill:url(#SVGID_00000062882412243510592290000003836061655245641119_);" d="M413.5,4595.9
		c-5.3,6.6-10.2,12.9-14.7,18.9c13.2-4.6,27.2-9.5,41.8-14.6c4.7-6.2,9.6-12.4,14.7-18.8C440.8,4586.4,426.8,4591.2,413.5,4595.9z"
		/>
</g>
<path class="st7" d="M322.7,4720.9c-8.2-5-10.1-10-10.6-16.5c-1.2-14.2,5.9-35.8,20.4-62.4c16.4-29.9,41.7-66.8,73.2-102.7
	c18.7-21.4,36.6-41.1,52.4-58.4c24.6-27.1,45.9-50.5,59.5-68.4c4.3-5.7,9.6-12.5,12.1-16.5c1.2-1.9,15.2-17.9,10.3-33.8
	c3.9,2.3,6.8,5.6,8.4,9.9c7.6,20.6-25,56.4-80.7,117.6c-15.8,17.3-33.6,37-52.3,58.3c-47.3,54-71.6,96.4-82.6,123.1
	C317.9,4704.7,322.7,4720.9,322.7,4720.9z"/>
<path class="st7" d="M302.3,4702.5c-7.8-5.7-10.1-11-10.6-17.5c-1.2-14.2,5.9-35.8,20.4-62.4c16.4-29.9,41.7-68.8,73.2-104.7
	c21-24,41.4-46.1,59.3-65.6c24.1-26.1,44.8-48.7,58.5-66.3c4.7-6.1,10.2-13.2,12.8-17.3c6.6-10.8,12.9-17.6,10.2-31.8
	c3.7,2.3,6.5,5.6,8,9.7c7.1,19.2-22.3,52.1-79.9,114.5c-17.9,19.4-38.2,41.5-59.1,65.3c-46.3,52.9-70.6,96.8-81.9,123.5
	C296.9,4686.7,302.3,4702.5,302.3,4702.5z"/>
<path class="st7" d="M281.9,4683.1c-7.5-4.9-10.1-11-10.6-17.5c-1.2-14.2,5.9-35.8,20.4-62.4c16.4-29.9,41.7-70.8,73.2-106.7
	c22.9-26.1,45.5-50.3,65.5-71.7c23.8-25.5,44.3-47.5,58-64.8c5.3-6.8,11.1-14.2,13.7-18.5c6.1-10.1,11.9-19.3,9.7-29.9
	c3.7,2.3,6.4,5.5,8,9.6c6.9,18.7-22.4,51-79.8,112.5c-19.9,21.3-42.4,45.4-65.2,71.4c-44.7,51-68.9,96-80.7,122.6
	C274.1,4668.4,281.9,4683.1,281.9,4683.1z"/>
<path class="st7" d="M426.3,4405.7c5.9-6.3,11.5-12.2,16.8-17.8c4.8-5.1,9.3-10,13.6-14.6c5.6-6.1,10.8-11.9,15.5-17.2
	c4.3-5,8.3-9.6,11.7-13.9c16.4-20.5,23.1-34.2,19.4-44.2c-2.4-6.5-8-10.9-15.6-12.6c-3.3-0.7-7.5-0.4-10-0.2c3.9,0,24,9.5,8.4,31.7
	c-1.7,2.8-3.9,6.1-6.7,9.9c-1.7,2.3-3.6,4.8-5.8,7.5c-2.4,3-5,6.1-7.8,9.4c-3.9,4.5-8.1,9.3-12.6,14.3c-5.1,5.6-10.5,11.4-16.2,17.6
	c-4.5,4.8-9.2,9.8-14.1,14.9c-2.4,2.5-4.8,5.1-7.3,7.7c-3.2,3.4-6.6,6.9-9.9,10.5c-4.7,5-9.6,10.2-14.5,15.4
	c-15.1,16.1-30.9,33.2-46.6,51.2c-31.5,35.9-56.8,78.7-73.2,108.7c-14.6,26.6-21.6,48.1-20.4,62.4c0.5,6.4,3.2,13.4,10.6,18.5
	c0,0-6.1-16.4,11.7-55.5c11.7-26.7,35.9-73.9,81.1-125.5c19.6-22.3,39.3-43.5,57.6-62.9c4.5-4.7,8.8-9.3,13.1-13.8
	C425.4,4406.6,425.8,4406.2,426.3,4405.7z"/>
<g>
	<path class="st6" d="M482.9,2809.4h-5.3c-72,5-164.6,20.9-275.3,47.2c-90.6,21.5-193.6,50.1-306.1,84.9
		c-191.4,59.2-346,116.7-347.6,117.2l4.5,12.2c1.5-0.6,155.8-57.9,346.9-117c318-98.3,492.3-126,582.7-131.8l14.5-0.4
		C497.3,2821.7,483,2809.4,482.9,2809.4z"/>
	<path class="st6" d="M485.9,2837.6c-72.7,4.6-167.2,20.6-280.6,47.6c-90.6,21.5-193.6,50.1-306.1,84.9
		c-191.4,59.2-346,116.7-347.6,117.2l4.5,12.2c1.5-0.6,155.8-57.9,346.9-117c310.7-96.1,484.3-124.7,576.4-131.4
		c2.8-3.9,11-13.7,11-13.7L485.9,2837.6z"/>
	<path class="st6" d="M208.1,2913.7c-90.6,21.5-193.6,50.1-306.1,84.9c-191.4,59.2-346,116.7-347.6,117.2l4.5,12.2
		c1.5-0.6,155.9-57.9,346.9-117c280.6-86.8,449.3-118.5,547.2-128.8c4.5-5,8.8-9.8,12.6-14.3C396.5,2874.1,310,2889.5,208.1,2913.7z
		"/>
	<path class="st6" d="M211,2942.2c-90.6,21.5-193.6,50.1-306.1,84.9c-191.4,59.2-346,116.7-347.6,117.2l4.5,12.2
		c1.5-0.6,155.9-57.9,346.9-117c251.2-77.7,412.7-111.2,514-124.8c4.9-5.1,9.6-10.1,14.1-14.9C373.6,2907.4,297.9,2921.6,211,2942.2
		z"/>
	<path class="st6" d="M213.8,2970.8c-90.6,21.5-193.6,50.1-306.1,84.9c-191.4,59.2-346,116.7-347.6,117.2l4.5,12.2
		c1.5-0.6,155.8-57.9,346.9-117c224.4-69.4,377.2-103.6,479.5-119.7c4.9-5.3,9.8-10.4,14.5-15.4
		C349.8,2941.1,285.6,2953.7,213.8,2970.8z"/>
	<g>
		
			<linearGradient id="SVGID_00000068651173951591113500000008569310533312813450_" gradientUnits="userSpaceOnUse" x1="440.799" y1="2834.9651" x2="488.9248" y2="2807.1794">
			<stop  offset="0.3443" style="stop-color:#FFFFFF;stop-opacity:0"/>
			<stop  offset="0.5025" style="stop-color:#BFB5C3;stop-opacity:0.113"/>
			<stop  offset="0.6987" style="stop-color:#755F7E;stop-opacity:0.2531"/>
			<stop  offset="0.8373" style="stop-color:#462953;stop-opacity:0.3521"/>
			<stop  offset="0.9043" style="stop-color:#341442;stop-opacity:0.4"/>
		</linearGradient>
		<path style="fill:url(#SVGID_00000068651173951591113500000008569310533312813450_);" d="M435.9,2826.4c17.7-2,33.3-3.4,47-4.3
			l14.5-0.4c0,0-14.9-12.3-14.9-12.3h-4.7c-9.8,0.7-20,1.6-30.6,2.7c-2.2,3.1-4.8,6.4-7.6,10
			C438.3,2823.4,437.1,2824.9,435.9,2826.4z"/>
		
			<linearGradient id="SVGID_00000052088130102591834710000001668554660277294010_" gradientUnits="userSpaceOnUse" x1="431.9616" y1="2832.1943" x2="465.9141" y2="2864.9817">
			<stop  offset="0.4" style="stop-color:#FFFFFF;stop-opacity:0"/>
			<stop  offset="0.6063" style="stop-color:#B1A4B6;stop-opacity:0.1375"/>
			<stop  offset="0.7977" style="stop-color:#6E5778;stop-opacity:0.2651"/>
			<stop  offset="0.933" style="stop-color:#442751;stop-opacity:0.3553"/>
			<stop  offset="1" style="stop-color:#341442;stop-opacity:0.4"/>
		</linearGradient>
		<path style="fill:url(#SVGID_00000052088130102591834710000001668554660277294010_);" d="M420.5,2844c-2.6,2.9-5.4,6-8.3,9.1
			c-1.8,1.9-3.6,3.9-5.5,5.9c28.5-4,52.5-6.5,72.6-8c2.8-3.9,11-13.7,11-13.7l-4.5,0.2C465.7,2838.9,443.9,2841,420.5,2844z"/>
		
			<linearGradient id="SVGID_00000005984336627889851220000005485616063528144030_" gradientUnits="userSpaceOnUse" x1="403.9889" y1="2863.4822" x2="437.068" y2="2897.7366">
			<stop  offset="0.4" style="stop-color:#FFFFFF;stop-opacity:0"/>
			<stop  offset="0.6063" style="stop-color:#B1A4B6;stop-opacity:0.1375"/>
			<stop  offset="0.7977" style="stop-color:#6E5778;stop-opacity:0.2651"/>
			<stop  offset="0.933" style="stop-color:#442751;stop-opacity:0.3553"/>
			<stop  offset="1" style="stop-color:#341442;stop-opacity:0.4"/>
		</linearGradient>
		<path style="fill:url(#SVGID_00000005984336627889851220000005485616063528144030_);" d="M380.6,2886.9c-1.9,2-3.8,4-5.7,6
			c30.1-4.9,56-8.4,78.3-10.7c4.5-5,8.8-9.8,12.6-14.3c-23.4,2.1-48.8,5.3-76.2,9.4c-2.5,2.7-5.1,5.4-7.8,8.3
			C381.4,2886,381,2886.5,380.6,2886.9z"/>
		
			<linearGradient id="SVGID_00000088841630920035052480000011045359892636530316_" gradientUnits="userSpaceOnUse" x1="374.0989" y1="2896.4788" x2="404.9982" y2="2930.7959">
			<stop  offset="0.4" style="stop-color:#FFFFFF;stop-opacity:0"/>
			<stop  offset="0.6063" style="stop-color:#B1A4B6;stop-opacity:0.1375"/>
			<stop  offset="0.7977" style="stop-color:#6E5778;stop-opacity:0.2651"/>
			<stop  offset="0.933" style="stop-color:#442751;stop-opacity:0.3553"/>
			<stop  offset="1" style="stop-color:#341442;stop-opacity:0.4"/>
		</linearGradient>
		<path style="fill:url(#SVGID_00000088841630920035052480000011045359892636530316_);" d="M422.9,2914.7
			c4.9-5.1,9.6-10.1,14.1-14.9c-24.7,3-51.3,6.9-79.7,11.9c-4.9,5.2-9.9,10.6-14.9,16C372.6,2922.1,399.4,2917.9,422.9,2914.7z"/>
		
			<linearGradient id="SVGID_00000160905479540037152970000006841669298341459848_" gradientUnits="userSpaceOnUse" x1="343.8179" y1="2930.8657" x2="371.959" y2="2964.4028">
			<stop  offset="0.4" style="stop-color:#FFFFFF;stop-opacity:0"/>
			<stop  offset="0.6063" style="stop-color:#B1A4B6;stop-opacity:0.1375"/>
			<stop  offset="0.7977" style="stop-color:#6E5778;stop-opacity:0.2651"/>
			<stop  offset="0.933" style="stop-color:#442751;stop-opacity:0.3553"/>
			<stop  offset="1" style="stop-color:#341442;stop-opacity:0.4"/>
		</linearGradient>
		<path style="fill:url(#SVGID_00000160905479540037152970000006841669298341459848_);" d="M391.1,2948.3
			c4.9-5.3,9.8-10.4,14.5-15.4c-25.2,3.7-52.2,8.3-80.7,13.8c-4.8,5.3-9.6,10.7-14.4,16.2C340.4,2956.9,367.1,2952.1,391.1,2948.3z"
			/>
	</g>
</g>
<path class="st7" d="M1102.6,3080.7c-101.2,0.7-198.4,12.2-305.8,36.2c-129.6,28.9-284.6,84.5-367.8,114.3
	c-33.2,11.9-57.2,20.5-64.5,22.1c-11.7,2.6-15.9,0.5-17.1-0.5c-0.5-0.4-0.8-0.8-1.1-1.2c1.5,5.1,5.4,12.5,16.4,15.1
	c0,0,0.3,0,4.6-0.8c8.2-1.8,31.2-10.1,66.1-22.6c83-29.7,237.5-85.1,366.3-113.9c106.5-23.8,202.7-35.2,303-35.9
	c125.8-0.9,255.5,15.3,396.4,49.5l3.1-12.6C1360.2,3096.1,1229.5,3079.8,1102.6,3080.7z"/>
<path class="st7" d="M345.6,3244.4c8.2-1.8,31.2-10.1,66.1-22.6c83-29.7,237.5-85.1,366.3-113.9c76-17,179-36.9,301.8-40.2
	c126.9-3.4,257,10.9,397.6,43.8l3-12.7c-141.7-33.1-272.9-47.5-401-44.1c-123.9,3.3-227.7,23.4-304.3,40.5
	c-129.6,28.9-284.6,84.5-367.8,114.3c-27.8,10-49.1,17.6-59.7,20.8c-1.6,5.8-2.3,10.5-2.4,14.1
	C345.4,3244.4,345.5,3244.4,345.6,3244.4z"/>
<path class="st7" d="M389.2,3201.2c83-29.7,237.5-85.1,366.3-113.9c84.6-18.9,184.7-39.5,302.6-45.3c129.3-6.3,259.1,6.4,396.8,38.9
	l3-12.7c-138.9-32.8-269.9-45.6-400.4-39.2c-118.9,5.8-219.7,26.6-304.8,45.6c-129.6,28.9-284.6,84.5-367.8,114.3
	c-8.4,3-16.3,5.8-23.4,8.4c-3.1,6-5.7,11.5-7.8,16.6C363.5,3210.4,375.4,3206.1,389.2,3201.2z"/>
<path class="st7" d="M733.8,3065.7c99.4-22.2,190.7-41.2,299.8-48.3c128.7-8.5,259.5,2,399.7,31.9l2.7-12.7
	c-141.4-30.2-273.3-40.7-403.3-32.2c-110.1,7.2-201.8,26.3-301.8,48.6c-119.4,26.7-260.5,75.9-347,106.9
	c-4.3,6.3-8.1,12.3-11.6,17.9C456.4,3147.7,607.5,3093.9,733.8,3065.7z"/>
<path class="st7" d="M712.2,3044.1c86.4-19.3,184.3-41.1,298.5-50.1c128.4-10.1,259.6-2.3,401.2,23.7l2.4-12.8
	c-142.7-26.3-275.1-34.1-404.6-23.9c-115.2,9-213.6,31-300.3,50.4c-98.1,21.9-210.8,59.1-295.9,88.8c-5.3,6.6-10.2,12.9-14.7,18.9
	C485.3,3108.6,607.3,3067.5,712.2,3044.1z"/>
<path class="st0" d="M346.2,3251.7c-0.6-2.1-0.8-3.9-0.9-4.7c-0.1-0.8-0.1-1.6-0.1-2.6c0.1-3.6,0.8-8.3,2.4-14.1
	c1.3-4.8,3.2-10.3,5.8-16.5c2.1-5,4.7-10.6,7.8-16.6c3.1-6,6.8-12.5,11-19.5c3.4-5.7,7.3-11.6,11.6-17.9c4.5-6.6,9.4-13.5,14.8-20.8
	c4.5-6.1,9.4-12.4,14.7-18.9c6.8-8.5,14.2-17.3,22.3-26.6c15.7-17.9,30.7-34.6,43.9-49.4c61-68,89.6-100.9,82-121.5
	c-1.5-4.1-4.2-7.4-8-9.6c4.1,10.7-4.5,23.5-8.8,31.4c-2.8,5-8.7,12.9-13.7,19.6c-13.8,18.4-34.7,41.8-61.2,71.3
	c-13.2,14.8-28.3,31.5-44,49.5c-12.8,14.6-24.6,29.1-35.2,43.1c-4.8,6.3-9.3,12.5-13.5,18.6c-4.8,6.9-9.4,13.7-13.5,20.4
	c-3.8,6-7.2,11.8-10.3,17.5c-0.2,0.4-0.4,0.8-0.6,1.1c-3.4,6.2-6.4,12.1-8.9,17.8c-2.6,5.6-4.7,10.9-6.4,15.9
	c-1.7,4.8-3,9.3-3.8,13.5c-1,4.8-1.4,9.1-1.3,13c0,0.7,0,1.5,0.1,2.2c0.5,6.2,2.6,11,6.3,14.2c1.7,1.7,6.4,5.2,16.2,5.2
	c2.3,0,4.8-0.2,7.7-0.6C351.7,3264.2,347.7,3256.8,346.2,3251.7z"/>
<g>
	
		<linearGradient id="SVGID_00000121277526185706090480000010001108064286872507_" gradientUnits="userSpaceOnUse" x1="358.2026" y1="3266.5654" x2="377.5346" y2="3243.5264">
		<stop  offset="3.000000e-04" style="stop-color:#000000;stop-opacity:0.4"/>
		<stop  offset="5.686107e-02" style="stop-color:#20201F;stop-opacity:0.366"/>
		<stop  offset="0.152" style="stop-color:#484746;stop-opacity:0.3088"/>
		<stop  offset="0.274" style="stop-color:#717171;stop-opacity:0.2355"/>
		<stop  offset="0.4181" style="stop-color:#A5A5A5;stop-opacity:0.1489"/>
		<stop  offset="0.5791" style="stop-color:#E0E0E0;stop-opacity:5.219841e-02"/>
		<stop  offset="0.6659" style="stop-color:#FFFFFF;stop-opacity:0"/>
	</linearGradient>
	<path style="fill:url(#SVGID_00000121277526185706090480000010001108064286872507_);" d="M382.5,3247.7c-8.7,3-14.9,4.9-18,5.6
		c-11.7,2.6-15.9,0.5-17.1-0.5c-0.5-0.4-0.8-0.8-1.1-1.2c1.5,5.1,5.4,12.5,16.4,15.1c0,0,0.3,0,4.6-0.8c3.9-0.9,11.2-3.2,21.6-6.8
		c-0.2-0.2-0.4-0.3-0.5-0.5C385.3,3256.2,383.3,3252.4,382.5,3247.7z"/>
	
		<linearGradient id="SVGID_00000014626299741405440270000009727437976831358365_" gradientUnits="userSpaceOnUse" x1="346.5952" y1="3228.9868" x2="385.4193" y2="3232.3833">
		<stop  offset="3.000015e-04" style="stop-color:#000000;stop-opacity:0.4"/>
		<stop  offset="0.5281" style="stop-color:#B2B2B1;stop-opacity:0.1653"/>
		<stop  offset="0.9" style="stop-color:#FFFFFF;stop-opacity:0"/>
	</linearGradient>
	<path style="fill:url(#SVGID_00000014626299741405440270000009727437976831358365_);" d="M386.8,3216.9
		c-17.7,6.3-31.3,11.1-39,13.4c-1.6,5.8-2.3,10.5-2.4,14.1c0.1,0,0.2,0,0.3-0.1c5.7-1.2,18.4-5.6,37.2-12.2c0.2-0.9,0.3-1.8,0.5-2.7
		C384.1,3225.6,385.3,3221.4,386.8,3216.9z"/>
	
		<linearGradient id="SVGID_00000170237873686129510260000004163714270941432998_" gradientUnits="userSpaceOnUse" x1="359.0928" y1="3193.2351" x2="396.7255" y2="3203.3188">
		<stop  offset="3.000015e-04" style="stop-color:#000000;stop-opacity:0.4"/>
		<stop  offset="0.5281" style="stop-color:#B2B2B1;stop-opacity:0.1653"/>
		<stop  offset="0.9" style="stop-color:#FFFFFF;stop-opacity:0"/>
	</linearGradient>
	<path style="fill:url(#SVGID_00000170237873686129510260000004163714270941432998_);" d="M384.8,3188.9c-8.4,3-16.3,5.8-23.4,8.4
		c-3.1,6-5.7,11.5-7.8,16.6c9.9-3.5,21.8-7.7,35.6-12.7c1.5-0.5,3.1-1.1,4.6-1.7c2.5-5.4,5.3-11,8.5-16.8
		C396.1,3184.9,390.3,3187,384.8,3188.9z"/>
	
		<linearGradient id="SVGID_00000098922051723522504130000004400824412411293327_" gradientUnits="userSpaceOnUse" x1="386.1405" y1="3154.0103" x2="411.9383" y2="3168.9045">
		<stop  offset="3.000015e-04" style="stop-color:#000000;stop-opacity:0.4"/>
		<stop  offset="0.5281" style="stop-color:#B2B2B1;stop-opacity:0.1653"/>
		<stop  offset="0.9" style="stop-color:#FFFFFF;stop-opacity:0"/>
	</linearGradient>
	<path style="fill:url(#SVGID_00000098922051723522504130000004400824412411293327_);" d="M384,3159.9c-4.3,6.3-8.1,12.3-11.6,17.9
		c12.4-4.5,26.3-9.4,41.4-14.8c3.7-5.9,7.7-11.9,11.9-18C410.8,3150.3,396.8,3155.3,384,3159.9z"/>
	
		<linearGradient id="SVGID_00000010993811084298016180000003292336535750987964_" gradientUnits="userSpaceOnUse" x1="415.9078" y1="3114.656" x2="438.1485" y2="3130.2292">
		<stop  offset="3.000015e-04" style="stop-color:#000000;stop-opacity:0.4"/>
		<stop  offset="0.5281" style="stop-color:#B2B2B1;stop-opacity:0.1653"/>
		<stop  offset="0.9" style="stop-color:#FFFFFF;stop-opacity:0"/>
	</linearGradient>
	<path style="fill:url(#SVGID_00000010993811084298016180000003292336535750987964_);" d="M413.5,3120.2
		c-5.3,6.6-10.2,12.9-14.7,18.9c13.2-4.6,27.2-9.5,41.8-14.6c4.7-6.2,9.6-12.4,14.7-18.8C440.8,3110.7,426.8,3115.5,413.5,3120.2z"
		/>
</g>
<path class="st0" d="M322.7,3245.2c-8.2-5-10.1-10-10.6-16.5c-1.2-14.2,5.9-35.8,20.4-62.4c16.4-29.9,41.7-66.8,73.2-102.7
	c18.7-21.4,36.6-41.1,52.4-58.4c24.6-27.1,45.9-50.5,59.5-68.4c4.3-5.7,9.6-12.5,12.1-16.5c1.2-1.9,15.2-17.9,10.3-33.8
	c3.9,2.3,6.8,5.6,8.4,9.9c7.6,20.6-25,56.4-80.7,117.6c-15.8,17.3-33.6,37-52.3,58.3c-47.3,54-71.6,96.4-82.6,123.1
	C317.9,3229,322.7,3245.2,322.7,3245.2z"/>
<path class="st0" d="M302.3,3226.8c-7.8-5.7-10.1-11-10.6-17.5c-1.2-14.2,5.9-35.8,20.4-62.4c16.4-29.9,41.7-68.8,73.2-104.7
	c21-24,41.4-46.1,59.3-65.6c24.1-26.1,44.8-48.7,58.5-66.3c4.7-6.1,10.2-13.2,12.8-17.3c6.6-10.8,12.9-17.6,10.2-31.8
	c3.7,2.3,6.5,5.6,8,9.7c7.1,19.2-22.3,52.1-79.9,114.5c-17.9,19.4-38.2,41.5-59.1,65.3c-46.3,52.9-70.6,96.8-81.9,123.5
	C296.9,3211,302.3,3226.8,302.3,3226.8z"/>
<path class="st0" d="M281.9,3207.4c-7.5-4.9-10.1-11-10.6-17.5c-1.2-14.2,5.9-35.8,20.4-62.4c16.4-29.9,41.7-70.8,73.2-106.7
	c22.9-26.1,45.5-50.3,65.5-71.7c23.8-25.5,44.3-47.5,58-64.8c5.3-6.8,11.1-14.2,13.7-18.5c6.1-10.1,11.9-19.3,9.7-29.9
	c3.7,2.3,6.4,5.5,8,9.6c6.9,18.7-22.4,51-79.8,112.5c-19.9,21.3-42.4,45.4-65.2,71.4c-44.7,51-68.9,96-80.7,122.6
	C274.1,3192.7,281.9,3207.4,281.9,3207.4z"/>
<path class="st0" d="M426.3,2930c5.9-6.3,11.5-12.2,16.8-17.8c4.8-5.1,9.3-10,13.6-14.6c5.6-6.1,10.8-11.9,15.5-17.2
	c4.3-5,8.3-9.6,11.7-13.9c16.4-20.5,23.1-34.2,19.4-44.2c-2.4-6.5-8-10.9-15.6-12.6c-3.3-0.7-7.5-0.4-10-0.2c3.9,0,24,9.5,8.4,31.7
	c-1.7,2.8-3.9,6.1-6.7,9.9c-1.7,2.3-3.6,4.8-5.8,7.5c-2.4,3-5,6.1-7.8,9.4c-3.9,4.5-8.1,9.3-12.6,14.3c-5.1,5.6-10.5,11.4-16.2,17.6
	c-4.5,4.8-9.2,9.8-14.1,14.9c-2.4,2.5-4.8,5.1-7.3,7.7c-3.2,3.4-6.6,6.9-9.9,10.5c-4.7,5-9.6,10.2-14.5,15.4
	c-15.1,16.1-30.9,33.2-46.6,51.2c-31.5,35.9-56.8,78.7-73.2,108.7c-14.6,26.6-21.6,48.1-20.4,62.4c0.5,6.4,3.2,13.4,10.6,18.5
	c0,0-6.1-16.4,11.7-55.5c11.7-26.7,35.9-73.9,81.1-125.5c19.6-22.3,39.3-43.5,57.6-62.9c4.5-4.7,8.8-9.3,13.1-13.8
	C425.4,2930.9,425.8,2930.5,426.3,2930z"/>
<g>
	<path class="st23" d="M482.9,1321.7h-5.3c-72,5-164.6,20.9-275.3,47.2c-90.6,21.5-193.6,50.1-306.1,84.9
		c-191.4,59.2-346,116.7-347.6,117.2l4.5,12.2c1.5-0.6,155.8-57.9,346.9-117c318-98.3,492.3-126,582.7-131.8l14.5-0.4
		C497.3,1334,483,1321.7,482.9,1321.7z"/>
	<path class="st23" d="M485.9,1349.9c-72.7,4.6-167.2,20.6-280.6,47.6c-90.6,21.5-193.6,50.1-306.1,84.9
		c-191.4,59.2-346,116.7-347.6,117.2l4.5,12.2c1.5-0.6,155.8-57.9,346.9-117c310.7-96.1,484.3-124.7,576.4-131.4
		c2.8-3.9,11-13.7,11-13.7L485.9,1349.9z"/>
	<path class="st23" d="M208.1,1426c-90.6,21.5-193.6,50.1-306.1,84.9c-191.4,59.2-346,116.7-347.6,117.2l4.5,12.2
		c1.5-0.6,155.9-57.9,346.9-117c280.6-86.8,449.3-118.5,547.2-128.8c4.5-5,8.8-9.8,12.6-14.3C396.5,1386.4,310,1401.8,208.1,1426z"
		/>
	<path class="st23" d="M211,1454.5c-90.6,21.5-193.6,50.1-306.1,84.9c-191.4,59.2-346,116.7-347.6,117.2l4.5,12.2
		c1.5-0.6,155.9-57.9,346.9-117c251.2-77.7,412.7-111.2,514-124.8c4.9-5.1,9.6-10.1,14.1-14.9C373.6,1419.7,297.9,1433.9,211,1454.5
		z"/>
	<path class="st23" d="M213.8,1483.1c-90.6,21.5-193.6,50.1-306.1,84.9c-191.4,59.2-346,116.7-347.6,117.2l4.5,12.2
		c1.5-0.6,155.8-57.9,346.9-117c224.4-69.4,377.2-103.6,479.5-119.7c4.9-5.3,9.8-10.4,14.5-15.4
		C349.8,1453.4,285.6,1466,213.8,1483.1z"/>
	<g>
		
			<linearGradient id="SVGID_00000123406194034651494710000013312934317258337720_" gradientUnits="userSpaceOnUse" x1="440.799" y1="1347.2625" x2="488.9248" y2="1319.4771">
			<stop  offset="0.3443" style="stop-color:#FFFFFF;stop-opacity:0"/>
			<stop  offset="0.5287" style="stop-color:#A2A2A2;stop-opacity:6.580861e-02"/>
			<stop  offset="0.7131" style="stop-color:#4B4B4B;stop-opacity:0.1316"/>
			<stop  offset="0.8422" style="stop-color:#151515;stop-opacity:0.1777"/>
			<stop  offset="0.9047" style="stop-color:#000000;stop-opacity:0.2"/>
		</linearGradient>
		<path style="fill:url(#SVGID_00000123406194034651494710000013312934317258337720_);" d="M435.9,1338.7c17.7-2,33.3-3.4,47-4.3
			l14.5-0.4c0,0-14.9-12.3-14.9-12.3h-4.7c-9.8,0.7-20,1.6-30.6,2.7c-2.2,3.1-4.8,6.4-7.6,10
			C438.3,1335.7,437.1,1337.2,435.9,1338.7z"/>
		
			<linearGradient id="SVGID_00000043414925944355166560000001242415778997135786_" gradientUnits="userSpaceOnUse" x1="431.9616" y1="1344.4918" x2="465.9141" y2="1377.2793">
			<stop  offset="0.4" style="stop-color:#FFFFFF;stop-opacity:0"/>
			<stop  offset="0.4105" style="stop-color:#FAFAFA;stop-opacity:3.506792e-03"/>
			<stop  offset="0.6328" style="stop-color:#909090;stop-opacity:7.759827e-02"/>
			<stop  offset="0.8114" style="stop-color:#434343;stop-opacity:0.1371"/>
			<stop  offset="0.9375" style="stop-color:#131313;stop-opacity:0.1792"/>
			<stop  offset="1" style="stop-color:#000000;stop-opacity:0.2"/>
		</linearGradient>
		<path style="fill:url(#SVGID_00000043414925944355166560000001242415778997135786_);" d="M420.5,1356.3c-2.6,2.9-5.4,6-8.3,9.1
			c-1.8,1.9-3.6,3.9-5.5,5.9c28.5-4,52.5-6.5,72.6-8c2.8-3.9,11-13.7,11-13.7l-4.5,0.2C465.7,1351.2,443.9,1353.3,420.5,1356.3z"/>
		
			<linearGradient id="SVGID_00000072987476189556220770000014133327726293478067_" gradientUnits="userSpaceOnUse" x1="403.9889" y1="1375.7797" x2="437.068" y2="1410.0341">
			<stop  offset="0.4" style="stop-color:#FFFFFF;stop-opacity:0"/>
			<stop  offset="0.4105" style="stop-color:#FAFAFA;stop-opacity:3.506792e-03"/>
			<stop  offset="0.6328" style="stop-color:#909090;stop-opacity:7.759827e-02"/>
			<stop  offset="0.8114" style="stop-color:#434343;stop-opacity:0.1371"/>
			<stop  offset="0.9375" style="stop-color:#131313;stop-opacity:0.1792"/>
			<stop  offset="1" style="stop-color:#000000;stop-opacity:0.2"/>
		</linearGradient>
		<path style="fill:url(#SVGID_00000072987476189556220770000014133327726293478067_);" d="M380.6,1399.2c-1.9,2-3.8,4-5.7,6
			c30.1-4.9,56-8.4,78.3-10.7c4.5-5,8.8-9.8,12.6-14.3c-23.4,2.1-48.8,5.3-76.2,9.4c-2.5,2.7-5.1,5.4-7.8,8.3
			C381.4,1398.3,381,1398.8,380.6,1399.2z"/>
		
			<linearGradient id="SVGID_00000096756715751364500830000003982944853563771024_" gradientUnits="userSpaceOnUse" x1="374.0989" y1="1408.7762" x2="404.9982" y2="1443.0934">
			<stop  offset="0.4" style="stop-color:#FFFFFF;stop-opacity:0"/>
			<stop  offset="0.4105" style="stop-color:#FAFAFA;stop-opacity:3.506792e-03"/>
			<stop  offset="0.6328" style="stop-color:#909090;stop-opacity:7.759827e-02"/>
			<stop  offset="0.8114" style="stop-color:#434343;stop-opacity:0.1371"/>
			<stop  offset="0.9375" style="stop-color:#131313;stop-opacity:0.1792"/>
			<stop  offset="1" style="stop-color:#000000;stop-opacity:0.2"/>
		</linearGradient>
		<path style="fill:url(#SVGID_00000096756715751364500830000003982944853563771024_);" d="M422.9,1427c4.9-5.1,9.6-10.1,14.1-14.9
			c-24.7,3-51.3,6.9-79.7,11.9c-4.9,5.2-9.9,10.6-14.9,16C372.6,1434.4,399.4,1430.2,422.9,1427z"/>
		
			<linearGradient id="SVGID_00000170967775855125156000000013835797207758205835_" gradientUnits="userSpaceOnUse" x1="343.8179" y1="1443.1632" x2="371.959" y2="1476.7004">
			<stop  offset="0.4" style="stop-color:#FFFFFF;stop-opacity:0"/>
			<stop  offset="0.4105" style="stop-color:#FAFAFA;stop-opacity:3.506792e-03"/>
			<stop  offset="0.6328" style="stop-color:#909090;stop-opacity:7.759827e-02"/>
			<stop  offset="0.8114" style="stop-color:#434343;stop-opacity:0.1371"/>
			<stop  offset="0.9375" style="stop-color:#131313;stop-opacity:0.1792"/>
			<stop  offset="1" style="stop-color:#000000;stop-opacity:0.2"/>
		</linearGradient>
		<path style="fill:url(#SVGID_00000170967775855125156000000013835797207758205835_);" d="M391.1,1460.6
			c4.9-5.3,9.8-10.4,14.5-15.4c-25.2,3.7-52.2,8.3-80.7,13.8c-4.8,5.3-9.6,10.7-14.4,16.2C340.4,1469.2,367.1,1464.4,391.1,1460.6z"
			/>
	</g>
</g>
<path class="st7" d="M1102.6,1593c-101.2,0.7-198.4,12.2-305.8,36.2c-129.6,28.9-284.6,84.5-367.8,114.3
	c-33.2,11.9-57.2,20.5-64.5,22.1c-11.7,2.6-15.9,0.5-17.1-0.5c-0.5-0.4-0.8-0.8-1.1-1.2c1.5,5.1,5.4,12.5,16.4,15.1
	c0,0,0.3,0,4.6-0.8c8.2-1.8,31.2-10.1,66.1-22.6c83-29.7,237.5-85.1,366.3-113.9c106.5-23.8,202.7-35.2,303-35.9
	c125.8-0.9,255.5,15.3,396.4,49.5l3.1-12.6C1360.2,1608.4,1229.5,1592.1,1102.6,1593z"/>
<path class="st7" d="M345.6,1756.7c8.2-1.8,31.2-10.1,66.1-22.6c83-29.7,237.5-85.1,366.3-113.9c76-17,179-36.9,301.8-40.2
	c126.9-3.4,257,10.9,397.6,43.8l3-12.7c-141.7-33.1-272.9-47.5-401-44.1c-123.9,3.3-227.7,23.4-304.3,40.5
	c-129.6,28.9-284.6,84.5-367.8,114.3c-27.8,10-49.1,17.6-59.7,20.8c-1.6,5.8-2.3,10.5-2.4,14.1
	C345.4,1756.7,345.5,1756.7,345.6,1756.7z"/>
<path class="st7" d="M389.2,1713.5c83-29.7,237.5-85.1,366.3-113.9c84.6-18.9,184.7-39.5,302.6-45.3c129.3-6.3,259.1,6.4,396.8,38.9
	l3-12.7c-138.9-32.8-269.9-45.6-400.4-39.2c-118.9,5.8-219.7,26.6-304.8,45.6c-129.6,28.9-284.6,84.5-367.8,114.3
	c-8.4,3-16.3,5.8-23.4,8.4c-3.1,6-5.7,11.5-7.8,16.6C363.5,1722.7,375.4,1718.4,389.2,1713.5z"/>
<path class="st7" d="M733.8,1578c99.4-22.2,190.7-41.2,299.8-48.3c128.7-8.5,259.5,2,399.7,31.9l2.7-12.7
	c-141.4-30.2-273.3-40.7-403.3-32.2c-110.1,7.2-201.8,26.3-301.8,48.6c-119.4,26.7-260.5,75.9-347,106.9
	c-4.3,6.3-8.1,12.3-11.6,17.9C456.4,1660,607.5,1606.2,733.8,1578z"/>
<path class="st7" d="M712.2,1556.4c86.4-19.3,184.3-41.1,298.5-50.1c128.4-10.1,259.6-2.3,401.2,23.7l2.4-12.8
	c-142.7-26.3-275.1-34.1-404.6-23.9c-115.2,9-213.6,31-300.3,50.4c-98.1,21.9-210.8,59.1-295.9,88.8c-5.3,6.6-10.2,12.9-14.7,18.9
	C485.3,1620.9,607.3,1579.8,712.2,1556.4z"/>
<path class="st6" d="M346.2,1764c-0.6-2.1-0.8-3.9-0.9-4.7c-0.1-0.8-0.1-1.6-0.1-2.6c0.1-3.6,0.8-8.3,2.4-14.1
	c1.3-4.8,3.2-10.3,5.8-16.5c2.1-5,4.7-10.6,7.8-16.6c3.1-6,6.8-12.5,11-19.5c3.4-5.7,7.3-11.6,11.6-17.9c4.5-6.6,9.4-13.5,14.8-20.8
	c4.5-6.1,9.4-12.4,14.7-18.9c6.8-8.5,14.2-17.3,22.3-26.6c15.7-17.9,30.7-34.6,43.9-49.4c61-68,89.6-100.9,82-121.5
	c-1.5-4.1-4.2-7.4-8-9.6c4.1,10.7-4.5,23.5-8.8,31.4c-2.8,5-8.7,12.9-13.7,19.6c-13.8,18.4-34.7,41.8-61.2,71.3
	c-13.2,14.8-28.3,31.5-44,49.5c-12.8,14.6-24.6,29.1-35.2,43.1c-4.8,6.3-9.3,12.5-13.5,18.6c-4.8,6.9-9.4,13.7-13.5,20.4
	c-3.8,6-7.2,11.8-10.3,17.5c-0.2,0.4-0.4,0.8-0.6,1.1c-3.4,6.2-6.4,12.1-8.9,17.8c-2.6,5.6-4.7,10.9-6.4,15.9
	c-1.7,4.8-3,9.3-3.8,13.5c-1,4.8-1.4,9.1-1.3,13c0,0.7,0,1.5,0.1,2.2c0.5,6.2,2.6,11,6.3,14.2c1.7,1.7,6.4,5.2,16.2,5.2
	c2.3,0,4.8-0.2,7.7-0.6C351.7,1776.5,347.7,1769.1,346.2,1764z"/>
<g>
	
		<linearGradient id="SVGID_00000137843745317278768170000004758012118988457663_" gradientUnits="userSpaceOnUse" x1="358.2026" y1="1778.8629" x2="377.5346" y2="1755.824">
		<stop  offset="3.000000e-04" style="stop-color:#000000;stop-opacity:0.4"/>
		<stop  offset="5.686107e-02" style="stop-color:#20201F;stop-opacity:0.366"/>
		<stop  offset="0.152" style="stop-color:#484746;stop-opacity:0.3088"/>
		<stop  offset="0.274" style="stop-color:#717171;stop-opacity:0.2355"/>
		<stop  offset="0.4181" style="stop-color:#A5A5A5;stop-opacity:0.1489"/>
		<stop  offset="0.5791" style="stop-color:#E0E0E0;stop-opacity:5.219841e-02"/>
		<stop  offset="0.6659" style="stop-color:#FFFFFF;stop-opacity:0"/>
	</linearGradient>
	<path style="fill:url(#SVGID_00000137843745317278768170000004758012118988457663_);" d="M382.5,1760c-8.7,3-14.9,4.9-18,5.6
		c-11.7,2.6-15.9,0.5-17.1-0.5c-0.5-0.4-0.8-0.8-1.1-1.2c1.5,5.1,5.4,12.5,16.4,15.1c0,0,0.3,0,4.6-0.8c3.9-0.9,11.2-3.2,21.6-6.8
		c-0.2-0.2-0.4-0.3-0.5-0.5C385.3,1768.4,383.3,1764.7,382.5,1760z"/>
	
		<linearGradient id="SVGID_00000097478583763191131850000001673495841686738089_" gradientUnits="userSpaceOnUse" x1="346.5952" y1="1741.2843" x2="385.4193" y2="1744.6809">
		<stop  offset="3.000000e-04" style="stop-color:#000000;stop-opacity:0.4"/>
		<stop  offset="0.9" style="stop-color:#FFFFFF;stop-opacity:0"/>
	</linearGradient>
	<path style="fill:url(#SVGID_00000097478583763191131850000001673495841686738089_);" d="M386.8,1729.2
		c-17.7,6.3-31.3,11.1-39,13.4c-1.6,5.8-2.3,10.5-2.4,14.1c0.1,0,0.2,0,0.3-0.1c5.7-1.2,18.4-5.6,37.2-12.2c0.2-0.9,0.3-1.8,0.5-2.7
		C384.1,1737.9,385.3,1733.7,386.8,1729.2z"/>
	
		<linearGradient id="SVGID_00000155865347543176873160000013231807046954745771_" gradientUnits="userSpaceOnUse" x1="359.0928" y1="1705.5327" x2="396.7255" y2="1715.6165">
		<stop  offset="0" style="stop-color:#000000;stop-opacity:0.4"/>
		<stop  offset="0.528" style="stop-color:#B2B2B1;stop-opacity:0.1653"/>
		<stop  offset="0.9" style="stop-color:#FFFFFF;stop-opacity:0"/>
	</linearGradient>
	<path style="fill:url(#SVGID_00000155865347543176873160000013231807046954745771_);" d="M384.8,1701.2c-8.4,3-16.3,5.8-23.4,8.4
		c-3.1,6-5.7,11.5-7.8,16.6c9.9-3.5,21.8-7.7,35.6-12.7c1.5-0.5,3.1-1.1,4.6-1.7c2.5-5.4,5.3-11,8.5-16.8
		C396.1,1697.2,390.3,1699.3,384.8,1701.2z"/>
	
		<linearGradient id="SVGID_00000069379246314075632850000013030081371719605933_" gradientUnits="userSpaceOnUse" x1="386.1405" y1="1666.3077" x2="411.9383" y2="1681.2021">
		<stop  offset="0" style="stop-color:#000000;stop-opacity:0.4"/>
		<stop  offset="0.528" style="stop-color:#B2B2B1;stop-opacity:0.1653"/>
		<stop  offset="0.9" style="stop-color:#FFFFFF;stop-opacity:0"/>
	</linearGradient>
	<path style="fill:url(#SVGID_00000069379246314075632850000013030081371719605933_);" d="M384,1672.2c-4.3,6.3-8.1,12.3-11.6,17.9
		c12.4-4.5,26.3-9.4,41.4-14.8c3.7-5.9,7.7-11.9,11.9-18C410.8,1662.6,396.8,1667.6,384,1672.2z"/>
	
		<linearGradient id="SVGID_00000147220138928761553910000001083999125447569054_" gradientUnits="userSpaceOnUse" x1="415.9078" y1="1626.9536" x2="438.1485" y2="1642.5267">
		<stop  offset="0" style="stop-color:#000000;stop-opacity:0.4"/>
		<stop  offset="0.528" style="stop-color:#B2B2B1;stop-opacity:0.1653"/>
		<stop  offset="0.9" style="stop-color:#FFFFFF;stop-opacity:0"/>
	</linearGradient>
	<path style="fill:url(#SVGID_00000147220138928761553910000001083999125447569054_);" d="M413.5,1632.5
		c-5.3,6.6-10.2,12.9-14.7,18.9c13.2-4.6,27.2-9.5,41.8-14.6c4.7-6.2,9.6-12.4,14.7-18.8C440.8,1623,426.8,1627.8,413.5,1632.5z"/>
</g>
<path class="st6" d="M322.7,1757.5c-8.2-5-10.1-10-10.6-16.5c-1.2-14.2,5.9-35.8,20.4-62.4c16.4-29.9,41.7-66.8,73.2-102.7
	c18.7-21.4,36.6-41.1,52.4-58.4c24.6-27.1,45.9-50.5,59.5-68.4c4.3-5.7,9.6-12.5,12.1-16.5c1.2-1.9,15.2-17.9,10.3-33.8
	c3.9,2.3,6.8,5.6,8.4,9.9c7.6,20.6-25,56.4-80.7,117.6c-15.8,17.3-33.6,37-52.3,58.3c-47.3,54-71.6,96.4-82.6,123.1
	C317.9,1741.3,322.7,1757.5,322.7,1757.5z"/>
<path class="st6" d="M302.3,1739.1c-7.8-5.7-10.1-11-10.6-17.5c-1.2-14.2,5.9-35.8,20.4-62.4c16.4-29.9,41.7-68.8,73.2-104.7
	c21-24,41.4-46.1,59.3-65.6c24.1-26.1,44.8-48.7,58.5-66.3c4.7-6.1,10.2-13.2,12.8-17.3c6.6-10.8,12.9-17.6,10.2-31.8
	c3.7,2.3,6.5,5.6,8,9.7c7.1,19.2-22.3,52.1-79.9,114.5c-17.9,19.4-38.2,41.5-59.1,65.3c-46.3,52.9-70.6,96.8-81.9,123.5
	C296.9,1723.3,302.3,1739.1,302.3,1739.1z"/>
<path class="st6" d="M281.9,1719.7c-7.5-4.9-10.1-11-10.6-17.5c-1.2-14.2,5.9-35.8,20.4-62.4c16.4-29.9,41.7-70.8,73.2-106.7
	c22.9-26.1,45.5-50.3,65.5-71.7c23.8-25.5,44.3-47.5,58-64.8c5.3-6.8,11.1-14.2,13.7-18.5c6.1-10.1,11.9-19.3,9.7-29.9
	c3.7,2.3,6.4,5.5,8,9.6c6.9,18.7-22.4,51-79.8,112.5c-19.9,21.3-42.4,45.4-65.2,71.4c-44.7,51-68.9,96-80.7,122.6
	C274.1,1705,281.9,1719.7,281.9,1719.7z"/>
<path class="st6" d="M426.3,1442.3c5.9-6.3,11.5-12.2,16.8-17.8c4.8-5.1,9.3-10,13.6-14.6c5.6-6.1,10.8-11.9,15.5-17.2
	c4.3-5,8.3-9.6,11.7-13.9c16.4-20.5,23.1-34.2,19.4-44.2c-2.4-6.5-8-10.9-15.6-12.6c-3.3-0.7-7.5-0.4-10-0.2c3.9,0,24,9.5,8.4,31.7
	c-1.7,2.8-3.9,6.1-6.7,9.9c-1.7,2.3-3.6,4.8-5.8,7.5c-2.4,3-5,6.1-7.8,9.4c-3.9,4.5-8.1,9.3-12.6,14.3c-5.1,5.6-10.5,11.4-16.2,17.6
	c-4.5,4.8-9.2,9.8-14.1,14.9c-2.4,2.5-4.8,5.1-7.3,7.7c-3.2,3.4-6.6,6.9-9.9,10.5c-4.7,5-9.6,10.2-14.5,15.4
	c-15.1,16.1-30.9,33.2-46.6,51.2c-31.5,35.9-56.8,78.7-73.2,108.7c-14.6,26.6-21.6,48.1-20.4,62.4c0.5,6.4,3.2,13.4,10.6,18.5
	c0,0-6.1-16.4,11.7-55.5c11.7-26.7,35.9-73.9,81.1-125.5c19.6-22.3,39.3-43.5,57.6-62.9c4.5-4.7,8.8-9.3,13.1-13.8
	C425.4,1443.2,425.8,1442.8,426.3,1442.3z"/>
<g>
	<path class="st0" d="M678,13l4.6,2.7C742.1,56.5,813.9,117.1,896,195.9c67.2,64.5,141.5,141.3,220.9,228.2
		c135,148,239.2,275.9,240.3,277.2l-10.1,8.2c-1-1.3-105-128.9-239.8-276.6C882.9,187,746.7,74.9,671.7,24l-12.3-7.7
		C659.4,16.3,678,13,678,13z"/>
	<path class="st0" d="M661.2,35.9c60.4,40.8,133.7,102.5,217.9,183.2c67.2,64.5,141.5,141.3,220.9,228.2
		c135,148,239.2,275.9,240.3,277.2l-10.1,8.2c-1-1.3-105-128.9-239.8-276.6C871.1,215.8,736,103.2,660,50.8
		c-0.5-4.8-2.6-17.3-2.6-17.3L661.2,35.9z"/>
	<path class="st0" d="M862.1,242.2c67.2,64.5,141.5,141.3,220.9,228.2c135,148,239.2,275.9,240.3,277.2l-10.1,8.2
		c-1-1.3-105-128.9-239.8-276.7c-198-217-327.4-329.8-406.6-388.3c-1.4-6.6-2.6-12.9-3.7-18.7C719.7,112.6,786.5,169.7,862.1,242.2z
		"/>
	<path class="st0" d="M845.2,265.4c67.2,64.5,141.5,141.3,220.9,228.2c135,148,239.2,275.9,240.3,277.2l-10.1,8.2
		c-1-1.3-105-128.9-239.8-276.7c-177.2-194.2-299.5-305-380-368c-1.6-6.9-3.1-13.6-4.6-20C722.7,152.9,780.7,203.5,845.2,265.4z"/>
	<path class="st0" d="M828.2,288.5c67.2,64.5,141.5,141.3,220.9,228.2c135,148,239.2,275.9,240.3,277.2l-10.1,8.2
		c-1-1.3-105-128.9-239.8-276.6C881.2,352,766.8,245.1,686.8,179.3c-1.6-7-3.2-13.9-4.7-20.7C726.1,194,775,237.4,828.2,288.5z"/>
	<g>
		
			<linearGradient id="SVGID_00000103964528785431379050000015507159494960829108_" gradientUnits="userSpaceOnUse" x1="440.799" y1="-14.4651" x2="488.9248" y2="-42.2506" gradientTransform="matrix(-0.8622 -0.5066 -0.5066 0.8622 1074.0892 292.218)">
			<stop  offset="0.3443" style="stop-color:#FFFFFF;stop-opacity:0"/>
			<stop  offset="0.5286" style="stop-color:#A2A2A2;stop-opacity:0.1316"/>
			<stop  offset="0.7128" style="stop-color:#4B4B4B;stop-opacity:0.2632"/>
			<stop  offset="0.8419" style="stop-color:#151515;stop-opacity:0.3554"/>
			<stop  offset="0.9043" style="stop-color:#000000;stop-opacity:0.4"/>
		</linearGradient>
		<path style="fill:url(#SVGID_00000103964528785431379050000015507159494960829108_);" d="M710,51.5c-14.2-10.7-27-19.8-38.3-27.5
			l-12.3-7.7c0,0,19.1-3,19.1-3l4,2.4c8.1,5.6,16.5,11.5,25.1,17.8c0.3,3.8,0.9,8,1.5,12.4C709.4,47.8,709.7,49.6,710,51.5z"/>
		
			<linearGradient id="SVGID_00000147199993533579202620000006779498009610598844_" gradientUnits="userSpaceOnUse" x1="431.9616" y1="-17.2358" x2="465.9141" y2="15.5517" gradientTransform="matrix(-0.8622 -0.5066 -0.5066 0.8622 1074.0892 292.218)">
			<stop  offset="0.4" style="stop-color:#FFFFFF;stop-opacity:0"/>
			<stop  offset="0.4105" style="stop-color:#FAFAFA;stop-opacity:7.013583e-03"/>
			<stop  offset="0.6328" style="stop-color:#909090;stop-opacity:0.1552"/>
			<stop  offset="0.8114" style="stop-color:#434343;stop-opacity:0.2742"/>
			<stop  offset="0.9375" style="stop-color:#131313;stop-opacity:0.3583"/>
			<stop  offset="1" style="stop-color:#000000;stop-opacity:0.4"/>
		</linearGradient>
		<path style="fill:url(#SVGID_00000147199993533579202620000006779498009610598844_);" d="M714.3,74.5c0.8,3.9,1.6,7.9,2.5,12.1
			c0.5,2.6,1.1,5.2,1.7,7.9C696,76.5,676.6,62.2,660,50.8c-0.5-4.8-2.6-17.3-2.6-17.3l3.8,2.4C677.9,47.2,695.6,60,714.3,74.5z"/>
		
			<linearGradient id="SVGID_00000026844125183961041170000001305297995452666023_" gradientUnits="userSpaceOnUse" x1="403.9889" y1="14.052" x2="437.068" y2="48.3064" gradientTransform="matrix(-0.8622 -0.5066 -0.5066 0.8622 1074.0892 292.218)">
			<stop  offset="0.4" style="stop-color:#FFFFFF;stop-opacity:0"/>
			<stop  offset="0.4105" style="stop-color:#FAFAFA;stop-opacity:7.013583e-03"/>
			<stop  offset="0.6328" style="stop-color:#909090;stop-opacity:0.1552"/>
			<stop  offset="0.8114" style="stop-color:#434343;stop-opacity:0.2742"/>
			<stop  offset="0.9375" style="stop-color:#131313;stop-opacity:0.3583"/>
			<stop  offset="1" style="stop-color:#000000;stop-opacity:0.4"/>
		</linearGradient>
		<path style="fill:url(#SVGID_00000026844125183961041170000001305297995452666023_);" d="M727,131.7c0.6,2.7,1.2,5.4,1.9,8.1
			c-23.4-19.5-44-35.6-62-48.9c-1.4-6.6-2.6-12.9-3.7-18.7c19.1,13.7,39.5,29.3,60.9,46.7c0.8,3.6,1.7,7.3,2.5,11.1
			C726.7,130.5,726.8,131.1,727,131.7z"/>
		
			<linearGradient id="SVGID_00000056428158731750743320000017544137890850763444_" gradientUnits="userSpaceOnUse" x1="374.0989" y1="47.0486" x2="404.9982" y2="81.3658" gradientTransform="matrix(-0.8622 -0.5066 -0.5066 0.8622 1074.0892 292.218)">
			<stop  offset="0.4" style="stop-color:#FFFFFF;stop-opacity:0"/>
			<stop  offset="0.4105" style="stop-color:#FAFAFA;stop-opacity:7.013583e-03"/>
			<stop  offset="0.6328" style="stop-color:#909090;stop-opacity:0.1552"/>
			<stop  offset="0.8114" style="stop-color:#434343;stop-opacity:0.2742"/>
			<stop  offset="0.9375" style="stop-color:#131313;stop-opacity:0.3583"/>
			<stop  offset="1" style="stop-color:#000000;stop-opacity:0.4"/>
		</linearGradient>
		<path style="fill:url(#SVGID_00000056428158731750743320000017544137890850763444_);" d="M676.4,134.3c-1.6-6.9-3.1-13.6-4.6-20
			c19.8,15.1,40.7,32,62.7,50.6c1.6,7,3.2,14.1,4.7,21.3C716,166.1,695.1,148.9,676.4,134.3z"/>
		
			<linearGradient id="SVGID_00000070827572086066728610000005139731435072131982_" gradientUnits="userSpaceOnUse" x1="343.8179" y1="81.4355" x2="371.959" y2="114.9727" gradientTransform="matrix(-0.8622 -0.5066 -0.5066 0.8622 1074.0892 292.218)">
			<stop  offset="0.4" style="stop-color:#FFFFFF;stop-opacity:0"/>
			<stop  offset="0.4105" style="stop-color:#FAFAFA;stop-opacity:7.013583e-03"/>
			<stop  offset="0.6328" style="stop-color:#909090;stop-opacity:0.1552"/>
			<stop  offset="0.8114" style="stop-color:#434343;stop-opacity:0.2742"/>
			<stop  offset="0.9375" style="stop-color:#131313;stop-opacity:0.3583"/>
			<stop  offset="1" style="stop-color:#000000;stop-opacity:0.4"/>
		</linearGradient>
		<path style="fill:url(#SVGID_00000070827572086066728610000005139731435072131982_);" d="M686.8,179.3c-1.6-7-3.2-13.9-4.7-20.7
			c19.9,16,40.8,33.6,62.6,52.8c1.4,7,2.8,14.1,4.2,21.3C726.2,212.4,705.5,194.8,686.8,179.3z"/>
	</g>
</g>
<path class="st7" d="M6.3-67C93.2-15.1,171.2,44,251.6,119.1c97.1,90.6,202.5,217,259.2,284.9c22.6,27.1,38.9,46.6,44.4,51.8
	c8.8,8.2,13.4,8.5,15,8.3c0.6-0.1,1.1-0.3,1.5-0.5c-3.8,3.6-11,8-21.8,4.8c0,0-0.2-0.1-3.6-3.1c-6.2-5.7-21.8-24.5-45.6-53
	c-56.5-67.7-161.6-193.7-258.1-283.7C163,54.2,85.7-4.4-0.3-55.8c-108-64.5-228-116.3-366.8-158.2l3.8-12.4
	C-223.6-184.2-102.6-132.1,6.3-67z"/>
<path class="st7" d="M576,457.6c-6.2-5.7-21.8-24.5-45.6-53C473.9,337,368.8,211,272.3,120.9C215.4,67.8,136.7-1.5,32.5-66.6
	c-107.7-67.3-227.1-120.8-365-163.7l3.9-12.4c139,43.3,259.4,97.3,368,165.1C144.5-12,223.8,57.9,281.2,111.4
	c97.1,90.6,202.5,217,259.2,284.9c18.9,22.7,33.4,40.1,40.9,48.1c-1.6,5.8-3.3,10.2-5.1,13.4C576.2,457.8,576.1,457.7,576,457.6z"/>
<path class="st7" d="M560.4,398.3c-56.5-67.7-161.6-193.7-258.1-283.7C238.9,55.5,163-13.1,64.3-77.8
	c-108.3-71-226.6-125.8-361.8-167.5l3.8-12.4c136.3,42.1,255.8,97.4,365.1,169.1C171-23.4,247.4,45.6,311.1,105.1
	c97.1,90.6,202.5,217,259.2,284.9c5.7,6.9,11.1,13.3,15.9,19.1c-0.4,6.7-0.9,12.8-1.7,18.2C577.9,419.3,569.7,409.6,560.4,398.3z"/>
<path class="st7" d="M331.9,106.9C257.4,37.4,188.3-25.1,97.8-86.6C-8.9-159.2-126.9-216.4-263-261.6l4.1-12.3
	c137.2,45.6,256.3,103.4,364,176.6c91.3,62,160.7,124.9,235.6,194.8c89.5,83.5,186.1,197.4,245,267.9c0.5,7.6,0.8,14.7,0.9,21.3
	C529.4,318.1,426.5,195.2,331.9,106.9z"/>
<path class="st7" d="M361.4,99.2c-64.7-60.4-138-128.8-232-194.4C23.9-168.9-93.2-228.7-228.5-278l4.4-12.2
	c136.4,49.7,254.4,110,360.9,184.3C231.6-39.7,305.3,29.1,370.3,89.7c73.5,68.6,151.8,157.7,210.1,226.4c1.2,8.3,2.2,16.2,3.1,23.8
	C524.4,269.8,440,172.6,361.4,99.2z"/>
<path class="st6" d="M571.8,463.6c1.6-1.5,2.6-2.9,3.1-3.6c0.5-0.6,0.9-1.4,1.4-2.2c1.8-3.1,3.5-7.6,5.1-13.4
	c1.3-4.8,2.4-10.5,3.3-17.2c0.7-5.4,1.3-11.5,1.7-18.2c0.4-6.8,0.5-14.2,0.4-22.4c-0.1-6.6-0.4-13.7-0.9-21.3
	c-0.5-7.9-1.3-16.4-2.3-25.4c-0.8-7.5-1.9-15.5-3.1-23.8c-1.6-10.7-3.5-22.1-5.8-34.2c-4.5-23.4-8.9-45.4-12.9-64.8
	c-18.1-89.5-26.2-132.4-9.2-146.3c3.4-2.8,7.4-4.2,11.7-4.3c-9,7.2-8.1,22.5-8.3,31.6c-0.2,5.7,0.9,15.5,1.8,23.9
	c2.5,22.9,8.8,53.6,16.7,92.5c3.9,19.4,8.4,41.5,12.9,65c3.6,19.1,6.5,37.5,8.5,55c0.9,7.8,1.7,15.5,2.2,22.9
	c0.7,8.4,1.1,16.6,1.3,24.4c0.2,7.1,0.2,13.9,0,20.3c0,0.4,0,0.9,0,1.3c-0.2,7.1-0.7,13.7-1.3,19.8c-0.6,6.2-1.5,11.8-2.5,17
	c-1,5-2.2,9.6-3.6,13.6c-1.6,4.6-3.4,8.6-5.4,11.9c-0.4,0.6-0.8,1.3-1.2,1.9c-3.6,5.1-7.8,8.2-12.6,9c-2.4,0.6-8.1,1.2-16.6-3.8
	c-2-1.2-4.1-2.6-6.3-4.4C560.8,471.6,567.9,467.2,571.8,463.6z"/>
<g>
	
		<linearGradient id="SVGID_00000097476707339907239960000017960475393335660425_" gradientUnits="userSpaceOnUse" x1="358.2026" y1="417.1353" x2="377.5346" y2="394.0963" gradientTransform="matrix(-0.8622 -0.5066 -0.5066 0.8622 1074.0892 292.218)">
		<stop  offset="3.000000e-04" style="stop-color:#000000;stop-opacity:0.4"/>
		<stop  offset="5.686107e-02" style="stop-color:#20201F;stop-opacity:0.366"/>
		<stop  offset="0.152" style="stop-color:#484746;stop-opacity:0.3088"/>
		<stop  offset="0.274" style="stop-color:#717171;stop-opacity:0.2355"/>
		<stop  offset="0.4181" style="stop-color:#A5A5A5;stop-opacity:0.1489"/>
		<stop  offset="0.5791" style="stop-color:#E0E0E0;stop-opacity:5.219841e-02"/>
		<stop  offset="0.6659" style="stop-color:#FFFFFF;stop-opacity:0"/>
	</linearGradient>
	<path style="fill:url(#SVGID_00000097476707339907239960000017960475393335660425_);" d="M542.6,441.8c6,6.9,10.3,11.8,12.7,14
		c8.8,8.2,13.4,8.5,15,8.3c0.6-0.1,1.1-0.3,1.5-0.5c-3.8,3.6-11,8-21.8,4.8c0,0-0.2-0.1-3.6-3.1c-2.9-2.7-8-8.4-15.2-16.7
		c0.2,0,0.5-0.1,0.7-0.2C535.8,447.7,539.4,445.4,542.6,441.8z"/>
	
		<linearGradient id="SVGID_00000147930434958744396280000013887594174210460597_" gradientUnits="userSpaceOnUse" x1="346.5952" y1="379.5566" x2="385.4193" y2="382.9533" gradientTransform="matrix(-0.8622 -0.5066 -0.5066 0.8622 1074.0892 292.218)">
		<stop  offset="3.000015e-04" style="stop-color:#000000;stop-opacity:0.4"/>
		<stop  offset="0.5281" style="stop-color:#B2B2B1;stop-opacity:0.1653"/>
		<stop  offset="0.9" style="stop-color:#FFFFFF;stop-opacity:0"/>
	</linearGradient>
	<path style="fill:url(#SVGID_00000147930434958744396280000013887594174210460597_);" d="M554.4,413.1
		c12.1,14.4,21.4,25.4,26.9,31.3c-1.6,5.8-3.3,10.2-5.1,13.4c-0.1-0.1-0.2-0.1-0.2-0.2c-4.2-3.9-13-14.1-25.9-29.4
		c0.3-0.8,0.6-1.7,0.9-2.6C552.4,421.9,553.5,417.7,554.4,413.1z"/>
	
		<linearGradient id="SVGID_00000176724885775389461620000012142181298561680313_" gradientUnits="userSpaceOnUse" x1="359.0928" y1="343.8051" x2="396.7255" y2="353.8888" gradientTransform="matrix(-0.8622 -0.5066 -0.5066 0.8622 1074.0892 292.218)">
		<stop  offset="3.000015e-04" style="stop-color:#000000;stop-opacity:0.4"/>
		<stop  offset="0.5281" style="stop-color:#B2B2B1;stop-opacity:0.1653"/>
		<stop  offset="0.9" style="stop-color:#FFFFFF;stop-opacity:0"/>
	</linearGradient>
	<path style="fill:url(#SVGID_00000176724885775389461620000012142181298561680313_);" d="M570.3,390c5.7,6.9,11.1,13.3,15.9,19.1
		c-0.4,6.7-0.9,12.8-1.7,18.2c-6.8-8-14.9-17.7-24.3-29c-1-1.2-2.1-2.5-3.1-3.8c0.6-5.9,1-12.1,1.2-18.8
		C562.6,380.7,566.6,385.5,570.3,390z"/>
	
		<linearGradient id="SVGID_00000040574334327445872780000016635858058774396584_" gradientUnits="userSpaceOnUse" x1="386.1405" y1="304.5801" x2="411.9383" y2="319.4745" gradientTransform="matrix(-0.8622 -0.5066 -0.5066 0.8622 1074.0892 292.218)">
		<stop  offset="3.000015e-04" style="stop-color:#000000;stop-opacity:0.4"/>
		<stop  offset="0.5281" style="stop-color:#B2B2B1;stop-opacity:0.1653"/>
		<stop  offset="0.9" style="stop-color:#FFFFFF;stop-opacity:0"/>
	</linearGradient>
	<path style="fill:url(#SVGID_00000040574334327445872780000016635858058774396584_);" d="M585.8,365.4c0.5,7.6,0.8,14.7,0.9,21.3
		c-8.5-10.1-17.9-21.5-28.2-33.7c-0.2-6.9-0.6-14.1-1.1-21.5C567.5,343.5,577.1,354.9,585.8,365.4z"/>
	
		<linearGradient id="SVGID_00000012463246558101728550000010351882961769746322_" gradientUnits="userSpaceOnUse" x1="415.9078" y1="265.226" x2="438.1485" y2="280.7991" gradientTransform="matrix(-0.8622 -0.5066 -0.5066 0.8622 1074.0892 292.218)">
		<stop  offset="3.000015e-04" style="stop-color:#000000;stop-opacity:0.4"/>
		<stop  offset="0.5281" style="stop-color:#B2B2B1;stop-opacity:0.1653"/>
		<stop  offset="0.9" style="stop-color:#FFFFFF;stop-opacity:0"/>
	</linearGradient>
	<path style="fill:url(#SVGID_00000012463246558101728550000010351882961769746322_);" d="M580.4,316.2c1.2,8.3,2.2,16.2,3.1,23.8
		c-9-10.7-18.6-22-28.6-33.7c-0.9-7.7-2-15.6-3.2-23.6C561.7,294.2,571.3,305.4,580.4,316.2z"/>
</g>
<path class="st6" d="M595.4,469.9c9.6-0.1,13.8-3.5,17.5-8.8c8.2-11.7,13.1-33.8,14-64.1c1-34.1-2.1-78.7-11.1-125.6
	c-5.3-27.9-10.8-54-15.6-77c-7.5-35.8-14-66.7-16.7-89.2c-0.8-7.1-2-15.6-2-20.4c0-2.3-4-23.2,8.3-34.3c-4.6,0-8.8,1.4-12.3,4.3
	c-17,13.9-7,61.3,10,142.3c4.8,22.9,10.3,48.9,15.6,76.7c13.4,70.5,12.9,119.4,8.9,148C607.7,458.4,595.4,469.9,595.4,469.9z"/>
<path class="st6" d="M622.3,464.4c9.6-1,14.3-4.4,18-9.7c8.2-11.7,13.1-33.8,14-64.1c1-34.1-1.1-80.4-10.1-127.3
	c-6-31.3-12.3-60.7-17.9-86.6c-7.5-34.7-14-64.7-16.8-86.7c-1-7.7-2.1-16.5-2.2-21.4C607,55.9,605,46.9,614.5,36
	c-4.4,0.1-8.4,1.5-11.8,4.3c-15.8,12.9-7.2,56.2,10.8,139.2c5.6,25.8,11.9,55.1,17.9,86.3c13.2,69,11.8,119.2,8.1,148
	C634.9,453.5,622.3,464.4,622.3,464.4z"/>
<path class="st6" d="M649.7,458c8.9-0.5,14.3-4.4,18-9.7c8.2-11.7,13.1-33.8,14-64.1c1-34.1-0.1-82.1-9.1-129
	c-6.5-34.2-13.7-66.5-20.1-95c-7.6-34-14.2-63.4-17.2-85.3c-1.2-8.5-2.4-17.8-2.4-22.9c-0.1-11.8-0.5-22.7,6.8-30.7
	c-4.3,0.1-8.4,1.5-11.7,4.3C612.6,38.2,621.4,81,639.8,163c6.4,28.4,13.6,60.6,20,94.6c12.7,66.6,10.7,117.6,7.5,146.6
	C663.9,449.3,649.7,458,649.7,458z"/>
<path class="st6" d="M665.7,145.7c-1.9-8.4-3.8-16.4-5.5-23.9c-1.5-6.8-3-13.3-4.3-19.5c-1.8-8.2-3.3-15.7-4.6-22.6
	c-1.2-6.5-2.3-12.5-3.1-18c-3.8-26-2.6-41.2,5.7-48c5.4-4.4,12.4-5.4,19.8-2.9c3.2,1.1,6.7,3.4,8.7,4.8c-3.3-2-25.5-4-23.3,23.1
	c0,3.2,0.3,7.2,0.8,12c0.3,2.8,0.7,5.9,1.2,9.4c0.6,3.8,1.2,7.8,2,12c1,5.9,2.3,12.1,3.7,18.7c1.5,7.4,3.2,15.2,5.1,23.4
	c1.4,6.4,3,13.1,4.6,20c0.8,3.4,1.6,6.8,2.4,10.3c1.1,4.6,2.1,9.3,3.2,14.1c1.5,6.7,3.1,13.6,4.7,20.7c4.8,21.5,9.8,44.3,14.2,67.7
	c8.9,46.9,9.1,96.6,8,130.8c-0.9,30.3-5.7,52.5-14,64.1c-3.7,5.3-9.5,9.9-18.5,10.5c0,0,13.6-11.1,18-53.8
	c3.4-28.9,6.5-81.9-6.3-149.2c-5.6-29.2-11.9-57.5-17.8-83.4c-1.5-6.3-2.9-12.5-4.3-18.6C666,146.9,665.9,146.3,665.7,145.7z"/>
</svg>
