<svg width="24" height="24" viewBox="0 0 24 24" fill="none" xmlns="http://www.w3.org/2000/svg">
<g clip-path="url(#clip0_2275_5271)">
<path d="M23.1713 0.87854H0.46875V23.6633H23.1713V16.1443C23.2615 16.0139 23.3058 15.8472 23.3058 15.6435C23.3058 15.41 23.2615 15.2658 23.1713 15.1434" fill="url(#paint0_radial_2275_5271)"/>
<path d="M2.51557 10.7373L2.07915 9.67285L1.64515 10.7373M12.1377 10.3138C12.0499 10.3669 11.9461 10.3685 11.8221 10.3685H11.0467V9.77591H11.8325C11.9436 9.77591 12.0596 9.78074 12.1353 9.82422C12.2182 9.86287 12.2689 9.94581 12.2689 10.0601C12.2689 10.1745 12.2198 10.2711 12.1377 10.3138ZM17.6678 10.7373L17.2266 9.67285L16.7877 10.7373H17.6686H17.6678ZM7.35964 11.8896H6.70582L6.70341 9.79846L5.77823 11.8896H5.21781L4.29023 9.79685V11.8896H2.99224L2.74746 11.2945H1.41727L1.16927 11.8896H0.475997L1.61857 9.22032H2.56629L3.6517 11.7478V9.22032H4.69282L5.52782 11.0312L6.29517 9.22032H7.35723V11.8896H7.35964ZM9.96688 11.8896H7.83552V9.22032H9.96688V9.77591H8.47324V10.2574H9.93065V10.805H8.47324V11.338H9.96688V11.8904V11.8896ZM12.9727 9.93856C12.9727 10.3645 12.6885 10.5843 12.5234 10.6504C12.6627 10.7035 12.7827 10.7977 12.839 10.875C12.9292 11.0079 12.9445 11.1262 12.9445 11.3646V11.8888H12.3012L12.2987 11.5522C12.2987 11.3911 12.314 11.1609 12.1981 11.032C12.1047 10.9378 11.963 10.9177 11.7327 10.9177H11.0475V11.8888H10.4097V9.21952H11.8776C12.2037 9.21952 12.4437 9.22838 12.6506 9.34754C12.8527 9.46671 12.9735 9.64064 12.9735 9.93856H12.9727ZM13.9937 11.8896H13.3423V9.22032H13.9937V11.8896ZM21.5473 11.8896H20.643L19.4336 9.88622V11.8896H18.134L17.886 11.2945H16.5607L16.3199 11.8896H15.5735C15.2635 11.8896 14.8705 11.8211 14.6483 11.5941C14.4237 11.367 14.3077 11.0602 14.3077 10.5747C14.3077 10.1785 14.3778 9.81698 14.6515 9.53113C14.8577 9.31775 15.1805 9.21952 15.6202 9.21952H16.2378V9.79121H15.6331C15.4004 9.79121 15.2691 9.82583 15.1419 9.94903C15.0332 10.0618 14.9583 10.2735 14.9583 10.5537C14.9583 10.8339 15.0155 11.0457 15.1338 11.181C15.2321 11.2865 15.4108 11.3187 15.5783 11.3187H15.865L16.7644 9.21952H17.7201L18.8007 11.7446V9.21952H19.7726L20.8942 11.0787V9.21952H21.5481V11.8888L21.5473 11.8896ZM0.46875 12.4137H1.55899L1.80458 11.8211H2.35453L2.59931 12.4137H4.74436V11.9604L4.936 12.4154H6.04959L6.24122 11.9532V12.4129H11.5724L11.57 11.4395H11.6731C11.7456 11.4419 11.7665 11.4483 11.7665 11.5683V12.4129H14.5235V12.1867C14.7457 12.3058 15.092 12.4129 15.5469 12.4129H16.7072L16.9552 11.8203H17.5052L17.7483 12.4129H19.9836V11.8493L20.3217 12.4129H22.1133V8.6897H20.3403V9.12934L20.0923 8.6897H18.2733V9.12934L18.0454 8.6897H15.5888C15.1773 8.6897 14.8158 8.74687 14.5243 8.9071V8.6897H12.8286V8.9071C12.6426 8.74203 12.3897 8.6897 12.1079 8.6897H5.91351L5.49802 9.6511L5.07127 8.6897H3.12027V9.12934L2.90609 8.6897H1.24174L0.46875 10.4611V12.4145V12.4137Z" fill="white"/>
<path d="M23.1722 14.3833H22.0095C21.8936 14.3833 21.8163 14.3874 21.751 14.4316C21.6834 14.4751 21.6576 14.5387 21.6576 14.6241C21.6576 14.7247 21.7148 14.7932 21.7969 14.823C21.8646 14.8463 21.9362 14.8528 22.0425 14.8528L22.3879 14.8624C22.7366 14.8713 22.9701 14.9309 23.1118 15.0774C23.1376 15.0975 23.1529 15.1209 23.1714 15.1434M23.1714 16.1443C23.0168 16.3706 22.7141 16.4857 22.3058 16.4857H21.0739V15.9132H22.301C22.4226 15.9132 22.5079 15.8971 22.5595 15.8472C22.6037 15.8061 22.6351 15.7457 22.6351 15.6733C22.6351 15.5952 22.6037 15.534 22.557 15.4969C22.5111 15.4559 22.4435 15.4373 22.3324 15.4373C21.7333 15.4172 20.9861 15.4559 20.9861 14.6112C20.9861 14.2239 21.2317 13.8165 21.9016 13.8165H23.173V13.285H21.9918C21.6351 13.285 21.3766 13.3704 21.193 13.5032V13.285H19.4466C19.1672 13.285 18.8394 13.3543 18.684 13.5032V13.285H15.5647V13.5032C15.3167 13.3245 14.8972 13.285 14.7039 13.285H12.6466V13.5032C12.4502 13.3132 12.0138 13.285 11.7472 13.285H9.44437L8.91777 13.8551L8.42419 13.285H4.98438V17.0107H8.35896L8.90167 16.4318L9.41297 17.0107L11.4936 17.0123V16.1362H11.6981C11.9743 16.1403 12.2996 16.129 12.5871 16.005V17.0107H14.3029V16.0396H14.3859C14.4914 16.0396 14.5018 16.0436 14.5018 16.1499V17.0107H19.7147C20.0456 17.0107 20.3919 16.9261 20.5835 16.7724V17.0107H22.2366C22.5804 17.0107 22.917 16.9624 23.1722 16.8392V16.1451L23.1714 16.1443ZM20.6262 15.0774C20.7502 15.2062 20.817 15.3681 20.817 15.6435C20.817 16.2176 20.4579 16.4857 19.8145 16.4857H18.5721V15.9132H19.8097C19.9305 15.9132 20.0166 15.8971 20.0706 15.8472C20.1141 15.8061 20.1463 15.7457 20.1463 15.6733C20.1463 15.5952 20.1125 15.534 20.0682 15.4969C20.0191 15.4559 19.9522 15.4373 19.8411 15.4373C19.2445 15.4172 18.4972 15.4559 18.4972 14.6112C18.4972 14.2239 18.7404 13.8165 19.4095 13.8165H20.689V14.3849H19.5182C19.4023 14.3849 19.3266 14.389 19.2622 14.4332C19.1921 14.4767 19.1663 14.5403 19.1663 14.6257C19.1663 14.7263 19.2259 14.7948 19.3056 14.8246C19.3733 14.8479 19.4449 14.8544 19.5536 14.8544L19.8975 14.864C20.2437 14.8729 20.4812 14.9325 20.6262 15.079V15.0774ZM14.8682 14.9123C14.7828 14.9631 14.6774 14.9671 14.5534 14.9671H13.778V14.3672H14.5638C14.6774 14.3672 14.7909 14.3696 14.8682 14.4155C14.9511 14.459 15.0002 14.5411 15.0002 14.6555C15.0002 14.7698 14.9511 14.8616 14.8682 14.9115V14.9123ZM15.2539 15.2449C15.3956 15.2972 15.5124 15.3914 15.5663 15.4687C15.6565 15.5992 15.6694 15.7208 15.6718 15.9559V16.4849H15.0317V16.1507C15.0317 15.9905 15.0469 15.7522 14.9286 15.6282C14.8352 15.5323 14.6935 15.5098 14.4608 15.5098H13.7788V16.4849H13.1378V13.8149H14.6113C14.9342 13.8149 15.1693 13.8293 15.3795 13.9413C15.5808 14.0629 15.7072 14.2295 15.7072 14.5339C15.7072 14.9598 15.423 15.1773 15.2547 15.2441L15.2539 15.2449ZM16.0599 13.8157H18.1896V14.368H16.6952V14.8536H18.1526V15.3987H16.6952V15.9301L18.1896 15.9325V16.4865H16.0599V13.8165V13.8157ZM11.7545 15.0476H10.93V14.368H11.7617C11.992 14.368 12.1523 14.4622 12.1523 14.6957C12.1523 14.9293 12.0001 15.0484 11.7545 15.0484V15.0476ZM10.2947 16.2425L9.31474 15.1547L10.2947 14.1015V16.2425ZM7.76473 15.9293H6.1962V15.3979H7.59725V14.8528H6.1962V14.3672H7.79613L8.49424 15.145L7.76553 15.9285L7.76473 15.9293ZM12.8375 14.6949C12.8375 15.4365 12.2843 15.5895 11.7263 15.5895H10.93V16.4849H9.68996L8.90408 15.6008L8.08761 16.4849H5.56009V13.8149H8.12626L8.91133 14.6901L9.72297 13.8149H11.7617C12.2682 13.8149 12.8375 13.955 12.8375 14.6941V14.6949Z" fill="white"/>
</g>
<defs>
<radialGradient id="paint0_radial_2275_5271" cx="0" cy="0" r="1" gradientUnits="userSpaceOnUse" gradientTransform="translate(4.47462 4.85945) scale(21.304)">
<stop stop-color="#9DD5F6"/>
<stop offset="0.07" stop-color="#98D3F5"/>
<stop offset="0.16" stop-color="#89CEF3"/>
<stop offset="0.25" stop-color="#70C6EF"/>
<stop offset="0.35" stop-color="#4EBBEA"/>
<stop offset="0.45" stop-color="#23ADE3"/>
<stop offset="0.5" stop-color="#0DA6E0"/>
<stop offset="1" stop-color="#2E77BC"/>
</radialGradient>
<clipPath id="clip0_2275_5271">
<rect width="22.8371" height="22.7847" fill="white" transform="translate(0.46875 0.87854)"/>
</clipPath>
</defs>
</svg>
