<svg width="51" height="24" viewBox="0 0 51 24" fill="none" xmlns="http://www.w3.org/2000/svg">
<g clip-path="url(#clip0_3_24)">
<path d="M15.2454 6.18663C15.0516 6.36434 14.8545 6.54043 14.6623 6.72141C13.9827 7.36217 13.4724 8.10809 13.2925 9.03663C13.043 10.3239 13.3088 11.5043 14.0915 12.5624C14.4832 13.0915 14.9502 13.5309 15.5717 13.7836C15.6445 13.813 15.7181 13.8391 15.8072 13.8733C15.7263 14.0926 15.6543 14.3086 15.5676 14.519C15.0614 15.7418 14.4022 16.8733 13.5043 17.8548C13.3375 18.0374 13.1485 18.2029 12.9547 18.3595C12.298 18.8885 11.5628 19.0932 10.7344 18.8518C10.3206 18.732 9.91167 18.5967 9.50031 18.4695C9.07587 18.3391 8.64652 18.2339 8.19918 18.2233C7.64553 18.2103 7.13276 18.3758 6.62163 18.5633C6.23318 18.7059 5.84226 18.8543 5.44072 18.9489C4.80856 19.0989 4.23691 18.904 3.7127 18.551C3.18358 18.194 2.76568 17.726 2.40257 17.21C1.49399 15.9171 0.802127 14.519 0.378503 12.9945C0.00149499 11.638 -0.104002 10.2627 0.10781 8.86951C0.295087 7.64098 0.754694 6.53228 1.62239 5.61598C2.52115 4.66706 3.62765 4.27657 4.92469 4.40538C5.57075 4.46896 6.18738 4.65565 6.80646 4.835C7.06488 4.91 7.32822 4.96625 7.58828 5.03228C7.9612 5.12684 8.32921 5.08364 8.68986 4.97848C9.19772 4.83011 9.70067 4.66136 10.2085 4.51054C10.9634 4.28717 11.7296 4.22277 12.5082 4.37358C13.5157 4.56842 14.3123 5.10891 14.9788 5.8638C15.0622 5.95837 15.144 6.05456 15.2266 6.15076C15.2339 6.15972 15.2372 6.17114 15.2454 6.18663Z" fill="#000100"/>
<path d="M11.4562 -6.97924e-05C11.4668 0.220854 11.4979 0.428735 11.4832 0.633354C11.4047 1.75102 10.9647 2.71216 10.1902 3.52085C9.84101 3.88607 9.45501 4.20727 8.97823 4.39477C8.5726 4.55455 8.1408 4.58879 7.71063 4.62058C7.70409 4.62058 7.69673 4.61406 7.69019 4.60998C7.74989 2.1146 9.01339 0.501289 11.4554 -0.00088501L11.4562 -6.97924e-05Z" fill="#000100"/>
<path d="M20.626 2.96645C21.6253 2.80014 22.9338 2.65829 24.5989 2.65829C26.645 2.65829 28.1432 3.13275 29.0952 3.98628C29.9751 4.74525 30.4985 5.90694 30.4985 7.32949C30.4985 8.75205 30.07 9.91455 29.2612 10.7444C28.167 11.9061 26.3825 12.4988 24.3609 12.4988C23.7426 12.4988 23.1718 12.4751 22.6958 12.3561V18.7588H20.626V2.96645ZM22.6958 10.6735C23.1481 10.7925 23.7189 10.8398 24.4083 10.8398C26.9059 10.8398 28.4287 9.63085 28.4287 7.42487C28.4287 5.21889 26.9296 4.29444 24.6463 4.29444C23.7426 4.29444 23.0524 4.36536 22.6958 4.46074V10.6735Z" fill="#000100"/>
<path d="M37.9643 18.7596L37.7975 17.3134H37.7264C37.0844 18.2142 35.847 19.0205 34.2057 19.0205C31.8741 19.0205 30.6851 17.3843 30.6851 15.7246C30.6851 12.9504 33.1589 11.4324 37.6078 11.4561V11.2189C37.6078 10.2699 37.3461 8.56288 34.9908 8.56288C33.9203 8.56288 32.8024 8.89467 31.9935 9.41641L31.5176 8.04114C32.4695 7.42483 33.8492 7.0213 35.2999 7.0213C38.8206 7.0213 39.6768 9.41641 39.6768 11.717V16.0091C39.6768 17.0053 39.7243 17.977 39.8674 18.7596H37.9643ZM37.6552 12.9023C35.3711 12.855 32.7786 13.2577 32.7786 15.4873C32.7786 16.839 33.6823 17.4797 34.7528 17.4797C36.2519 17.4797 37.203 16.5308 37.5358 15.5591C37.607 15.3455 37.6552 15.1083 37.6552 14.8955V12.9031V12.9023Z" fill="#000100"/>
<path d="M42.4579 7.28213L44.9792 14.0639C45.2409 14.8229 45.5263 15.7237 45.7168 16.4117H45.7643C45.9785 15.7237 46.2165 14.8465 46.5019 14.0166L48.7861 7.28213H50.9982L47.8578 15.4636C46.3588 19.4003 45.3366 21.4155 43.9087 22.649C42.8856 23.5498 41.8633 23.906 41.3399 24.0006L40.8165 22.2454C41.3399 22.0791 42.0302 21.7473 42.6484 21.2256C43.2193 20.7748 43.9332 19.9685 44.4092 18.9014C44.504 18.6878 44.5752 18.5223 44.5752 18.4033C44.5752 18.2843 44.5277 18.1188 44.4329 17.8579L40.1746 7.28131H42.4587L42.4579 7.28213Z" fill="#000100"/>
</g>
<defs>
<clipPath id="clip0_3_24">
<rect width="51" height="24" fill="white"/>
</clipPath>
</defs>
</svg>
