<svg width="45" height="29" viewBox="0 0 45 29" fill="none" xmlns="http://www.w3.org/2000/svg">
<path fill-rule="evenodd" clip-rule="evenodd" d="M45 14.5C45 14.0728 44.8307 13.663 44.5293 13.3609C44.2279 13.0588 43.8192 12.8891 43.393 12.8891H5.48931L15.604 2.75343C15.7534 2.60365 15.872 2.42585 15.9528 2.23016C16.0337 2.03447 16.0753 1.82473 16.0753 1.61292C16.0753 1.40111 16.0337 1.19137 15.9528 0.995682C15.872 0.799994 15.7534 0.622186 15.604 0.472413C15.4546 0.322639 15.2772 0.203833 15.082 0.122776C14.8868 0.0417195 14.6775 0 14.4662 0C14.2549 0 14.0457 0.0417195 13.8505 0.122776C13.6552 0.203833 13.4779 0.322639 13.3285 0.472413L0.472129 13.3595C0.32247 13.5091 0.203733 13.6869 0.122718 13.8826C0.041702 14.0783 0 14.2881 0 14.5C0 14.7119 0.041702 14.9217 0.122718 15.1174C0.203733 15.3131 0.32247 15.4909 0.472129 15.6405L13.3285 28.5276C13.4779 28.6774 13.6552 28.7962 13.8505 28.8772C14.0457 28.9583 14.2549 29 14.4662 29C14.6775 29 14.8868 28.9583 15.082 28.8772C15.2772 28.7962 15.4546 28.6774 15.604 28.5276C15.7534 28.3778 15.872 28.2 15.9528 28.0043C16.0337 27.8086 16.0753 27.5989 16.0753 27.3871C16.0753 27.1753 16.0337 26.9655 15.9528 26.7698C15.872 26.5742 15.7534 26.3963 15.604 26.2466L5.48931 16.1109H43.393C43.8192 16.1109 44.2279 15.9412 44.5293 15.6391C44.8307 15.337 45 14.9272 45 14.5Z" fill="white" fill-opacity="0.8"/>
</svg>
