<svg width="14" height="15" viewBox="0 0 14 15" fill="none" xmlns="http://www.w3.org/2000/svg">
<path d="M2.10027 13.8958L13.3949 2.60114C13.5554 2.44066 13.6305 2.208 13.6038 1.95434C13.5771 1.70067 13.4507 1.44678 13.2524 1.24852C13.0542 1.05026 12.8003 0.923868 12.5466 0.897149C12.2929 0.87043 12.0603 0.945572 11.8998 1.10605L0.605173 12.4007C0.444699 12.5612 0.369557 12.7938 0.396277 13.0475C0.422996 13.3012 0.549388 13.555 0.747649 13.7533C0.945911 13.9516 1.1998 14.078 1.45347 14.1047C1.70713 14.1314 1.93979 14.0563 2.10027 13.8958Z" fill="#D73B5F"/>
<path d="M11.8997 13.8958L0.605095 2.60114C0.44462 2.44066 0.369478 2.208 0.396197 1.95434C0.422917 1.70067 0.549309 1.44678 0.747571 1.24852C0.945833 1.05026 1.19972 0.923868 1.45339 0.897149C1.70705 0.87043 1.93971 0.945572 2.10019 1.10605L13.3948 12.4007C13.5553 12.5612 13.6304 12.7938 13.6037 13.0475C13.577 13.3012 13.4506 13.555 13.2524 13.7533C13.0541 13.9516 12.8002 14.078 12.5465 14.1047C12.2929 14.1314 12.0602 14.0563 11.8997 13.8958Z" fill="#D73B5F"/>
</svg>
