<svg width="51" height="24" viewBox="0 0 51 24" fill="none" xmlns="http://www.w3.org/2000/svg">
<g clip-path="url(#clip0_3_10)">
<path d="M24.0988 12.4094V18.2677H22.1863V3.77951H27.1588C28.37 3.77951 29.5175 4.22046 30.41 5.03935C31.3025 5.79526 31.7488 6.92912 31.7488 8.12597C31.7488 9.32282 31.3025 10.3937 30.41 11.2126C29.5175 12.0315 28.4338 12.4724 27.1588 12.4724L24.0988 12.4094ZM24.0988 5.54329V10.5827H27.2863C27.9875 10.5827 28.6888 10.3307 29.135 9.82676C30.155 8.88187 30.155 7.30707 29.1988 6.36219L29.135 6.2992C28.625 5.79526 27.9875 5.4803 27.2863 5.54329H24.0988Z" fill="#5F6368"/>
<path d="M36.1458 8.06308C37.5483 8.06308 38.6321 8.44103 39.4608 9.19694C40.2896 9.95284 40.6721 10.9607 40.6721 12.2206V18.2678H38.8871V16.882H38.8233C38.0583 18.0158 36.9746 18.5828 35.6996 18.5828C34.6158 18.5828 33.6596 18.2678 32.8946 17.6379C32.1933 17.008 31.7471 16.1261 31.7471 15.1812C31.7471 14.1733 32.1296 13.3544 32.8946 12.7245C33.6596 12.0946 34.7433 11.8426 36.0183 11.8426C37.1658 11.8426 38.0583 12.0316 38.7596 12.4725V12.0316C38.7596 11.4017 38.5046 10.7717 37.9946 10.3938C37.4846 9.95284 36.8471 9.70087 36.1458 9.70087C35.0621 9.70087 34.2333 10.1418 33.6596 11.0237L32.0021 10.0158C33.0221 8.693 34.3608 8.06308 36.1458 8.06308ZM33.7233 15.2442C33.7233 15.7481 33.9783 16.1891 34.3608 16.441C34.8071 16.756 35.3171 16.945 35.8271 16.945C36.5921 16.945 37.3571 16.63 37.9308 16.0631C38.5683 15.4962 38.8871 14.8032 38.8871 14.0473C38.3133 13.6064 37.4846 13.3544 36.4008 13.3544C35.6358 13.3544 34.9983 13.5434 34.4883 13.9213C33.9783 14.2363 33.7233 14.6773 33.7233 15.2442Z" fill="#5F6368"/>
<path d="M51.0002 8.3779L44.689 22.6771H42.7765L45.1352 17.7007L40.9915 8.44089H43.0315L46.0277 15.559H46.0915L49.024 8.44089H51.0002V8.3779Z" fill="#5F6368"/>
<path d="M16.512 11.1495C16.512 10.5825 16.4483 10.0156 16.3845 9.44867H8.41577V12.6613H12.942C12.7508 13.6691 12.177 14.614 11.2845 15.181V17.2597H14.0258C15.6195 15.8109 16.512 13.6691 16.512 11.1495Z" fill="#4285F4"/>
<path d="M8.41361 19.2758C10.7086 19.2758 12.6211 18.5199 14.0236 17.2601L11.2824 15.1813C10.5174 15.6853 9.56111 16.0002 8.41361 16.0002C6.24611 16.0002 4.33361 14.5514 3.69611 12.5356H0.891113V14.6774C2.35736 17.512 5.22611 19.2758 8.41361 19.2758Z" fill="#34A853"/>
<path d="M3.69684 12.5353C3.31434 11.5275 3.31434 10.3936 3.69684 9.32273V7.181H0.891836C-0.319414 9.51171 -0.319414 12.2834 0.891836 14.6771L3.69684 12.5353Z" fill="#FBBC04"/>
<path d="M8.41651 5.92131C9.62776 5.92131 10.7753 6.36226 11.6678 7.18116L14.0903 4.78746C12.5603 3.40163 10.5203 2.58273 8.48026 2.64572C5.29276 2.64572 2.36026 4.4095 0.957764 7.24415L3.76276 9.38588C4.33651 7.37013 6.24901 5.92131 8.41651 5.92131Z" fill="#EA4335"/>
</g>
<defs>
<clipPath id="clip0_3_10">
<rect width="51" height="24" fill="white"/>
</clipPath>
</defs>
</svg>
