<svg width="24" height="24" viewBox="0 0 24 24" fill="none" xmlns="http://www.w3.org/2000/svg">
<rect width="24" height="24" fill="#D9D9D9"/>
<path d="M11.1919 14.5455V14.4943C11.1976 13.9517 11.2544 13.5199 11.3624 13.1989C11.4703 12.8778 11.6238 12.6179 11.8226 12.419C12.0215 12.2202 12.2601 12.0369 12.5385 11.8693C12.7061 11.767 12.8567 11.6463 12.9902 11.5071C13.1238 11.3651 13.2289 11.2017 13.3056 11.017C13.3851 10.8324 13.4249 10.6278 13.4249 10.4034C13.4249 10.125 13.3596 9.88352 13.2289 9.67898C13.0982 9.47443 12.9235 9.31676 12.7047 9.20597C12.486 9.09517 12.2431 9.03977 11.976 9.03977C11.7431 9.03977 11.5186 9.08807 11.3027 9.18466C11.0868 9.28125 10.9064 9.43324 10.7615 9.64062C10.6167 9.84801 10.5328 10.1193 10.5101 10.4545H9.43626C9.45898 9.97159 9.58398 9.55824 9.81126 9.21449C10.0414 8.87074 10.3439 8.60795 10.7189 8.42614C11.0968 8.24432 11.5158 8.15341 11.976 8.15341C12.476 8.15341 12.9107 8.25284 13.28 8.4517C13.6522 8.65057 13.9391 8.9233 14.1408 9.26989C14.3453 9.61648 14.4476 10.0114 14.4476 10.4545C14.4476 10.767 14.3993 11.0497 14.3027 11.3026C14.209 11.5554 14.0726 11.7812 13.8936 11.9801C13.7175 12.179 13.5044 12.3551 13.2544 12.5085C13.0044 12.6648 12.8042 12.8295 12.6536 13.0028C12.503 13.1733 12.3936 13.3764 12.3255 13.6122C12.2573 13.848 12.2203 14.142 12.2147 14.4943V14.5455H11.1919ZM11.7374 17.0682C11.5272 17.0682 11.3468 16.9929 11.1962 16.8423C11.0456 16.6918 10.9703 16.5114 10.9703 16.3011C10.9703 16.0909 11.0456 15.9105 11.1962 15.7599C11.3468 15.6094 11.5272 15.5341 11.7374 15.5341C11.9476 15.5341 12.128 15.6094 12.2786 15.7599C12.4292 15.9105 12.5044 16.0909 12.5044 16.3011C12.5044 16.4403 12.4689 16.5682 12.3979 16.6847C12.3297 16.8011 12.2374 16.8949 12.1209 16.9659C12.0073 17.0341 11.8794 17.0682 11.7374 17.0682Z" fill="#4D4A4A"/>
</svg>
