<svg width="38" height="24" viewBox="0 0 38 24" fill="none" xmlns="http://www.w3.org/2000/svg">
<g clip-path="url(#clip0_2275_5256)">
<path d="M23.8316 3.31409H13.8633V21.2274H23.8316V3.31409Z" fill="#FF5F00"/>
<path d="M14.4954 12.2709C14.4938 10.5457 14.8847 8.84278 15.6386 7.29102C16.3924 5.73926 17.4895 4.37935 18.8466 3.31423C17.166 1.99324 15.1476 1.17173 13.0222 0.943605C10.8968 0.715482 8.75004 1.08994 6.82737 2.02419C4.90471 2.95845 3.28368 4.4148 2.14958 6.22678C1.01548 8.03877 0.414063 10.1333 0.414062 12.2709C0.414062 14.4085 1.01548 16.503 2.14958 18.315C3.28368 20.127 4.90471 21.5834 6.82737 22.5176C8.75004 23.4519 10.8968 23.8263 13.0222 23.5982C15.1476 23.3701 17.166 22.5486 18.8466 21.2276C17.4895 20.1624 16.3925 18.8025 15.6386 17.2508C14.8847 15.699 14.4938 13.9961 14.4954 12.2709Z" fill="#EB001B"/>
<path d="M37.2796 12.2709C37.2797 14.4085 36.6783 16.503 35.5443 18.315C34.4103 20.127 32.7893 21.5833 30.8667 22.5176C28.944 23.4518 26.7973 23.8263 24.6719 23.5982C22.5465 23.3701 20.5282 22.5486 18.8477 21.2276C20.2036 20.1614 21.2997 18.8012 22.0535 17.2497C22.8072 15.6982 23.1988 13.9958 23.1988 12.2709C23.1988 10.546 22.8072 8.84359 22.0535 7.29207C21.2997 5.74056 20.2036 4.38042 18.8477 3.31423C20.5282 1.99323 22.5465 1.17172 24.6719 0.943602C26.7973 0.715481 28.944 1.08995 30.8667 2.02422C32.7893 2.95848 34.4103 4.41484 35.5443 6.22682C36.6783 8.0388 37.2797 10.1333 37.2796 12.2709Z" fill="#F79E1B"/>
<path d="M36.1936 19.3302V18.9635H36.3415V18.8888H35.9648V18.9635H36.1128V19.3302H36.1936ZM36.9247 19.3302V18.8881H36.8093L36.6765 19.1922L36.5437 18.8881H36.4282V19.3302H36.5097V18.9967L36.6342 19.2843H36.7188L36.8433 18.996V19.3302H36.9247Z" fill="#F79E1B"/>
</g>
<defs>
<clipPath id="clip0_2275_5256">
<rect width="36.8576" height="22.7847" fill="white" transform="translate(0.414062 0.87854)"/>
</clipPath>
</defs>
</svg>
