<svg width="24" height="24" viewBox="0 0 24 24" fill="none" xmlns="http://www.w3.org/2000/svg">
<g clip-path="url(#clip0_2405_5379)">
<path d="M12 0C5.3832 0 0 5.3832 0 12C0 18.6168 5.3832 24 12 24C18.6168 24 24 18.6168 24 12C24 5.3832 18.6168 0 12 0ZM12 21.8182C6.58618 21.8182 2.18182 17.4137 2.18182 12C2.18182 6.58625 6.58618 2.18182 12 2.18182C17.4138 2.18182 21.8182 6.58625 21.8182 12C21.8182 17.4137 17.4137 21.8182 12 21.8182Z" fill="#009D98"/>
<path d="M16.4986 7.75739L10.3274 13.9285L7.49901 11.1001C7.07305 10.6741 6.38228 10.674 5.95625 11.1C5.53021 11.526 5.53021 12.2167 5.95625 12.6428L9.55595 16.2426C9.76054 16.4472 10.038 16.5622 10.3273 16.5622H10.3274C10.6167 16.5622 10.8941 16.4472 11.0987 16.2427L18.0413 9.30022C18.4674 8.87419 18.4674 8.1835 18.0413 7.75746C17.6153 7.33142 16.9246 7.33135 16.4986 7.75739Z" fill="#009D98"/>
</g>
<defs>
<clipPath id="clip0_2405_5379">
<rect width="24" height="24" fill="white"/>
</clipPath>
</defs>
</svg>
