<svg width="71" height="24" viewBox="0 0 71 24" fill="none" xmlns="http://www.w3.org/2000/svg">
<g clip-path="url(#clip0_2275_5275)">
<path d="M26.9667 1.28126L17.7301 23.3186H11.704L7.15863 5.73179C6.88267 4.64856 6.64273 4.25171 5.80348 3.79534C4.43327 3.052 2.17052 2.35458 0.179688 1.92173L0.314908 1.28126H10.0152C11.2516 1.28126 12.3632 2.10435 12.6439 3.52821L15.0444 16.2801L20.9772 1.2809H26.9667V1.28126ZM50.5781 16.1236C50.6024 10.3073 42.5354 9.98684 42.5909 7.38862C42.6082 6.59787 43.3611 5.75715 45.0091 5.54256C45.8259 5.43563 48.0765 5.35406 50.6292 6.52879L51.6305 1.85558C50.2588 1.35769 48.494 0.87854 46.2981 0.87854C40.6633 0.87854 36.6978 3.87398 36.6643 8.1632C36.628 11.3357 39.4948 13.1061 41.6547 14.1603C43.8766 15.2399 44.6222 15.9336 44.6137 16.8993C44.5979 18.3775 42.8415 19.0301 41.2001 19.0558C38.3348 19.0999 36.6721 18.2805 35.3467 17.6643L34.3134 22.4922C35.6454 23.1033 38.104 23.6364 40.653 23.6633C46.642 23.6633 50.5598 20.7049 50.5781 16.1236ZM65.4576 23.3186H70.7301L66.1278 1.28126H61.2613C60.1671 1.28126 59.244 1.91842 58.8354 2.89803L50.2809 23.3186H56.267L57.4553 20.027H64.7693L65.4576 23.3186ZM59.0967 15.5103L62.0973 7.23613L63.8243 15.5103H59.0967ZM35.1119 1.28126L30.3979 23.3186H24.6973L29.4131 1.28126H35.1119Z" fill="#1434CB"/>
</g>
<defs>
<clipPath id="clip0_2275_5275">
<rect width="70.5504" height="22.7847" fill="white" transform="translate(0.179688 0.87854)"/>
</clipPath>
</defs>
</svg>
