<svg width="25" height="25" viewBox="0 0 25 25" fill="none" xmlns="http://www.w3.org/2000/svg">
<path d="M0.698874 0.698874C1.1465 0.251385 1.75353 0 2.38647 0C3.01941 0 3.62644 0.251385 4.07406 0.698874L12.5144 9.13923L20.9548 0.698874C21.405 0.264067 22.0079 0.0234734 22.6338 0.028912C23.2596 0.0343505 23.8583 0.285386 24.3009 0.727951C24.7434 1.17052 24.9945 1.7692 24.9999 2.39506C25.0053 3.02092 24.7648 3.62387 24.3299 4.07406L15.8896 12.5144L24.3299 20.9548C24.7648 21.405 25.0053 22.0079 24.9999 22.6338C24.9945 23.2596 24.7434 23.8583 24.3009 24.3009C23.8583 24.7434 23.2596 24.9945 22.6338 24.9999C22.0079 25.0053 21.405 24.7648 20.9548 24.3299L12.5144 15.8896L4.07406 24.3299C3.62387 24.7648 3.02092 25.0053 2.39506 24.9999C1.7692 24.9945 1.17052 24.7434 0.727951 24.3009C0.285386 23.8583 0.0343505 23.2596 0.028912 22.6338C0.0234734 22.0079 0.264067 21.405 0.698874 20.9548L9.13923 12.5144L0.698874 4.07406C0.251385 3.62644 0 3.01941 0 2.38647C0 1.75353 0.251385 1.1465 0.698874 0.698874Z" fill="#552B71"/>
</svg>
