<svg width="24" height="24" viewBox="0 0 24 24" fill="none" xmlns="http://www.w3.org/2000/svg">
<g clip-path="url(#clip0_902_1552)">
<path d="M0.501955 12.0033C0.500651 9.72784 1.17429 7.50312 2.43765 5.6106C3.70101 3.71809 5.49732 2.24282 7.59932 1.37144C9.70132 0.500057 12.0145 0.271722 14.2463 0.715322C16.4781 1.15892 18.5282 2.25452 20.1372 3.86351C21.7462 5.4725 22.8418 7.52257 23.2854 9.75437C23.729 11.9862 23.5007 14.2994 22.6293 16.4014C21.7579 18.5034 20.2826 20.2997 18.3901 21.5631C16.4976 22.8264 14.2729 23.5001 11.9974 23.4988C8.94863 23.4988 6.02472 22.2876 3.8689 20.1318C1.71308 17.976 0.501955 15.0521 0.501955 12.0033V12.0033Z" stroke="#552B71" stroke-width="1.25" stroke-linecap="round" stroke-linejoin="round"/>
<path d="M11.9961 0.500977V23.4985" stroke="#552B71" stroke-width="1.25" stroke-linecap="round" stroke-linejoin="round"/>
<path d="M23.4995 12.0029H0.501953" stroke="#552B71" stroke-width="1.25" stroke-linecap="round" stroke-linejoin="round"/>
<path d="M21.3823 5.64551C21.3823 5.64551 18.3551 7.45919 11.9973 7.45919C5.6395 7.45919 2.63867 5.64551 2.63867 5.64551" stroke="#552B71" stroke-width="1.25" stroke-linecap="round" stroke-linejoin="round"/>
<path d="M11.7002 23.4988C9.90265 22.2064 8.44117 20.5018 7.43824 18.5281C6.4353 16.5544 5.92014 14.3689 5.93595 12.1551C5.91909 9.94007 6.43374 7.75334 7.43672 5.77837C8.43969 3.80339 9.90174 2.09779 11.7002 0.804688" stroke="#552B71" stroke-width="1.25" stroke-linecap="round" stroke-linejoin="round"/>
<path d="M12.3008 23.4988C14.0959 22.2049 15.5548 20.4998 16.5554 18.5261C17.556 16.5525 18.0691 14.3678 18.0518 12.1551C18.0702 9.94121 17.5576 7.75522 16.5569 5.78034C15.5563 3.80546 14.0968 2.09923 12.3008 0.804688" stroke="#552B71" stroke-width="1.25" stroke-linecap="round" stroke-linejoin="round"/>
<path d="M21.3823 18.6579C21.3823 18.6579 18.3551 16.8442 11.9973 16.8442C5.6395 16.8442 2.63867 18.6579 2.63867 18.6579" stroke="#552B71" stroke-width="1.25" stroke-linecap="round" stroke-linejoin="round"/>
</g>
<defs>
<clipPath id="clip0_902_1552">
<rect width="24" height="24" fill="white"/>
</clipPath>
</defs>
</svg>
