<svg width="32" height="25" viewBox="0 0 32 25" fill="none" xmlns="http://www.w3.org/2000/svg">
<g clip-path="url(#clip0_902_1694)">
<path d="M22.9746 16.5205H26.7635C27.3258 16.5422 27.8866 16.4509 28.4125 16.2522C28.9384 16.0534 29.4185 15.7513 29.824 15.3638C30.2295 14.9764 30.5521 14.5116 30.7725 13.9973C30.9928 13.4831 31.1064 12.9299 31.1064 12.371C31.1064 11.8121 30.9928 11.2589 30.7725 10.7447C30.5521 10.2304 30.2295 9.7656 29.824 9.37815C29.4185 8.99069 28.9384 8.68854 28.4125 8.48979C27.8866 8.29105 27.3258 8.1998 26.7635 8.22152C26.5842 8.2226 26.405 8.23307 26.2268 8.25288" stroke="#552B71" stroke-width="1.24999" stroke-linecap="round" stroke-linejoin="round"/>
<path d="M8.43088 5.54334C7.72624 5.24235 6.96871 5.08247 6.20174 5.07288C4.68436 5.07288 3.22914 5.67164 2.15619 6.73744C1.08324 7.80324 0.480469 9.24878 0.480469 10.7561C0.480469 12.2633 1.08324 13.7089 2.15619 14.7747C3.22914 15.8405 4.68436 16.4392 6.20174 16.4392H8.30459" stroke="#552B71" stroke-width="1.24999" stroke-linecap="round" stroke-linejoin="round"/>
<path d="M18.2578 6.45902C18.6738 5.60809 19.3678 4.92229 20.2266 4.51351C21.0853 4.10472 22.0582 3.99708 22.9865 4.20814C23.9148 4.41919 24.7437 4.9365 25.338 5.67565C25.9322 6.41481 26.2568 7.33219 26.2587 8.27814" stroke="#552B71" stroke-width="1.24999" stroke-linecap="round" stroke-linejoin="round"/>
<path d="M8.77178 7.77626C8.55207 7.186 8.44085 6.56135 8.4434 5.93205C8.45108 4.57185 8.97455 3.2645 9.90946 2.27065C10.8444 1.27679 12.122 0.66946 13.4877 0.569736C14.8533 0.470013 16.2066 0.885226 17.2778 1.73259C18.3489 2.57996 19.0592 3.79721 19.2671 5.14167" stroke="#552B71" stroke-width="1.24999" stroke-linecap="round" stroke-linejoin="round"/>
<path d="M10.1055 6.18301C10.1055 6.0701 10.1055 5.95719 10.1055 5.84427C10.1055 4.8638 10.4971 3.9234 11.1945 3.22951C11.8918 2.53563 12.8379 2.14497 13.8249 2.14331C14.0367 2.14396 14.248 2.16285 14.4564 2.19977" stroke="#552B71" stroke-width="1.24999" stroke-linecap="round" stroke-linejoin="round"/>
<path d="M11.5703 20.7295V13.5597" stroke="#552B71" stroke-width="1.24999" stroke-linecap="round" stroke-linejoin="round"/>
<path d="M10.0293 15.0905L11.5701 13.5662L13.1046 15.0905" stroke="#552B71" stroke-width="1.24999" stroke-linecap="round" stroke-linejoin="round"/>
<path d="M15.832 20.7295V13.5597" stroke="#552B71" stroke-width="1.24999" stroke-linecap="round" stroke-linejoin="round"/>
<path d="M14.291 15.0905L15.8318 13.5662L17.3664 15.0905" stroke="#552B71" stroke-width="1.24999" stroke-linecap="round" stroke-linejoin="round"/>
<path d="M20.0938 20.7295V13.5597" stroke="#552B71" stroke-width="1.24999" stroke-linecap="round" stroke-linejoin="round"/>
<path d="M11.5703 23.5774V22.2789" stroke="#552B71" stroke-width="1.24999" stroke-linecap="round" stroke-linejoin="round"/>
<path d="M15.832 23.5774V22.2789" stroke="#552B71" stroke-width="1.24999" stroke-linecap="round" stroke-linejoin="round"/>
<path d="M11.5703 23.5774V22.2789" stroke="#552B71" stroke-width="1.24999" stroke-linecap="round" stroke-linejoin="round"/>
<path d="M15.832 23.5774V22.2789" stroke="#552B71" stroke-width="1.24999" stroke-linecap="round" stroke-linejoin="round"/>
<path d="M20.0938 23.5774V22.2789" stroke="#552B71" stroke-width="1.24999" stroke-linecap="round" stroke-linejoin="round"/>
<path d="M18.5547 15.0905L20.0955 13.5662L21.63 15.0905" stroke="#552B71" stroke-width="1.24999" stroke-linecap="round" stroke-linejoin="round"/>
</g>
<defs>
<clipPath id="clip0_902_1694">
<rect width="31.448" height="23.9998" fill="white" transform="translate(0 0.0546875)"/>
</clipPath>
</defs>
</svg>
