<svg width="20" height="25" viewBox="0 0 20 25" fill="none" xmlns="http://www.w3.org/2000/svg">
<g clip-path="url(#clip0_902_1601)">
<path d="M9.07227 22.8211C9.07227 22.6496 9.12398 22.4819 9.22087 22.3393C9.31775 22.1967 9.45546 22.0855 9.61658 22.0199C9.7777 21.9542 9.95499 21.9371 10.126 21.9705C10.2971 22.004 10.4542 22.0866 10.5775 22.2079C10.7008 22.3292 10.7848 22.4837 10.8188 22.6519C10.8528 22.8201 10.8354 22.9945 10.7686 23.153C10.7019 23.3114 10.5889 23.4469 10.4439 23.5422C10.2989 23.6375 10.1284 23.6883 9.95401 23.6883C9.72016 23.6883 9.49588 23.597 9.33052 23.4343C9.16516 23.2717 9.07227 23.0511 9.07227 22.8211V22.8211Z" stroke="#552B71" stroke-width="0.96" stroke-linecap="round" stroke-linejoin="round"/>
<path d="M12.4428 7.57056H7.44624C7.06387 7.57056 6.75391 7.87543 6.75391 8.2515V18.0352C6.75391 18.4113 7.06387 18.7162 7.44624 18.7162H12.4428C12.8251 18.7162 13.1351 18.4113 13.1351 18.0352V8.2515C13.1351 7.87543 12.8251 7.57056 12.4428 7.57056Z" stroke="#552B71" stroke-width="0.96" stroke-linecap="round" stroke-linejoin="round"/>
<path d="M8.81826 16.4869C8.81697 16.2704 8.88115 16.0584 9.00266 15.8778C9.12417 15.6972 9.29751 15.5563 9.50066 15.4728C9.70382 15.3894 9.92761 15.3672 10.1436 15.4091C10.3596 15.451 10.558 15.5552 10.7137 15.7083C10.8694 15.8614 10.9753 16.0566 11.0179 16.269C11.0605 16.4815 11.038 16.7016 10.9532 16.9014C10.8683 17.1012 10.725 17.2717 10.5414 17.3912C10.3578 17.5107 10.1422 17.5738 9.92207 17.5726C9.62985 17.5709 9.35008 17.456 9.14345 17.2527C8.93681 17.0495 8.81997 16.7743 8.81826 16.4869V16.4869Z" stroke="#552B71" stroke-width="0.96" stroke-linecap="round" stroke-linejoin="round"/>
<path d="M9.25657 13.8148H8.83203V14.2324H9.25657V13.8148Z" fill="#552B71"/>
<path d="M10.1374 13.8148H9.71289V14.2324H10.1374V13.8148Z" fill="#552B71"/>
<path d="M10.1374 8.64966H9.71289V9.06722H10.1374V8.64966Z" fill="#552B71"/>
<path d="M9.25511 8.64966H7.66797V9.06722H9.25511V8.64966Z" fill="#552B71"/>
<path d="M12.1299 8.64963H10.5427V9.06719H12.1299V8.64963Z" fill="#552B71"/>
<path d="M9.25657 11.3286H8.83203V11.7462H9.25657V11.3286Z" fill="#552B71"/>
<path d="M8.37336 11.3286H7.66797V11.7462H8.37336V11.3286Z" fill="#552B71"/>
<path d="M12.1295 11.3286H9.71289V11.7462H12.1295V11.3286Z" fill="#552B71"/>
<path d="M12.1289 9.98608H7.66797V10.4036H12.1289V9.98608Z" fill="#552B71"/>
<path d="M12.1289 12.5684H7.66797V12.9859H12.1289V12.5684Z" fill="#552B71"/>
<path d="M10.9673 13.8148H10.5427V14.2324H10.9673V13.8148Z" fill="#552B71"/>
<path d="M9.95496 18.7414V21.947" stroke="#552B71" stroke-width="0.96" stroke-linecap="round" stroke-linejoin="round"/>
<path d="M18.12 11.1997H15.0503C14.8014 11.1997 14.5996 11.3982 14.5996 11.643V18.2725C14.5996 18.5173 14.8014 18.7158 15.0503 18.7158H18.12C18.3689 18.7158 18.5707 18.5173 18.5707 18.2725V11.643C18.5707 11.3982 18.3689 11.1997 18.12 11.1997Z" stroke="#552B71" stroke-width="0.96" stroke-linecap="round" stroke-linejoin="round"/>
<path d="M15.7871 16.7955C15.7858 16.6402 15.8315 16.4881 15.9182 16.3584C16.005 16.2286 16.129 16.1272 16.2745 16.0669C16.42 16.0066 16.5804 15.9901 16.7354 16.0197C16.8904 16.0492 17.033 16.1233 17.1451 16.2326C17.2572 16.342 17.3337 16.4816 17.365 16.6338C17.3963 16.786 17.3809 16.9439 17.3208 17.0875C17.2606 17.2311 17.1585 17.3539 17.0273 17.4403C16.8962 17.5267 16.7418 17.5728 16.584 17.5728C16.3738 17.5728 16.1721 17.4911 16.0228 17.3456C15.8736 17.2 15.7889 17.0023 15.7871 16.7955Z" stroke="#552B71" stroke-width="0.96" stroke-linecap="round" stroke-linejoin="round"/>
<path d="M17.7523 12.1508H15.4141V12.5683H17.7523V12.1508Z" fill="#552B71"/>
<path d="M17.7523 13.506H15.4141V13.9235H17.7523V13.506Z" fill="#552B71"/>
<path d="M17.7523 14.8616H15.4141V15.2791H17.7523V14.8616Z" fill="#552B71"/>
<path d="M16.0488 21.6196C16.0488 21.5167 16.0799 21.4161 16.138 21.3305C16.1961 21.2449 16.2787 21.1782 16.3754 21.1389C16.4721 21.0995 16.5785 21.0892 16.6811 21.1092C16.7837 21.1293 16.878 21.1789 16.952 21.2516C17.026 21.3244 17.0763 21.4171 17.0968 21.5181C17.1172 21.619 17.1067 21.7236 17.0666 21.8187C17.0266 21.9138 16.9588 21.9951 16.8718 22.0522C16.7848 22.1094 16.6825 22.1399 16.5779 22.1399C16.4376 22.1399 16.303 22.0851 16.2038 21.9875C16.1046 21.8899 16.0488 21.7576 16.0488 21.6196V21.6196Z" stroke="#552B71" stroke-width="0.96" stroke-linecap="round" stroke-linejoin="round"/>
<path d="M16.578 18.7414V21.099" stroke="#552B71" stroke-width="0.96" stroke-linecap="round" stroke-linejoin="round"/>
<path d="M4.841 11.1996H1.77123C1.52233 11.1996 1.32056 11.3981 1.32056 11.6429V18.2725C1.32056 18.5173 1.52233 18.7157 1.77123 18.7157H4.841C5.08989 18.7157 5.29166 18.5173 5.29166 18.2725V11.6429C5.29166 11.3981 5.08989 11.1996 4.841 11.1996Z" stroke="#552B71" stroke-width="0.96" stroke-linecap="round" stroke-linejoin="round"/>
<path d="M2.50979 16.7955C2.5085 16.6402 2.55413 16.4881 2.6409 16.3584C2.72766 16.2286 2.85165 16.1272 2.99714 16.0669C3.14262 16.0066 3.30304 15.9901 3.45804 16.0197C3.61304 16.0492 3.75563 16.1233 3.86772 16.2326C3.97982 16.342 4.05636 16.4816 4.08764 16.6338C4.11892 16.786 4.10352 16.9439 4.04341 17.0875C3.9833 17.2311 3.88117 17.3539 3.75 17.4403C3.61882 17.5267 3.4645 17.5728 3.30663 17.5728C3.09642 17.5728 2.89473 17.4911 2.74548 17.3456C2.59623 17.2 2.51152 17.0023 2.50979 16.7955V16.7955Z" stroke="#552B71" stroke-width="0.96" stroke-linecap="round" stroke-linejoin="round"/>
<path d="M4.47485 12.1508H2.1366V12.5683H4.47485V12.1508Z" fill="#552B71"/>
<path d="M4.47485 13.5059H2.1366V13.9235H4.47485V13.5059Z" fill="#552B71"/>
<path d="M4.47485 14.8616H2.1366V15.2791H4.47485V14.8616Z" fill="#552B71"/>
<path d="M2.76953 21.6196C2.76953 21.5167 2.80056 21.4161 2.85869 21.3305C2.91682 21.2449 2.99945 21.1782 3.09612 21.1389C3.19279 21.0995 3.29916 21.0892 3.40179 21.1092C3.50441 21.1293 3.59868 21.1789 3.67267 21.2516C3.74666 21.3244 3.79704 21.4171 3.81746 21.5181C3.83787 21.619 3.82739 21.7236 3.78735 21.8187C3.74731 21.9138 3.6795 21.9951 3.5925 22.0522C3.5055 22.1094 3.40321 22.1399 3.29858 22.1399C3.15827 22.1399 3.0237 22.0851 2.92449 21.9875C2.82527 21.8899 2.76953 21.7576 2.76953 21.6196V21.6196Z" stroke="#552B71" stroke-width="0.96" stroke-linecap="round" stroke-linejoin="round"/>
<path d="M3.29883 18.7415V21.0991" stroke="#552B71" stroke-width="0.96" stroke-linecap="round" stroke-linejoin="round"/>
<path d="M16.5785 20.0845H3.30664" stroke="#552B71" stroke-width="0.96" stroke-linecap="round" stroke-linejoin="round"/>
<path d="M15.8848 8.64955L19.4901 5.10352" stroke="#552B71" stroke-width="0.96" stroke-linecap="round" stroke-linejoin="round"/>
<path d="M17.3105 5.10352H19.492V7.24913" stroke="#552B71" stroke-width="0.96" stroke-linecap="round" stroke-linejoin="round"/>
<path d="M3.97852 8.64955L0.373169 5.10352" stroke="#552B71" stroke-width="0.96" stroke-linecap="round" stroke-linejoin="round"/>
<path d="M0.373169 7.24913V5.10352H2.55467" stroke="#552B71" stroke-width="0.96" stroke-linecap="round" stroke-linejoin="round"/>
<path d="M9.89636 5.60482V0.42067" stroke="#552B71" stroke-width="0.96" stroke-linecap="round" stroke-linejoin="round"/>
<path d="M8.35547 1.93671L9.89689 0.420654L11.4448 1.93671" stroke="#552B71" stroke-width="0.96" stroke-linecap="round" stroke-linejoin="round"/>
</g>
<defs>
<clipPath id="clip0_902_1601">
<rect width="19.8621" height="24" fill="white" transform="translate(0 0.0546875)"/>
</clipPath>
</defs>
</svg>
