<svg width="27" height="25" viewBox="0 0 27 25" fill="none" xmlns="http://www.w3.org/2000/svg">
<g clip-path="url(#clip0_902_1565)">
<path d="M12.1387 21.9781C12.1387 21.7332 12.2114 21.4938 12.3476 21.2902C12.4837 21.0866 12.6773 20.9278 12.9038 20.8341C13.1303 20.7404 13.3795 20.7159 13.6199 20.7637C13.8603 20.8114 14.0812 20.9294 14.2545 21.1025C14.4279 21.2757 14.5459 21.4963 14.5937 21.7365C14.6415 21.9767 14.617 22.2257 14.5232 22.452C14.4294 22.6782 14.2705 22.8716 14.0667 23.0077C13.8629 23.1437 13.6232 23.2163 13.3781 23.2163C13.0494 23.2163 12.7341 23.0859 12.5017 22.8537C12.2693 22.6215 12.1387 22.3065 12.1387 21.9781Z" stroke="#552B71" stroke-width="1.22727" stroke-linecap="round" stroke-linejoin="round"/>
<path d="M16.8604 0.352539H9.88863C9.35471 0.352539 8.92188 0.784953 8.92188 1.31836V15.1866C8.92188 15.72 9.35471 16.1524 9.88863 16.1524H16.8604C17.3944 16.1524 17.8272 15.72 17.8272 15.1866V1.31836C17.8272 0.784953 17.3944 0.352539 16.8604 0.352539Z" stroke="#552B71" stroke-width="1.22727" stroke-linecap="round" stroke-linejoin="round"/>
<path d="M13.9446 14.4152C14.7319 14.0894 15.1058 13.1876 14.7797 12.401C14.4535 11.6144 13.5509 11.2409 12.7635 11.5667C11.9762 11.8925 11.6023 12.7943 11.9284 13.5809C12.2545 14.3675 13.1572 14.741 13.9446 14.4152Z" stroke="#552B71" stroke-width="1.22727" stroke-linecap="round" stroke-linejoin="round"/>
<path d="M12.4152 9.20581H11.8203V9.80016H12.4152V9.20581Z" fill="#552B71"/>
<path d="M13.6438 9.20581H13.0488V9.80016H13.6438V9.20581Z" fill="#552B71"/>
<path d="M13.6438 1.88196H13.0488V2.47631H13.6438V1.88196Z" fill="#552B71"/>
<path d="M12.4178 1.88196H10.1992V2.47631H12.4178V1.88196Z" fill="#552B71"/>
<path d="M16.4256 1.88196H14.207V2.47631H16.4256V1.88196Z" fill="#552B71"/>
<path d="M12.4152 5.67688H11.8203V6.27123H12.4152V5.67688Z" fill="#552B71"/>
<path d="M11.1846 5.67688H10.1992V6.27123H11.1846V5.67688Z" fill="#552B71"/>
<path d="M16.4263 5.67688H13.0488V6.27123H16.4263V5.67688Z" fill="#552B71"/>
<path d="M16.4274 3.78271H10.1992V4.37707H16.4274V3.78271Z" fill="#552B71"/>
<path d="M16.4274 7.44165H10.1992V8.036H16.4274V7.44165Z" fill="#552B71"/>
<path d="M14.802 9.20581H14.207V9.80016H14.802V9.20581Z" fill="#552B71"/>
<path d="M13.3887 16.1898V20.7403" stroke="#552B71" stroke-width="1.22727" stroke-linecap="round" stroke-linejoin="round"/>
<path d="M24.7854 5.49756H20.497C20.1513 5.49756 19.8711 5.77752 19.8711 6.12287V15.5273C19.8711 15.8726 20.1513 16.1526 20.497 16.1526H24.7854C25.1311 16.1526 25.4114 15.8726 25.4114 15.5273V6.12287C25.4114 5.77752 25.1311 5.49756 24.7854 5.49756Z" stroke="#552B71" stroke-width="1.22727" stroke-linecap="round" stroke-linejoin="round"/>
<path d="M21.5391 13.4346C21.5391 13.218 21.6031 13.0062 21.723 12.8257C21.8429 12.6452 22.0134 12.504 22.2132 12.4198C22.4129 12.3355 22.6331 12.312 22.8462 12.352C23.0593 12.3921 23.2559 12.494 23.4113 12.6451C23.5667 12.7961 23.6741 12.9896 23.7201 13.2013C23.7661 13.413 23.7487 13.6335 23.6699 13.8353C23.5912 14.0372 23.4546 14.2113 23.2773 14.336C23.1 14.4608 22.8899 14.5305 22.6731 14.5366C22.5259 14.5399 22.3795 14.5139 22.2425 14.4601C22.1054 14.4062 21.9805 14.3257 21.8749 14.2231C21.7693 14.1205 21.6853 13.998 21.6276 13.8626C21.5699 13.7272 21.5398 13.5817 21.5391 13.4346V13.4346Z" stroke="#552B71" stroke-width="1.22727" stroke-linecap="round" stroke-linejoin="round"/>
<path d="M24.2776 6.84717H21.0117V7.44152H24.2776V6.84717Z" fill="#552B71"/>
<path d="M24.2776 8.76672H21.0117V9.36108H24.2776V8.76672Z" fill="#552B71"/>
<path d="M24.2776 10.692H21.0117V11.2864H24.2776V10.692Z" fill="#552B71"/>
<path d="M21.8984 20.2762C21.8984 20.0808 21.9761 19.8934 22.1144 19.7552C22.2527 19.6171 22.4403 19.5394 22.6359 19.5394C22.8315 19.5394 23.0191 19.6171 23.1574 19.7552C23.2957 19.8934 23.3734 20.0808 23.3734 20.2762C23.3734 20.4716 23.2957 20.659 23.1574 20.7971C23.0191 20.9353 22.8315 21.0129 22.6359 21.0129C22.4403 21.0129 22.2527 20.9353 22.1144 20.7971C21.9761 20.659 21.8984 20.4716 21.8984 20.2762V20.2762Z" stroke="#552B71" stroke-width="1.22727" stroke-linecap="round" stroke-linejoin="round"/>
<path d="M22.6348 16.1898V19.5392" stroke="#552B71" stroke-width="1.22727" stroke-linecap="round" stroke-linejoin="round"/>
<path d="M6.25029 5.49756H1.96185C1.61617 5.49756 1.33594 5.77752 1.33594 6.12287V15.5273C1.33594 15.8726 1.61617 16.1526 1.96185 16.1526H6.25029C6.59597 16.1526 6.8762 15.8726 6.8762 15.5273V6.12287C6.8762 5.77752 6.59597 5.49756 6.25029 5.49756Z" stroke="#552B71" stroke-width="1.22727" stroke-linecap="round" stroke-linejoin="round"/>
<path d="M3.00391 13.4348C3.00396 13.2158 3.06933 13.0017 3.19167 12.82C3.31401 12.6383 3.48778 12.4971 3.69079 12.4145C3.8938 12.3318 4.11686 12.3115 4.33148 12.3561C4.54611 12.4006 4.74258 12.5081 4.89582 12.6647C5.04906 12.8213 5.15211 13.02 5.19183 13.2353C5.23156 13.4507 5.20614 13.673 5.11884 13.8739C5.03154 14.0748 4.8863 14.2452 4.70166 14.3632C4.51703 14.4813 4.30137 14.5417 4.08221 14.5368C3.79448 14.5288 3.52114 14.4093 3.31993 14.2037C3.11872 13.998 3.0054 13.7223 3.00391 13.4348Z" stroke="#552B71" stroke-width="1.22727" stroke-linecap="round" stroke-linejoin="round"/>
<path d="M5.74247 6.84717H2.47656V7.44152H5.74247V6.84717Z" fill="#552B71"/>
<path d="M5.74247 8.76672H2.47656V9.36108H5.74247V8.76672Z" fill="#552B71"/>
<path d="M5.74247 10.692H2.47656V11.2864H5.74247V10.692Z" fill="#552B71"/>
<path d="M3.36328 20.2762C3.36328 20.0808 3.44098 19.8934 3.57928 19.7552C3.71758 19.6171 3.90516 19.5394 4.10074 19.5394C4.29633 19.5394 4.48391 19.6171 4.62221 19.7552C4.76051 19.8934 4.83821 20.0808 4.83821 20.2762C4.83821 20.4716 4.76051 20.659 4.62221 20.7971C4.48391 20.9353 4.29633 21.0129 4.10074 21.0129C3.90516 21.0129 3.71758 20.9353 3.57928 20.7971C3.44098 20.659 3.36328 20.4716 3.36328 20.2762V20.2762Z" stroke="#552B71" stroke-width="1.22727" stroke-linecap="round" stroke-linejoin="round"/>
<path d="M4.09961 16.1898V19.5392" stroke="#552B71" stroke-width="1.22727" stroke-linecap="round" stroke-linejoin="round"/>
<path d="M22.635 18.0964H4.10547" stroke="#552B71" stroke-width="1.22727" stroke-linecap="round" stroke-linejoin="round"/>
</g>
<defs>
<clipPath id="clip0_902_1565">
<rect width="27" height="24.0545" fill="white"/>
</clipPath>
</defs>
</svg>
